<svg width="258" height="72" viewBox="0 0 258 72" fill="none" xmlns="http://www.w3.org/2000/svg">
<path fill-rule="evenodd" clip-rule="evenodd" d="M177.752 57.3548L186.451 69.78L168.822 69.7138L177.752 57.3548ZM241.521 14.0156H257.992L249.955 53.7763L241.521 14.0156ZM249.757 69.6475C247.739 69.6475 246.085 68.9848 244.762 67.6926C243.439 66.4004 242.778 64.8099 242.778 62.9213C242.778 61.0327 243.439 59.4422 244.762 58.1832C246.085 56.9241 247.739 56.2945 249.757 56.2945C251.708 56.2945 253.329 56.9241 254.619 58.1832C255.909 59.4422 256.537 61.0327 256.537 62.9213C256.537 64.8099 255.909 66.4004 254.619 67.6926C253.329 68.9848 251.708 69.6475 249.757 69.6475ZM0.00646973 70.8403V58.4151C5.89384 58.4151 32.5854 60.7676 32.5854 54.0746C32.5854 52.4841 31.7255 51.3244 30.0056 50.5624C28.2857 49.7671 25.5404 48.9719 21.7368 48.1436C17.5693 47.2158 14.0634 46.2549 11.252 45.2278C8.4737 44.2006 6.05921 42.5439 4.04163 40.2577C2.05713 38.0046 1.0318 34.9231 1.0318 31.0465C1.0318 27.6668 1.9579 24.6185 3.81011 21.9015C5.66231 19.1514 8.44062 16.9977 12.112 15.4073C20.2484 11.8951 37.8775 12.9222 46.047 12.9222V25.3474H42.6403C40.3912 25.3474 22.1999 24.3866 18.727 26.6397C17.3047 27.5674 16.5771 28.7934 16.5771 30.2844C16.5771 31.7423 17.437 32.8688 19.1239 33.5978C20.8107 34.3267 23.5229 35.122 27.2604 35.9172C31.494 36.8118 34.9999 37.7727 37.7782 38.7998C40.5565 39.827 42.938 41.4837 44.9886 43.7368C47.0062 45.9567 48.0315 49.0382 48.0315 52.8817C48.0315 56.2283 47.1054 59.2434 45.2532 61.9273C43.401 64.6443 40.6227 66.798 36.9514 68.4215C28.7157 72 8.50677 70.8403 0.00646973 70.8403ZM217.343 0L206.99 14.0819L214.73 14.115C219.791 14.115 224.156 14.9434 227.861 16.6001C231.565 18.2899 234.41 20.6756 236.427 23.7902C238.445 26.8716 239.437 30.5163 239.437 34.7243C239.437 38.8992 238.445 42.5439 236.427 45.5923C234.41 48.6737 231.565 51.0594 227.861 52.7161C224.156 54.4059 219.791 55.2342 214.73 55.2342H205.072V69.78H189.328V39.098L200.938 22.2991H181.258L168.359 30.2513C167.995 29.6549 167.565 29.1247 167.003 28.6608C165.382 27.2361 162.934 26.5071 159.726 26.5071H150.994V41.0198L135.251 50.728V14.115H160.652C165.68 14.115 170.046 14.9434 173.75 16.6001C176.859 17.9917 179.34 19.8804 181.258 22.266L217.343 0ZM213.804 42.809C217.012 42.809 219.46 42.1132 221.114 40.7216C222.734 39.2968 223.561 37.3088 223.561 34.7243C223.561 32.1068 222.734 30.0856 221.114 28.6608C219.46 27.2361 217.012 26.5071 213.804 26.5071H205.072V42.809H213.804ZM111.966 14.115H127.709V55.3999L111.966 65.1081V14.115ZM104.491 14.115V69.7469L104.425 69.78H88.78V48.0773H67.3474V69.78H51.6367V14.115H67.3474V35.0225H88.78V14.115H104.491Z" fill="#67DB74"/>
</svg>
