<svg width="211" height="186" viewBox="0 0 211 186" fill="none" xmlns="http://www.w3.org/2000/svg">
<g clip-path="url(#clip0)">
<path fill-rule="evenodd" clip-rule="evenodd" d="M145.374 174.024L152.488 184.203L138.07 184.121L145.374 174.024ZM197.528 138.52H211L204.427 171.092L197.528 138.52ZM204.264 184.094C202.614 184.094 201.262 183.551 200.179 182.493C199.097 181.434 198.556 180.131 198.556 178.584C198.556 177.01 199.097 175.734 200.179 174.675C201.262 173.644 202.614 173.128 204.264 173.128C205.86 173.128 207.186 173.644 208.241 174.675C209.296 175.734 209.81 177.01 209.81 178.584C209.81 180.131 209.296 181.434 208.241 182.493C207.186 183.551 205.86 184.094 204.264 184.094ZM0 185.044V174.865C4.81513 174.865 26.6455 176.82 26.6455 171.337C26.6455 170.034 25.9422 169.057 24.5355 168.432C23.1288 167.808 20.8836 167.157 17.7727 166.451C14.3642 165.718 11.4968 164.931 9.19744 164.089C6.92513 163.221 4.95038 161.891 3.30026 160.018C1.67718 158.145 0.83859 155.648 0.83859 152.472C0.83859 149.703 1.59603 147.206 3.1109 144.953C4.62577 142.727 6.89808 140.963 9.90077 139.66C16.5554 136.783 30.9737 137.597 37.6554 137.597V147.776H34.8691C33.0296 147.776 18.1514 147.016 15.311 148.862C14.1478 149.622 13.5527 150.599 13.5527 151.82C13.5527 153.042 14.256 153.938 15.6356 154.562C17.0153 155.159 19.2335 155.783 22.2903 156.435C25.7528 157.168 28.6203 157.955 30.8926 158.823C33.1649 159.665 35.1126 160.995 36.7897 162.841C38.4399 164.687 39.2785 167.184 39.2785 170.36C39.2785 173.074 38.521 175.571 37.0062 177.77C35.4913 179.968 33.219 181.733 30.2163 183.063C23.4805 185.994 6.95218 185.044 0 185.044ZM177.754 127.038L169.287 138.574H175.617C179.756 138.574 183.327 139.28 186.356 140.637C189.386 141.994 191.712 143.949 193.363 146.5C195.013 149.052 195.824 152.038 195.824 155.458C195.824 158.878 195.013 161.864 193.363 164.388C191.712 166.912 189.386 168.84 186.356 170.224C183.327 171.581 179.756 172.26 175.617 172.26H167.718V184.203H154.842V159.041L164.337 145.306L148.241 145.279L137.691 151.82C137.393 151.332 137.042 150.898 136.582 150.518C135.256 149.323 133.255 148.753 130.631 148.753H123.489V160.615L110.613 168.568V138.574H131.388C135.5 138.574 139.071 139.28 142.1 140.637C144.643 141.777 146.672 143.324 148.241 145.279L177.754 127.038ZM174.859 162.108C177.483 162.108 179.485 161.538 180.838 160.371C182.163 159.231 182.84 157.575 182.84 155.458C182.84 153.34 182.163 151.685 180.838 150.518C179.485 149.323 177.483 148.753 174.859 148.753H167.718V162.108H174.859ZM91.5686 138.574H104.445V172.395L91.5686 180.376V138.574ZM85.455 138.574V184.149L85.4009 184.203H72.6056V166.397H55.0764V184.203H42.2271V138.574H55.0764V155.729H72.6056V138.574H85.455Z" fill="#67DB74"/>
<path fill-rule="evenodd" clip-rule="evenodd" d="M116.131 117.348C69.1701 130.648 30.6761 81.1111 55.1305 39.0112C66.6002 19.2506 90.1889 5.67877 119.053 15.8848L155.166 0.0057373L163.444 4.13158L125.247 38.2784L141.559 65.8292L142.1 76.8224L126.789 85.9155L100.009 74.4066C92.4612 91.6157 98.4396 108.933 116.131 117.348Z" fill="#67DB74"/>
<path fill-rule="evenodd" clip-rule="evenodd" d="M107.61 27.6923L112.669 20.8792C78.9626 11.2704 49.5849 44.4671 56.4019 75.7366C60.4055 94.1401 75.6083 110.209 99.4675 112.652C99.4675 112.652 90.0266 103.939 89.8643 90.0142C89.8102 83.6897 90.5135 77.2024 93.5703 71.5565L82.4522 66.6706L76.7715 54.6188L86.9698 38.6855L82.8851 53.5331L86.9157 61.9205L126.113 78.9396L135.77 73.2666L135.283 65.9921L116.699 37.4369L148.539 8.936L107.61 27.6923ZM100.198 38.9026L102.281 36.8397L113.21 42.7028L106.717 47.5072L100.198 38.9026Z" fill="white"/>
<path fill-rule="evenodd" clip-rule="evenodd" d="M76.7715 54.6188C76.7715 54.6188 71.6859 68.0007 76.7715 87.2184C81.8572 106.436 99.4675 112.652 99.4675 112.652C87.4297 100.845 87.8625 83.6897 93.5704 71.5565L82.4523 66.6706L76.7715 54.6188Z" fill="#CCCCCC" fill-opacity="0.501961"/>
</g>
<defs>
<clipPath id="clip0">
<rect width="211" height="186" fill="white"/>
</clipPath>
</defs>
</svg>
