<svg width="1440" height="520" viewBox="0 0 1440 520" fill="none" xmlns="http://www.w3.org/2000/svg">
<rect width="1440" height="520" fill="#67DB74"/>
<path fill-rule="evenodd" clip-rule="evenodd" d="M776.73 285.03L786.896 299.551L766.293 299.474L776.73 285.03ZM851.256 234.38H870.506L861.112 280.848L851.256 234.38ZM860.881 299.396C858.523 299.396 856.59 298.622 855.044 297.112C853.498 295.601 852.724 293.743 852.724 291.536C852.724 289.328 853.498 287.47 855.044 285.998C856.59 284.527 858.523 283.791 860.881 283.791C863.161 283.791 865.055 284.527 866.563 285.998C868.07 287.47 868.805 289.328 868.805 291.536C868.805 293.743 868.07 295.601 866.563 297.112C865.055 298.622 863.161 299.396 860.881 299.396ZM569 300.79V286.269C575.881 286.269 607.075 289.019 607.075 281.196C607.075 279.338 606.07 277.982 604.06 277.092C602.05 276.162 598.841 275.233 594.396 274.265C589.526 273.181 585.428 272.058 582.143 270.857C578.896 269.657 576.074 267.721 573.716 265.049C571.397 262.416 570.198 258.814 570.198 254.284C570.198 250.334 571.281 246.771 573.445 243.596C575.61 240.382 578.857 237.865 583.148 236.006C592.657 231.902 613.259 233.102 622.807 233.102V247.623H618.826C616.197 247.623 594.937 246.5 590.878 249.134C589.216 250.218 588.366 251.651 588.366 253.393C588.366 255.097 589.371 256.414 591.342 257.265C593.314 258.117 596.483 259.047 600.851 259.976C605.799 261.022 609.897 262.145 613.144 263.345C616.39 264.545 619.174 266.482 621.57 269.115C623.928 271.709 625.126 275.31 625.126 279.802C625.126 283.713 624.044 287.237 621.879 290.374C619.715 293.549 616.468 296.066 612.177 297.964C602.552 302.146 578.934 300.79 569 300.79ZM822.999 218L810.9 234.457L819.945 234.496C825.86 234.496 830.962 235.464 835.291 237.4C839.621 239.375 842.945 242.163 845.303 245.803C847.661 249.405 848.82 253.664 848.82 258.582C848.82 263.461 847.661 267.721 845.303 271.283C842.945 274.885 839.621 277.673 835.291 279.609C830.962 281.584 825.86 282.552 819.945 282.552H808.658V299.551H790.259V263.693L803.826 244.061H780.827L765.752 253.354C765.326 252.657 764.824 252.038 764.167 251.496C762.273 249.831 759.412 248.979 755.663 248.979H745.458V265.939L727.058 277.285V234.496H756.745C762.621 234.496 767.723 235.464 772.052 237.4C775.686 239.027 778.585 241.234 780.827 244.022L822.999 218ZM818.863 268.03C822.613 268.03 825.473 267.217 827.406 265.591C829.3 263.926 830.266 261.602 830.266 258.582C830.266 255.523 829.3 253.161 827.406 251.496C825.473 249.831 822.613 248.979 818.863 248.979H808.658V268.03H818.863ZM699.846 234.496H718.245V282.745L699.846 294.091V234.496ZM691.11 234.496V299.513L691.032 299.551H672.749V274.187H647.701V299.551H629.34V234.496H647.701V258.931H672.749V234.496H691.11Z" fill="white"/>
</svg>
