<svg width="520" height="520" viewBox="0 0 520 520" fill="none" xmlns="http://www.w3.org/2000/svg">
<rect width="520" height="520" fill="#67DB74"/>
<path fill-rule="evenodd" clip-rule="evenodd" d="M307.244 281.579L315.673 293.62L298.59 293.556L307.244 281.579ZM369.038 239.582H385L377.212 278.112L369.038 239.582ZM377.019 293.492C375.064 293.492 373.462 292.849 372.18 291.597C370.897 290.345 370.256 288.804 370.256 286.974C370.256 285.143 370.897 283.602 372.18 282.382C373.462 281.162 375.064 280.552 377.019 280.552C378.91 280.552 380.481 281.162 381.731 282.382C382.981 283.602 383.59 285.143 383.59 286.974C383.59 288.804 382.981 290.345 381.731 291.597C380.481 292.849 378.91 293.492 377.019 293.492ZM135 294.647V282.607C140.705 282.607 166.571 284.887 166.571 278.401C166.571 276.86 165.737 275.736 164.071 274.997C162.404 274.227 159.744 273.456 156.058 272.653C152.019 271.754 148.622 270.823 145.897 269.828C143.205 268.832 140.865 267.227 138.91 265.012C136.987 262.828 135.994 259.842 135.994 256.085C135.994 252.81 136.891 249.856 138.686 247.224C140.481 244.559 143.173 242.472 146.731 240.93C154.615 237.527 171.699 238.522 179.615 238.522V250.563H176.314C174.135 250.563 156.506 249.632 153.141 251.815C151.763 252.714 151.058 253.902 151.058 255.347C151.058 256.76 151.891 257.851 153.526 258.558C155.16 259.264 157.788 260.035 161.41 260.805C165.513 261.672 168.91 262.603 171.603 263.599C174.295 264.594 176.603 266.2 178.59 268.383C180.545 270.534 181.538 273.52 181.538 277.245C181.538 280.488 180.641 283.41 178.846 286.01C177.051 288.643 174.359 290.73 170.801 292.304C162.821 295.771 143.237 294.647 135 294.647ZM345.609 226L335.577 239.646L343.077 239.678C347.981 239.678 352.212 240.481 355.801 242.086C359.391 243.724 362.147 246.036 364.103 249.054C366.058 252.04 367.019 255.572 367.019 259.649C367.019 263.695 366.058 267.227 364.103 270.181C362.147 273.167 359.391 275.479 355.801 277.084C352.212 278.722 347.981 279.524 343.077 279.524H333.718V293.62H318.462V263.888L329.712 247.609H310.641L298.141 255.315C297.788 254.737 297.372 254.223 296.827 253.774C295.256 252.393 292.885 251.687 289.776 251.687H281.314V265.75L266.058 275.158V239.678H290.673C295.545 239.678 299.776 240.481 303.365 242.086C306.378 243.435 308.782 245.265 310.641 247.577L345.609 226ZM342.179 267.484C345.288 267.484 347.66 266.81 349.263 265.461C350.833 264.08 351.635 262.154 351.635 259.649C351.635 257.113 350.833 255.154 349.263 253.774C347.66 252.393 345.288 251.687 342.179 251.687H333.718V267.484H342.179ZM243.494 239.678H258.75V279.685L243.494 289.093V239.678ZM236.25 239.678V293.588L236.186 293.62H221.026V272.589H200.256V293.62H185.032V239.678H200.256V259.938H221.026V239.678H236.25Z" fill="white"/>
</svg>
