<svg width="17" height="16" viewBox="0 0 17 16" fill="none" xmlns="http://www.w3.org/2000/svg">
<g clip-path="url(#clip0)">
<path d="M11.5833 0.222229H5.75C3.06569 0.222229 0.888885 2.39903 0.888885 5.08334V10.9167C0.888885 13.601 3.06569 15.7778 5.75 15.7778H11.5833C14.2676 15.7778 16.4444 13.601 16.4444 10.9167V5.08334C16.4444 2.39903 14.2676 0.222229 11.5833 0.222229ZM14.9861 10.9167C14.9861 12.7931 13.4597 14.3195 11.5833 14.3195H5.75C3.87361 14.3195 2.34722 12.7931 2.34722 10.9167V5.08334C2.34722 3.20695 3.87361 1.68056 5.75 1.68056H11.5833C13.4597 1.68056 14.9861 3.20695 14.9861 5.08334V10.9167Z" fill="#2C2C31"/>
<path d="M8.66629 4.11118C6.51865 4.11118 4.7774 5.85243 4.7774 8.00006C4.7774 10.1477 6.51865 11.889 8.66629 11.889C10.8139 11.889 12.5552 10.1477 12.5552 8.00006C12.5552 5.85243 10.8139 4.11118 8.66629 4.11118ZM8.66629 10.4306C7.32657 10.4306 6.23574 9.33979 6.23574 8.00006C6.23574 6.65937 7.32657 5.56951 8.66629 5.56951C10.006 5.56951 11.0968 6.65937 11.0968 8.00006C11.0968 9.33979 10.006 10.4306 8.66629 10.4306Z" fill="#2C2C31"/>
<path d="M12.8469 4.33782C13.1331 4.33782 13.3651 4.10582 13.3651 3.81963C13.3651 3.53344 13.1331 3.30144 12.8469 3.30144C12.5607 3.30144 12.3287 3.53344 12.3287 3.81963C12.3287 4.10582 12.5607 4.33782 12.8469 4.33782Z" fill="#2C2C31"/>
</g>
<defs>
<clipPath id="clip0">
<rect width="15.5556" height="15.5556" fill="white" transform="translate(0.888885 0.222229)"/>
</clipPath>
</defs>
</svg>
