<svg width="17" height="16" viewBox="0 0 17 16" fill="none" xmlns="http://www.w3.org/2000/svg">
<g clip-path="url(#clip0)">
<path d="M8.55555 0.222229C4.26066 0.222229 0.777771 3.70512 0.777771 8.00001C0.777771 12.2949 4.26066 15.7778 8.55555 15.7778C12.8504 15.7778 16.3333 12.2949 16.3333 8.00001C16.3333 3.70512 12.8504 0.222229 8.55555 0.222229ZM12.1068 6.28651C12.1102 6.36306 12.1119 6.43997 12.1119 6.51723C12.1119 8.87622 10.3163 11.5965 7.03254 11.5966H7.03265H7.03254C6.02435 11.5966 5.08619 11.3011 4.29614 10.7947C4.43583 10.8112 4.57801 10.8194 4.72196 10.8194C5.55842 10.8194 6.32817 10.5341 6.93925 10.0552C6.15775 10.0407 5.49884 9.52456 5.27145 8.81522C5.38028 8.8361 5.49219 8.8475 5.60696 8.8475C5.7699 8.8475 5.92775 8.82554 6.07776 8.7846C5.26089 8.62106 4.64553 7.89913 4.64553 7.03467C4.64553 7.0266 4.64553 7.01936 4.64577 7.01188C4.88634 7.14563 5.16143 7.2261 5.45434 7.23512C4.97499 6.91528 4.6599 6.36852 4.6599 5.74913C4.6599 5.42205 4.74831 5.11562 4.90165 4.8518C5.78201 5.93202 7.09769 6.64243 8.58142 6.71708C8.5508 6.5863 8.53502 6.45005 8.53502 6.31001C8.53502 5.3245 9.33456 4.52495 10.3204 4.52495C10.834 4.52495 11.2978 4.74202 11.6235 5.08904C12.0302 5.00881 12.4122 4.86022 12.7572 4.65574C12.6236 5.07242 12.3407 5.42205 11.9721 5.64315C12.3332 5.59995 12.6774 5.50418 12.9972 5.362C12.7583 5.72006 12.4554 6.03456 12.1068 6.28651Z" fill="#2C2C31"/>
</g>
<defs>
<clipPath id="clip0">
<rect width="15.5556" height="15.5556" fill="white" transform="translate(0.777771 0.222229)"/>
</clipPath>
</defs>
</svg>
