<svg width="21" height="20" viewBox="0 0 21 20" fill="none" xmlns="http://www.w3.org/2000/svg">
<g clip-path="url(#clip0)">
<path d="M20.2547 5.19897C20.0241 4.34219 19.3486 3.66684 18.492 3.43612C16.9269 3.00781 10.6666 3.00781 10.6666 3.00781C10.6666 3.00781 4.40636 3.00781 2.84127 3.4198C2.00112 3.65036 1.30914 4.34234 1.07858 5.19897C0.666748 6.7639 0.666748 10.0094 0.666748 10.0094C0.666748 10.0094 0.666748 13.2713 1.07858 14.8199C1.30929 15.6765 1.98464 16.352 2.84142 16.5827C4.42284 17.0111 10.6667 17.0111 10.6667 17.0111C10.6667 17.0111 16.9269 17.0111 18.492 16.5991C19.3488 16.3685 20.0241 15.693 20.2548 14.8364C20.6667 13.2713 20.6667 10.0259 20.6667 10.0259C20.6667 10.0259 20.6831 6.7639 20.2547 5.19897Z" fill="#2C2C31"/>
<path d="M8.67346 13.0079L13.8793 10.0095L8.67346 7.01117V13.0079Z" fill="#F8F9FA"/>
</g>
<defs>
<clipPath id="clip0">
<rect width="20" height="20" fill="white" transform="translate(0.666656)"/>
</clipPath>
</defs>
</svg>
