<svg width="321" height="45" viewBox="0 0 321 45" fill="none" xmlns="http://www.w3.org/2000/svg">
<g clip-path="url(#clip0)">
<path fill-rule="evenodd" clip-rule="evenodd" d="M34.3754 12.2038C31.7488 13.9337 28.6016 14.9289 25.2177 14.9289C21.8339 14.9289 18.6867 13.9337 16.0601 12.2038C11.99 9.52607 9.12678 5.09479 8.58252 0H2.64307V9.33649C6.76046 17.6303 15.3265 23.3412 25.2177 23.3412C35.1089 23.3412 43.675 17.6303 47.7924 9.33649V0H41.8766C41.3087 5.09479 38.4691 9.52607 34.3754 12.2038Z" fill="#007BFF"/>
<path fill-rule="evenodd" clip-rule="evenodd" d="M41.8056 45.0002V27.749C39.1553 29.2419 36.2921 30.4031 33.2632 31.1376V45.0002H41.8056Z" fill="#007BFF"/>
<path fill-rule="evenodd" clip-rule="evenodd" d="M32.4584 0H17.9766C18.8048 3.24645 21.739 5.63981 25.2175 5.63981C28.7196 5.63981 31.6302 3.24645 32.4584 0Z" fill="#007BFF"/>
<path fill-rule="evenodd" clip-rule="evenodd" d="M6.09755 0H0.0161133C0.300071 3.5545 1.29392 6.89573 2.87936 9.88152H6.09755V0Z" fill="#007BFF"/>
<path fill-rule="evenodd" clip-rule="evenodd" d="M45.7573 9.88152H47.5557C49.1412 6.89573 50.1587 3.5545 50.419 0H45.7573V9.88152Z" fill="#007BFF"/>
<path fill-rule="evenodd" clip-rule="evenodd" d="M7.51758 44.9998V27.1562C10.1442 28.7676 13.0311 30.0235 16.06 30.8766V44.9998H7.51758Z" fill="#007BFF"/>
<path d="M93.6282 32.6777V37.7725H70.1543V33.7203L84.8965 15.9241H70.4619V10.853H93.0603V14.8815L78.3654 32.6777H93.6282ZM119.587 27.4881C119.587 27.5829 119.539 28.1042 119.468 29.1232H103.851C104.111 30.4028 104.797 31.398 105.838 32.1563C106.88 32.8909 108.181 33.2701 109.743 33.2701C110.831 33.2701 111.778 33.1042 112.606 32.7962C113.434 32.4644 114.215 31.9668 114.925 31.2559L118.12 34.7156C116.179 36.9431 113.34 38.0805 109.601 38.0805C107.258 38.0805 105.199 37.6066 103.425 36.7061C101.626 35.8056 100.254 34.526 99.2837 32.9146C98.2898 31.3033 97.8166 29.4786 97.8166 27.417C97.8166 25.4028 98.2898 23.5781 99.26 21.9431C100.207 20.308 101.532 19.0521 103.212 18.1516C104.892 17.2274 106.761 16.7772 108.82 16.7772C110.855 16.7772 112.677 17.2037 114.31 18.0805C115.966 18.9573 117.244 20.2132 118.167 21.8246C119.113 23.4597 119.587 25.3554 119.587 27.4881ZM108.867 21.3033C107.518 21.3033 106.383 21.7061 105.46 22.4644C104.537 23.2227 103.969 24.289 103.756 25.6161H113.931C113.718 24.3127 113.174 23.2701 112.251 22.4881C111.328 21.7061 110.192 21.3033 108.867 21.3033ZM131.702 19.8104C132.412 18.8151 133.382 18.0568 134.589 17.5355C135.82 17.0379 137.216 16.7772 138.801 16.7772V22.3222C138.139 22.2511 137.689 22.2274 137.452 22.2274C135.749 22.2274 134.4 22.7251 133.43 23.6729C132.459 24.6445 131.963 26.0663 131.963 28.0094V37.7725H125.976V17.0853H131.702V19.8104ZM154.419 38.0805C152.242 38.0805 150.278 37.6066 148.55 36.7061C146.823 35.8056 145.474 34.526 144.504 32.9146C143.534 31.3033 143.061 29.4786 143.061 27.417C143.061 25.3791 143.534 23.5307 144.504 21.9194C145.474 20.308 146.823 19.0521 148.55 18.1516C150.278 17.2274 152.242 16.7772 154.419 16.7772C156.596 16.7772 158.536 17.2274 160.24 18.1516C161.967 19.0521 163.293 20.308 164.263 21.9194C165.257 23.5307 165.73 25.3791 165.73 27.417C165.73 29.4786 165.257 31.3033 164.263 32.9146C163.293 34.526 161.967 35.8056 160.24 36.7061C158.536 37.6066 156.596 38.0805 154.419 38.0805ZM154.419 33.1516C155.957 33.1516 157.211 32.6303 158.181 31.5876C159.175 30.545 159.672 29.1706 159.672 27.417C159.672 25.6871 159.175 24.289 158.181 23.2464C157.211 22.2037 155.957 21.7061 154.419 21.7061C152.881 21.7061 151.603 22.2037 150.609 23.2464C149.615 24.289 149.118 25.6871 149.118 27.417C149.118 29.1706 149.615 30.545 150.609 31.5876C151.603 32.6303 152.881 33.1516 154.419 33.1516ZM175.597 15.9241H166.984V10.853H190.411V15.9241H181.797V37.7725H175.597V15.9241ZM203.449 38.0805C201.272 38.0805 199.308 37.6066 197.581 36.7061C195.877 35.8056 194.504 34.526 193.534 32.9146C192.564 31.3033 192.091 29.4786 192.091 27.417C192.091 25.3791 192.564 23.5307 193.534 21.9194C194.504 20.308 195.877 19.0521 197.581 18.1516C199.308 17.2274 201.272 16.7772 203.449 16.7772C205.626 16.7772 207.566 17.2274 209.27 18.1516C210.998 19.0521 212.346 20.308 213.317 21.9194C214.287 23.5307 214.76 25.3791 214.76 27.417C214.76 29.4786 214.287 31.3033 213.317 32.9146C212.346 34.526 210.998 35.8056 209.27 36.7061C207.566 37.6066 205.626 38.0805 203.449 38.0805ZM203.449 33.1516C204.987 33.1516 206.241 32.6303 207.235 31.5876C208.205 30.545 208.702 29.1706 208.702 27.417C208.702 25.6871 208.205 24.289 207.235 23.2464C206.241 22.2037 204.987 21.7061 203.449 21.7061C201.911 21.7061 200.633 22.2037 199.639 23.2464C198.645 24.289 198.148 25.6871 198.148 27.417C198.148 29.1706 198.645 30.545 199.639 31.5876C200.633 32.6303 201.911 33.1516 203.449 33.1516ZM246.232 10.853V37.7725H240.009V26.7298H227.798V37.7725H221.599V10.853H227.798V21.4691H240.009V10.853H246.232ZM274.817 27.4881C274.817 27.5829 274.77 28.1042 274.699 29.1232H259.081C259.365 30.4028 260.028 31.398 261.069 32.1563C262.134 32.8909 263.435 33.2701 264.997 33.2701C266.062 33.2701 267.008 33.1042 267.86 32.7962C268.688 32.4644 269.446 31.9668 270.179 31.2559L273.35 34.7156C271.41 36.9431 268.57 38.0805 264.831 38.0805C262.512 38.0805 260.454 37.6066 258.655 36.7061C256.857 35.8056 255.484 34.526 254.514 32.9146C253.544 31.3033 253.047 29.4786 253.047 27.417C253.047 25.4028 253.544 23.5781 254.49 21.9431C255.461 20.308 256.762 19.0521 258.442 18.1516C260.122 17.2274 261.992 16.7772 264.074 16.7772C266.085 16.7772 267.931 17.2037 269.564 18.0805C271.197 18.9573 272.474 20.2132 273.421 21.8246C274.344 23.4597 274.817 25.3554 274.817 27.4881ZM264.098 21.3033C262.749 21.3033 261.613 21.7061 260.69 22.4644C259.767 23.2227 259.199 24.289 259.01 25.6161H269.185C268.972 24.3127 268.404 23.2701 267.482 22.4881C266.559 21.7061 265.447 21.3033 264.098 21.3033ZM286.933 19.8104C287.643 18.8151 288.613 18.0568 289.843 17.5355C291.05 17.0379 292.446 16.7772 294.032 16.7772V22.3222C293.369 22.2511 292.919 22.2274 292.706 22.2274C290.979 22.2274 289.63 22.7251 288.66 23.6729C287.69 24.6445 287.217 26.0663 287.217 28.0094V37.7725H281.23V17.0853H286.933V19.8104ZM309.649 38.0805C307.472 38.0805 305.532 37.6066 303.805 36.7061C302.077 35.8056 300.728 34.526 299.758 32.9146C298.788 31.3033 298.291 29.4786 298.291 27.417C298.291 25.3791 298.788 23.5307 299.758 21.9194C300.728 20.308 302.077 19.0521 303.805 18.1516C305.532 17.2274 307.472 16.7772 309.649 16.7772C311.826 16.7772 313.767 17.2274 315.494 18.1516C317.198 19.0521 318.547 20.308 319.517 21.9194C320.487 23.5307 320.984 25.3791 320.984 27.417C320.984 29.4786 320.487 31.3033 319.517 32.9146C318.547 34.526 317.198 35.8056 315.494 36.7061C313.767 37.6066 311.826 38.0805 309.649 38.0805ZM309.649 33.1516C311.187 33.1516 312.442 32.6303 313.435 31.5876C314.406 30.545 314.903 29.1706 314.903 27.417C314.903 25.6871 314.406 24.289 313.435 23.2464C312.442 22.2037 311.187 21.7061 309.649 21.7061C308.111 21.7061 306.857 22.2037 305.863 23.2464C304.846 24.289 304.349 25.6871 304.349 27.417C304.349 29.1706 304.846 30.545 305.863 31.5876C306.857 32.6303 308.111 33.1516 309.649 33.1516Z" fill="#1B2A4D"/>
</g>
<defs>
<clipPath id="clip0">
<rect width="321" height="45" fill="white"/>
</clipPath>
</defs>
</svg>
