<svg width="199" height="100" viewBox="0 0 199 100" fill="none" xmlns="http://www.w3.org/2000/svg">
<g clip-path="url(#clip0)">
<path fill-rule="evenodd" clip-rule="evenodd" d="M111.737 16.3405C108.241 18.6286 104.031 19.9871 99.5002 19.9871C94.9693 19.9871 90.7596 18.6286 87.2634 16.3405C81.7693 12.7654 77.9876 6.83083 77.2384 0.00244141H69.2827V12.4794C74.8125 23.5979 86.2644 31.2486 99.5002 31.2486C112.736 31.2486 124.188 23.5979 129.718 12.4794V0.00244141H121.762C121.013 6.83083 117.195 12.7654 111.737 16.3405Z" fill="#007BFF"/>
<path fill-rule="evenodd" clip-rule="evenodd" d="M121.69 60.2424V37.1475C118.158 39.1495 114.305 40.6868 110.274 41.6878V60.2424H121.69Z" fill="#007BFF"/>
<path fill-rule="evenodd" clip-rule="evenodd" d="M109.168 0.00244141H89.7959C90.9018 4.32828 94.8262 7.54584 99.4997 7.54584C104.173 7.54584 108.098 4.32828 109.168 0.00244141Z" fill="#007BFF"/>
<path fill-rule="evenodd" clip-rule="evenodd" d="M73.8846 0.00244141H65.7861C66.1429 4.75729 67.4986 9.22613 69.6035 13.2302H73.8846V0.00244141Z" fill="#007BFF"/>
<path fill-rule="evenodd" clip-rule="evenodd" d="M126.97 13.2302H129.396C131.501 9.22613 132.857 4.75729 133.213 0.00244141H126.97V13.2302Z" fill="#007BFF"/>
<path fill-rule="evenodd" clip-rule="evenodd" d="M75.811 60.2423V36.3608C79.3429 38.5416 83.1603 40.2219 87.263 41.3659V60.2423H75.811Z" fill="#007BFF"/>
<path d="M18.6228 95.7429V99.747H0V96.5652L11.7017 82.4079H0.249731V78.4038H18.1947V81.5856L6.52869 95.7429H18.6228ZM39.2078 91.5958C39.2078 91.6673 39.1721 92.0963 39.1364 92.8828H26.7212C26.9353 93.9196 27.4704 94.7061 28.3266 95.3139C29.1472 95.8859 30.1818 96.1719 31.4304 96.1719C32.2867 96.1719 33.0359 96.0647 33.678 95.8144C34.3559 95.5641 34.9624 95.1351 35.5332 94.5989L38.0662 97.3517C36.4964 99.1035 34.2488 99.9972 31.2877 99.9972C29.4326 99.9972 27.8272 99.6397 26.4001 98.9247C24.9731 98.2097 23.8672 97.2087 23.118 95.9217C22.3331 94.6346 21.9407 93.1689 21.9407 91.5601C21.9407 89.9513 22.3331 88.4855 23.0823 87.1985C23.8672 85.9115 24.9018 84.9104 26.2218 84.1954C27.5418 83.4447 29.0402 83.0872 30.6813 83.0872C32.2867 83.0872 33.7494 83.4447 35.0337 84.1239C36.3537 84.8389 37.3526 85.8042 38.1018 87.0912C38.851 88.414 39.2078 89.9155 39.2078 91.5958ZM30.7169 86.698C29.6467 86.698 28.7548 86.984 28.0056 87.6275C27.292 88.2353 26.8283 89.0575 26.6499 90.13H34.7483C34.5699 89.0933 34.1418 88.2353 33.3926 87.6275C32.6791 87.0197 31.7872 86.698 30.7169 86.698ZM48.8403 85.5182C49.4111 84.6959 50.1603 84.1239 51.1235 83.6949C52.0868 83.3017 53.1927 83.0872 54.4771 83.0872V87.4845C53.9419 87.4487 53.5852 87.413 53.4068 87.413C52.0511 87.413 50.9808 87.8062 50.196 88.557C49.4111 89.3435 49.0543 90.4875 49.0543 91.9891V99.747H44.3094V83.3374H48.8403V85.5182ZM66.8566 99.9972C65.1085 99.9972 63.5744 99.6397 62.2187 98.9247C60.8274 98.2097 59.7571 97.2087 59.0079 95.9217C58.223 94.6346 57.8306 93.1689 57.8306 91.5601C57.8306 89.9155 58.223 88.4498 59.0079 87.1985C59.7571 85.9115 60.8274 84.9104 62.2187 84.1954C63.5744 83.4447 65.1085 83.0872 66.8566 83.0872C68.569 83.0872 70.1031 83.4447 71.4945 84.1954C72.8501 84.9104 73.9204 85.9115 74.6696 87.1985C75.4545 88.4498 75.8469 89.9155 75.8469 91.5601C75.8469 93.1689 75.4545 94.6346 74.6696 95.9217C73.9204 97.2087 72.8501 98.2097 71.4945 98.9247C70.1031 99.6397 68.569 99.9972 66.8566 99.9972ZM66.8566 96.1004C68.0696 96.1004 69.0685 95.6714 69.8534 94.8491C70.6382 94.0269 71.0307 92.9186 71.0307 91.5601C71.0307 90.1658 70.6382 89.0575 69.8534 88.2353C69.0685 87.413 68.0696 86.984 66.8566 86.984C65.6436 86.984 64.609 87.413 63.8241 88.2353C63.0393 89.0575 62.6468 90.1658 62.6468 91.5601C62.6468 92.9186 63.0393 94.0269 63.8241 94.8491C64.609 95.6714 65.6436 96.1004 66.8566 96.1004ZM83.6599 82.4079H76.8458V78.4038H95.3973V82.4079H88.5832V99.747H83.6599V82.4079ZM105.743 99.9972C104.031 99.9972 102.461 99.6397 101.105 98.9247C99.7497 98.2097 98.6795 97.2087 97.8946 95.9217C97.1097 94.6346 96.753 93.1689 96.753 91.5601C96.753 89.9155 97.1097 88.4498 97.8946 87.1985C98.6795 85.9115 99.7497 84.9104 101.105 84.1954C102.461 83.4447 104.031 83.0872 105.743 83.0872C107.491 83.0872 109.025 83.4447 110.381 84.1954C111.737 84.9104 112.807 85.9115 113.592 87.1985C114.341 88.4498 114.734 89.9155 114.734 91.5601C114.734 93.1689 114.341 94.6346 113.592 95.9217C112.807 97.2087 111.737 98.2097 110.381 98.9247C109.025 99.6397 107.491 99.9972 105.743 99.9972ZM105.743 96.1004C106.956 96.1004 107.955 95.6714 108.74 94.8491C109.525 94.0269 109.917 92.9186 109.917 91.5601C109.917 90.1658 109.525 89.0575 108.74 88.2353C107.955 87.413 106.956 86.984 105.743 86.984C104.53 86.984 103.531 87.413 102.747 88.2353C101.962 89.0575 101.534 90.1658 101.534 91.5601C101.534 92.9186 101.962 94.0269 102.747 94.8491C103.531 95.6714 104.53 96.1004 105.743 96.1004ZM139.707 78.4038V99.747H134.748V90.9881H125.08V99.747H120.156V78.4038H125.08V86.8052H134.748V78.4038H139.707ZM162.361 91.5958C162.361 91.6673 162.361 92.0963 162.29 92.8828H149.874C150.124 93.9196 150.659 94.7061 151.48 95.3139C152.3 95.8859 153.335 96.1719 154.584 96.1719C155.44 96.1719 156.189 96.0647 156.831 95.8144C157.509 95.5641 158.115 95.1351 158.686 94.5989L161.219 97.3517C159.685 99.1035 157.438 99.9972 154.441 99.9972C152.621 99.9972 150.98 99.6397 149.553 98.9247C148.126 98.2097 147.056 97.2087 146.271 95.9217C145.486 94.6346 145.094 93.1689 145.094 91.5601C145.094 89.9513 145.486 88.4855 146.235 87.1985C147.02 85.9115 148.055 84.9104 149.375 84.1954C150.731 83.4447 152.193 83.0872 153.834 83.0872C155.44 83.0872 156.902 83.4447 158.187 84.1239C159.507 84.8389 160.506 85.8042 161.255 87.0912C162.004 88.414 162.361 89.9155 162.361 91.5958ZM153.87 86.698C152.8 86.698 151.908 86.984 151.159 87.6275C150.445 88.2353 149.981 89.0575 149.839 90.13H157.901C157.723 89.0933 157.295 88.2353 156.546 87.6275C155.832 87.0197 154.94 86.698 153.87 86.698ZM171.993 85.5182C172.564 84.6959 173.313 84.1239 174.277 83.6949C175.24 83.3017 176.382 83.0872 177.63 83.0872V87.4845C177.095 87.4487 176.738 87.413 176.56 87.413C175.204 87.413 174.134 87.8062 173.349 88.557C172.6 89.3435 172.207 90.4875 172.207 91.9891V99.747H167.463V83.3374H171.993V85.5182ZM190.01 99.9972C188.297 99.9972 186.728 99.6397 185.372 98.9247C183.98 98.2097 182.91 97.2087 182.161 95.9217C181.376 94.6346 180.984 93.1689 180.984 91.5601C180.984 89.9155 181.376 88.4498 182.161 87.1985C182.91 85.9115 183.98 84.9104 185.372 84.1954C186.728 83.4447 188.297 83.0872 190.01 83.0872C191.722 83.0872 193.292 83.4447 194.648 84.1954C196.003 84.9104 197.074 85.9115 197.823 87.1985C198.608 88.4498 199 89.9155 199 91.5601C199 93.1689 198.608 94.6346 197.823 95.9217C197.074 97.2087 196.003 98.2097 194.648 98.9247C193.292 99.6397 191.722 99.9972 190.01 99.9972ZM190.01 96.1004C191.223 96.1004 192.222 95.6714 193.006 94.8491C193.791 94.0269 194.184 92.9186 194.184 91.5601C194.184 90.1658 193.791 89.0575 193.006 88.2353C192.222 87.413 191.223 86.984 190.01 86.984C188.797 86.984 187.798 87.413 187.013 88.2353C186.192 89.0575 185.8 90.1658 185.8 91.5601C185.8 92.9186 186.192 94.0269 187.013 94.8491C187.798 95.6714 188.797 96.1004 190.01 96.1004Z" fill="#1B2A4D"/>
</g>
<defs>
<clipPath id="clip0">
<rect width="199" height="100" fill="white"/>
</clipPath>
</defs>
</svg>
