<svg width="77" height="69" viewBox="0 0 77 69" fill="none" xmlns="http://www.w3.org/2000/svg">
<g clip-path="url(#clip0)">
<path fill-rule="evenodd" clip-rule="evenodd" d="M24.4858 18.7186C28.5464 21.3074 33.3002 22.9004 38.4502 22.9004C43.6992 22.9004 48.4531 21.3074 52.5136 18.7186C58.753 14.6364 63.0117 7.8658 63.903 0H67.6664H73.0145H76.976C76.5799 5.47619 74.9953 10.5541 72.6183 15.1342H72.5193C66.0818 27.381 53.3059 35.7446 38.4502 35.7446C23.6935 35.7446 10.9176 27.381 4.48015 15.1342H4.38111C2.0042 10.5541 0.41959 5.47619 0.0234375 0H3.98496H7.15418H13.0965C13.9878 7.8658 18.2464 14.6364 24.4858 18.7186ZM65.4876 69V41.619C61.5261 44.1082 57.0694 46 52.5136 47.2944V69H65.4876ZM27.457 0H49.5425C48.255 4.97835 43.7983 8.66234 38.4502 8.66234C33.2012 8.66234 28.6454 4.97835 27.457 0ZM13.1955 69V42.5152C17.2561 44.8052 21.6137 46.5974 26.2685 47.6926V69H13.1955Z" fill="#007BFF"/>
</g>
<defs>
<clipPath id="clip0">
<rect width="77" height="69" fill="white"/>
</clipPath>
</defs>
</svg>
