<svg width="378" height="67" viewBox="0 0 378 67" fill="none" xmlns="http://www.w3.org/2000/svg">
<path fill-rule="evenodd" clip-rule="evenodd" d="M84.1381 26.1355H104.451V46.4481H125.371V66.7689H84.1381V26.1355Z" fill="#191F1D"/>
<path fill-rule="evenodd" clip-rule="evenodd" d="M0.012207 26.1355H20.3249V46.4481H42.4599V26.1355H62.7725V66.7689H0.012207V26.1355Z" fill="#191F1D"/>
<path d="M42.6056 2.59935H20.171V22.912H42.6056V2.59935Z" fill="#191F1D"/>
<path d="M124.763 2.00001H104.451V22.3127H124.763V2.00001Z" fill="#191F1D"/>
<path d="M155.324 26.5018C151.792 26.5018 149.037 25.5245 147.059 23.5701C145.104 21.6157 144.127 18.8253 144.127 15.199V1.35317H149.849V14.9871C149.849 19.414 151.686 21.6275 155.359 21.6275C157.149 21.6275 158.514 21.0976 159.456 20.038C160.398 18.9548 160.869 17.2712 160.869 14.9871V1.35317H166.52V15.199C166.52 18.8253 165.531 21.6157 163.553 23.5701C161.599 25.5245 158.856 26.5018 155.324 26.5018Z" fill="#191F1D"/>
<path d="M194.851 1.35317V26.0779H190.153L177.826 11.0665V26.0779H172.175V1.35317H176.908L189.2 16.3646V1.35317H194.851Z" fill="#191F1D"/>
<path d="M200.701 1.35317H206.423V26.0779H200.701V1.35317Z" fill="#191F1D"/>
<path d="M232.317 21.4155V26.0779H210.701V22.3692L224.264 6.01555H210.984V1.35317H231.788V5.06188L218.26 21.4155H232.317Z" fill="#191F1D"/>
<path d="M235.987 1.35317H241.709V26.0779H235.987V1.35317Z" fill="#191F1D"/>
<path d="M256.584 16.3646L253.264 19.8261V26.0779H247.577V1.35317H253.264V12.9032L264.213 1.35317H270.571L260.328 12.3733L271.171 26.0779H264.496L256.584 16.3646Z" fill="#191F1D"/>
<path d="M288.847 6.01555H280.935V1.35317H302.481V6.01555H294.569V26.0779H288.847V6.01555Z" fill="#191F1D"/>
<path d="M324.704 21.4862V26.0779H305.56V1.35317H324.245V5.94491H311.247V11.3137H322.726V15.7642H311.247V21.4862H324.704Z" fill="#191F1D"/>
<path d="M341.02 26.5018C338.501 26.5018 336.217 25.9602 334.168 24.877C332.143 23.7703 330.542 22.2515 329.365 20.3206C328.211 18.3661 327.634 16.1645 327.634 13.7155C327.634 11.2666 328.211 9.07671 329.365 7.14582C330.542 5.19139 332.143 3.67259 334.168 2.58941C336.217 1.48268 338.513 0.929321 341.056 0.929321C343.199 0.929321 345.129 1.30608 346.848 2.05959C348.591 2.81311 350.051 3.89629 351.228 5.30913L347.555 8.69995C345.883 6.76907 343.811 5.80363 341.338 5.80363C339.808 5.80363 338.442 6.14506 337.241 6.82794C336.04 7.48726 335.098 8.41738 334.415 9.6183C333.756 10.8192 333.426 12.185 333.426 13.7155C333.426 15.2461 333.756 16.6119 334.415 17.8128C335.098 19.0137 336.04 19.9556 337.241 20.6385C338.442 21.2978 339.808 21.6275 341.338 21.6275C343.811 21.6275 345.883 20.6502 347.555 18.6958L351.228 22.0866C350.051 23.523 348.591 24.618 346.848 25.3715C345.106 26.125 343.163 26.5018 341.02 26.5018Z" fill="#191F1D"/>
<path d="M377.768 1.35317V26.0779H372.046V15.9408H360.814V26.0779H355.092V1.35317H360.814V11.1018H372.046V1.35317H377.768Z" fill="#191F1D"/>
<path d="M156.171 65.1995C153.652 65.1995 151.368 64.6579 149.319 63.5747C147.294 62.468 145.693 60.9492 144.515 59.0183C143.362 57.0639 142.785 54.8622 142.785 52.4133C142.785 49.9644 143.362 47.7744 144.515 45.8436C145.693 43.8891 147.294 42.3703 149.319 41.2871C151.368 40.1804 153.664 39.6271 156.207 39.6271C158.349 39.6271 160.28 40.0038 161.999 40.7573C163.742 41.5108 165.202 42.594 166.379 44.0069L162.706 47.3977C161.034 45.4668 158.962 44.5014 156.489 44.5014C154.959 44.5014 153.593 44.8428 152.392 45.5257C151.191 46.185 150.249 47.1151 149.566 48.316C148.907 49.517 148.577 50.8827 148.577 52.4133C148.577 53.9439 148.907 55.3096 149.566 56.5105C150.249 57.7114 151.191 58.6533 152.392 59.3362C153.593 59.9955 154.959 60.3252 156.489 60.3252C158.962 60.3252 161.034 59.348 162.706 57.3935L166.379 60.7844C165.202 62.2208 163.742 63.3157 161.999 64.0692C160.257 64.8227 158.314 65.1995 156.171 65.1995Z" fill="#191F1D"/>
<path d="M181.7 65.1995C179.133 65.1995 176.814 64.6461 174.741 63.5394C172.693 62.4327 171.08 60.9139 169.902 58.983C168.749 57.0286 168.172 54.8387 168.172 52.4133C168.172 49.9879 168.749 47.8098 169.902 45.8789C171.08 43.9245 172.693 42.3939 174.741 41.2871C176.814 40.1804 179.133 39.6271 181.7 39.6271C184.266 39.6271 186.574 40.1804 188.623 41.2871C190.671 42.3939 192.284 43.9245 193.462 45.8789C194.639 47.8098 195.228 49.9879 195.228 52.4133C195.228 54.8387 194.639 57.0286 193.462 58.983C192.284 60.9139 190.671 62.4327 188.623 63.5394C186.574 64.6461 184.266 65.1995 181.7 65.1995ZM181.7 60.3252C183.16 60.3252 184.478 59.9955 185.656 59.3362C186.833 58.6533 187.751 57.7114 188.411 56.5105C189.094 55.3096 189.435 53.9439 189.435 52.4133C189.435 50.8827 189.094 49.517 188.411 48.316C187.751 47.1151 186.833 46.185 185.656 45.5257C184.478 44.8428 183.16 44.5014 181.7 44.5014C180.24 44.5014 178.921 44.8428 177.744 45.5257C176.566 46.185 175.636 47.1151 174.953 48.316C174.294 49.517 173.964 50.8827 173.964 52.4133C173.964 53.9439 174.294 55.3096 174.953 56.5105C175.636 57.7114 176.566 58.6533 177.744 59.3362C178.921 59.9955 180.24 60.3252 181.7 60.3252Z" fill="#191F1D"/>
<path d="M222.027 64.7756L221.992 49.9408L214.716 62.1619H212.138L204.897 50.2587V64.7756H199.528V40.0509H204.261L213.515 55.4156L222.628 40.0509H227.326L227.396 64.7756H222.027Z" fill="#191F1D"/>
<path d="M255.762 64.7756L255.726 49.9408L248.45 62.1619H245.872L238.631 50.2587V64.7756H233.262V40.0509H237.995L247.249 55.4156L256.362 40.0509H261.06L261.131 64.7756H255.762Z" fill="#191F1D"/>
<path d="M277.981 65.1995C274.449 65.1995 271.694 64.2223 269.716 62.2678C267.762 60.3134 266.785 57.5231 266.785 53.8968V40.0509H272.507V53.6848C272.507 58.1117 274.343 60.3252 278.017 60.3252C279.806 60.3252 281.172 59.7954 282.114 58.7357C283.056 57.6526 283.527 55.9689 283.527 53.6848V40.0509H289.178V53.8968C289.178 57.5231 288.189 60.3134 286.211 62.2678C284.257 64.2223 281.514 65.1995 277.981 65.1995Z" fill="#191F1D"/>
<path d="M317.509 40.0509V64.7756H312.811L300.484 49.7642V64.7756H294.833V40.0509H299.566L311.857 55.0624V40.0509H317.509Z" fill="#191F1D"/>
<path d="M323.359 40.0509H329.081V64.7756H323.359V40.0509Z" fill="#191F1D"/>
<path d="M340.07 44.7133H332.158V40.0509H353.704V44.7133H345.792V64.7756H340.07V44.7133Z" fill="#191F1D"/>
<path d="M368.202 56.016V64.7756H362.48V55.9454L352.908 40.0509H358.983L365.588 51.0358L372.193 40.0509H377.809L368.202 56.016Z" fill="#191F1D"/>
<rect x="20" y="2" width="23" height="21" fill="#EF3F70"/>
</svg>
