<svg width="237" height="172" viewBox="0 0 237 172" fill="none" xmlns="http://www.w3.org/2000/svg">
<path d="M12.9334 132.977C9.38973 132.977 6.62563 131.997 4.64116 130.036C2.68031 128.075 1.69988 125.276 1.69988 121.637V107.746H7.44069V121.425C7.44069 125.866 9.28341 128.087 12.9689 128.087C14.7643 128.087 16.1346 127.555 17.0796 126.492C18.0246 125.406 18.4971 123.716 18.4971 121.425V107.746H24.167V121.637C24.167 125.276 23.1747 128.075 21.1903 130.036C19.2294 131.997 16.4771 132.977 12.9334 132.977Z" fill="#191F1D"/>
<path d="M52.5906 107.746V132.552H47.8774L35.5099 117.491V132.552H29.84V107.746H34.5885L46.9206 122.807V107.746H52.5906Z" fill="#191F1D"/>
<path d="M58.4596 107.746H64.2004V132.552H58.4596V107.746Z" fill="#191F1D"/>
<path d="M90.1802 127.874V132.552H68.4927V128.831L82.1005 112.424H68.7762V107.746H89.6486V111.467L76.0762 127.874H90.1802Z" fill="#191F1D"/>
<path d="M93.862 107.746H99.6028V132.552H93.862V107.746Z" fill="#191F1D"/>
<path d="M114.526 122.807L111.195 126.28V132.552H105.49V107.746H111.195V119.334L122.181 107.746H128.559L118.283 118.803L129.162 132.552H122.464L114.526 122.807Z" fill="#191F1D"/>
<path d="M146.896 112.424H138.958V107.746H160.575V112.424H152.637V132.552H146.896V112.424Z" fill="#191F1D"/>
<path d="M182.87 127.945V132.552H163.663V107.746H182.41V112.353H169.369V117.739H180.886V122.204H169.369V127.945H182.87Z" fill="#191F1D"/>
<path d="M199.24 132.977C196.712 132.977 194.421 132.434 192.365 131.347C190.334 130.237 188.727 128.713 187.546 126.776C186.388 124.815 185.81 122.606 185.81 120.149C185.81 117.692 186.388 115.495 187.546 113.558C188.727 111.597 190.334 110.073 192.365 108.986C194.421 107.876 196.724 107.321 199.276 107.321C201.426 107.321 203.363 107.699 205.087 108.455C206.836 109.211 208.3 110.298 209.482 111.715L205.796 115.117C204.119 113.18 202.04 112.211 199.559 112.211C198.024 112.211 196.653 112.554 195.449 113.239C194.244 113.9 193.299 114.834 192.614 116.038C191.952 117.243 191.621 118.614 191.621 120.149C191.621 121.685 191.952 123.055 192.614 124.26C193.299 125.465 194.244 126.41 195.449 127.095C196.653 127.756 198.024 128.087 199.559 128.087C202.04 128.087 204.119 127.107 205.796 125.146L209.482 128.548C208.3 129.989 206.836 131.087 205.087 131.843C203.339 132.599 201.39 132.977 199.24 132.977Z" fill="#191F1D"/>
<path d="M236.109 107.746V132.552H230.368V122.382H219.099V132.552H213.358V107.746H219.099V117.527H230.368V107.746H236.109Z" fill="#191F1D"/>
<path d="M13.7839 171.805C11.2561 171.805 8.96448 171.262 6.90913 170.175C4.87741 169.065 3.27092 167.541 2.08969 165.604C0.932077 163.643 0.353271 161.434 0.353271 158.977C0.353271 156.52 0.932077 154.323 2.08969 152.386C3.27092 150.425 4.87741 148.901 6.90913 147.814C8.96448 146.704 11.2679 146.149 13.8194 146.149C15.9692 146.149 17.9064 146.527 19.631 147.283C21.3793 148.039 22.844 149.126 24.0252 150.543L20.3398 153.945C18.6624 152.008 16.5835 151.039 14.1029 151.039C12.5673 151.039 11.197 151.382 9.99216 152.067C8.7873 152.728 7.84231 153.661 7.15719 154.866C6.4957 156.071 6.16495 157.441 6.16495 158.977C6.16495 160.513 6.4957 161.883 7.15719 163.088C7.84231 164.293 8.7873 165.238 9.99216 165.923C11.197 166.584 12.5673 166.915 14.1029 166.915C16.5835 166.915 18.6624 165.935 20.3398 163.974L24.0252 167.376C22.844 168.817 21.3793 169.915 19.631 170.671C17.8828 171.427 15.9338 171.805 13.7839 171.805Z" fill="#191F1D"/>
<path d="M39.3961 171.805C36.821 171.805 34.4939 171.25 32.415 170.14C30.3596 169.029 28.7413 167.506 27.5601 165.568C26.4025 163.608 25.8237 161.41 25.8237 158.977C25.8237 156.544 26.4025 154.358 27.5601 152.421C28.7413 150.46 30.3596 148.925 32.415 147.814C34.4939 146.704 36.821 146.149 39.3961 146.149C41.9712 146.149 44.2864 146.704 46.3417 147.814C48.3971 148.925 50.0154 150.46 51.1966 152.421C52.3779 154.358 52.9685 156.544 52.9685 158.977C52.9685 161.41 52.3779 163.608 51.1966 165.568C50.0154 167.506 48.3971 169.029 46.3417 170.14C44.2864 171.25 41.9712 171.805 39.3961 171.805ZM39.3961 166.915C40.8608 166.915 42.1838 166.584 43.365 165.923C44.5463 165.238 45.4676 164.293 46.1291 163.088C46.8142 161.883 47.1568 160.513 47.1568 158.977C47.1568 157.441 46.8142 156.071 46.1291 154.866C45.4676 153.661 44.5463 152.728 43.365 152.067C42.1838 151.382 40.8608 151.039 39.3961 151.039C37.9313 151.039 36.6084 151.382 35.4271 152.067C34.2459 152.728 33.3127 153.661 32.6276 154.866C31.9661 156.071 31.6354 157.441 31.6354 158.977C31.6354 160.513 31.9661 161.883 32.6276 163.088C33.3127 164.293 34.2459 165.238 35.4271 165.923C36.6084 166.584 37.9313 166.915 39.3961 166.915Z" fill="#191F1D"/>
<path d="M79.8564 171.38L79.8209 156.496L72.5209 168.758H69.934L62.6694 156.815V171.38H57.2829V146.574H62.0315L71.316 161.989L80.4588 146.574H85.1719L85.2428 171.38H79.8564Z" fill="#191F1D"/>
<path d="M113.702 171.38L113.666 156.496L106.366 168.758H103.779L96.5145 156.815V171.38H91.1281V146.574H95.8767L105.161 161.989L114.304 146.574H119.017L119.088 171.38H113.702Z" fill="#191F1D"/>
<path d="M135.994 171.805C132.451 171.805 129.686 170.825 127.702 168.864C125.741 166.903 124.761 164.104 124.761 160.465V146.574H130.501V160.253C130.501 164.694 132.344 166.915 136.03 166.915C137.825 166.915 139.195 166.383 140.14 165.32C141.085 164.234 141.558 162.544 141.558 160.253V146.574H147.228V160.465C147.228 164.104 146.236 166.903 144.251 168.864C142.29 170.825 139.538 171.805 135.994 171.805Z" fill="#191F1D"/>
<path d="M175.651 146.574V171.38H170.938L158.571 156.319V171.38H152.901V146.574H157.649L169.981 161.635V146.574H175.651Z" fill="#191F1D"/>
<path d="M181.52 146.574H187.261V171.38H181.52V146.574Z" fill="#191F1D"/>
<path d="M198.286 151.252H190.349V146.574H211.965V151.252H204.027V171.38H198.286V151.252Z" fill="#191F1D"/>
<path d="M226.511 162.592V171.38H220.77V162.521L211.167 146.574H217.262L223.889 157.595L230.515 146.574H236.15L226.511 162.592Z" fill="#191F1D"/>
<path fill-rule="evenodd" clip-rule="evenodd" d="M149.638 32.215H176.756V59.3333H204.67V86.4516H149.638V32.215Z" fill="#191F1D"/>
<path fill-rule="evenodd" clip-rule="evenodd" d="M37.3368 32.215H64.4551V59.3333H93.9927V32.215H121.111V86.4516H37.3368V32.215Z" fill="#191F1D"/>
<path d="M94.2077 0.806451H64.2508V27.9247H94.2077V0.806451Z" fill="#191F1D"/>
<path d="M203.874 0H176.756V27.1183H203.874V0Z" fill="#191F1D"/>
<rect x="64" width="30" height="28" fill="#EF3F70"/>
</svg>
