<svg width="365" height="257" viewBox="0 0 365 257" fill="none" xmlns="http://www.w3.org/2000/svg">
<circle cx="128.5" cy="128.5" r="128.5" fill="#2C2C31"/>
<circle cx="236.5" cy="128.5" r="128.5" fill="#B1B8C8"/>
<path fill-rule="evenodd" clip-rule="evenodd" d="M182.5 245.274C226.49 224.873 257 180.318 257 128.637C257 76.9559 226.49 32.4008 182.5 12C138.51 32.4008 108 76.9559 108 128.637C108 180.318 138.51 224.873 182.5 245.274Z" fill="#00B5D0"/>
<path d="M274.589 130.737C274.489 132.114 273.979 133.198 273.06 133.989C272.146 134.78 270.938 135.176 269.438 135.176C267.798 135.176 266.506 134.625 265.562 133.523C264.625 132.416 264.156 130.898 264.156 128.971V128.188C264.156 126.958 264.373 125.874 264.807 124.937C265.24 123.999 265.858 123.281 266.661 122.783C267.47 122.279 268.407 122.027 269.474 122.027C270.95 122.027 272.14 122.423 273.042 123.214C273.944 124.005 274.466 125.115 274.606 126.545H271.97C271.905 125.719 271.674 125.121 271.275 124.752C270.883 124.377 270.282 124.189 269.474 124.189C268.595 124.189 267.936 124.506 267.496 125.139C267.062 125.766 266.84 126.741 266.828 128.065V129.032C266.828 130.415 267.036 131.426 267.452 132.064C267.874 132.703 268.536 133.022 269.438 133.022C270.253 133.022 270.859 132.838 271.258 132.469C271.662 132.094 271.894 131.517 271.952 130.737H274.589Z" fill="white"/>
<path d="M275.758 130.157C275.758 129.214 275.939 128.373 276.303 127.635C276.666 126.896 277.188 126.325 277.867 125.921C278.553 125.517 279.347 125.314 280.249 125.314C281.532 125.314 282.578 125.707 283.387 126.492C284.201 127.277 284.655 128.344 284.749 129.691L284.767 130.342C284.767 131.801 284.359 132.973 283.545 133.857C282.73 134.736 281.638 135.176 280.267 135.176C278.896 135.176 277.8 134.736 276.979 133.857C276.165 132.979 275.758 131.783 275.758 130.271V130.157ZM278.298 130.342C278.298 131.244 278.468 131.936 278.808 132.416C279.147 132.891 279.634 133.128 280.267 133.128C280.882 133.128 281.362 132.894 281.708 132.425C282.054 131.95 282.227 131.194 282.227 130.157C282.227 129.272 282.054 128.587 281.708 128.101C281.362 127.614 280.876 127.371 280.249 127.371C279.628 127.371 279.147 127.614 278.808 128.101C278.468 128.581 278.298 129.328 278.298 130.342Z" fill="white"/>
<path d="M288.713 125.49L288.792 126.554C289.466 125.728 290.377 125.314 291.525 125.314C292.75 125.314 293.591 125.798 294.048 126.765C294.716 125.798 295.668 125.314 296.904 125.314C297.936 125.314 298.703 125.616 299.207 126.22C299.711 126.817 299.963 127.72 299.963 128.927V135H297.414V128.936C297.414 128.396 297.309 128.004 297.098 127.758C296.887 127.506 296.515 127.38 295.981 127.38C295.22 127.38 294.692 127.743 294.399 128.47L294.408 135H291.868V128.944C291.868 128.394 291.76 127.995 291.543 127.749C291.326 127.503 290.957 127.38 290.436 127.38C289.715 127.38 289.193 127.679 288.871 128.276V135H286.331V125.49H288.713Z" fill="white"/>
<path d="M304.305 125.49L304.384 126.554C305.058 125.728 305.969 125.314 307.117 125.314C308.342 125.314 309.183 125.798 309.64 126.765C310.308 125.798 311.26 125.314 312.496 125.314C313.527 125.314 314.295 125.616 314.799 126.22C315.303 126.817 315.555 127.72 315.555 128.927V135H313.006V128.936C313.006 128.396 312.9 128.004 312.689 127.758C312.479 127.506 312.106 127.38 311.573 127.38C310.812 127.38 310.284 127.743 309.991 128.47L310 135H307.46V128.944C307.46 128.394 307.352 127.995 307.135 127.749C306.918 127.503 306.549 127.38 306.027 127.38C305.307 127.38 304.785 127.679 304.463 128.276V135H301.923V125.49H304.305Z" fill="white"/>
<path d="M323.21 134.033C322.583 134.795 321.716 135.176 320.608 135.176C319.589 135.176 318.81 134.883 318.271 134.297C317.737 133.711 317.465 132.853 317.453 131.722V125.49H319.993V131.634C319.993 132.624 320.444 133.119 321.347 133.119C322.208 133.119 322.8 132.82 323.122 132.223V125.49H325.671V135H323.28L323.21 134.033Z" fill="white"/>
<path d="M329.925 125.49L330.004 126.589C330.684 125.739 331.595 125.314 332.737 125.314C333.745 125.314 334.495 125.61 334.987 126.202C335.479 126.794 335.731 127.679 335.743 128.856V135H333.203V128.918C333.203 128.379 333.086 127.989 332.852 127.749C332.617 127.503 332.228 127.38 331.683 127.38C330.968 127.38 330.432 127.685 330.074 128.294V135H327.534V125.49H329.925Z" fill="white"/>
<path d="M340.357 135H337.809V125.49H340.357V135ZM337.659 123.029C337.659 122.648 337.785 122.335 338.037 122.089C338.295 121.843 338.644 121.72 339.083 121.72C339.517 121.72 339.862 121.843 340.12 122.089C340.378 122.335 340.507 122.648 340.507 123.029C340.507 123.416 340.375 123.732 340.111 123.979C339.854 124.225 339.511 124.348 339.083 124.348C338.655 124.348 338.31 124.225 338.046 123.979C337.788 123.732 337.659 123.416 337.659 123.029Z" fill="white"/>
<path d="M345.499 123.152V125.49H347.125V127.354H345.499V132.1C345.499 132.451 345.566 132.703 345.701 132.855C345.836 133.008 346.094 133.084 346.475 133.084C346.756 133.084 347.005 133.063 347.222 133.022V134.947C346.724 135.1 346.211 135.176 345.684 135.176C343.902 135.176 342.994 134.276 342.959 132.478V127.354H341.57V125.49H342.959V123.152H345.499Z" fill="white"/>
<path d="M352.091 131.405L353.849 125.49H356.573L352.75 136.477L352.539 136.978C351.971 138.22 351.033 138.841 349.727 138.841C349.357 138.841 348.982 138.785 348.602 138.674V136.749L348.988 136.758C349.469 136.758 349.826 136.685 350.061 136.538C350.301 136.392 350.488 136.148 350.623 135.809L350.922 135.026L347.591 125.49H350.324L352.091 131.405Z" fill="white"/>
<path d="M146.773 135V122.203H151.256C152.809 122.203 153.986 122.502 154.789 123.1C155.592 123.691 155.993 124.562 155.993 125.71C155.993 126.337 155.832 126.891 155.51 127.371C155.188 127.846 154.739 128.194 154.165 128.417C154.821 128.581 155.337 128.912 155.712 129.41C156.093 129.908 156.283 130.518 156.283 131.238C156.283 132.469 155.891 133.4 155.105 134.033C154.32 134.666 153.201 134.988 151.748 135H146.773ZM149.41 129.428V132.882H151.669C152.29 132.882 152.773 132.735 153.119 132.442C153.471 132.144 153.646 131.733 153.646 131.212C153.646 130.04 153.04 129.445 151.827 129.428H149.41ZM149.41 127.564H151.361C152.691 127.541 153.356 127.011 153.356 125.974C153.356 125.394 153.187 124.978 152.847 124.726C152.513 124.468 151.982 124.339 151.256 124.339H149.41V127.564Z" fill="white"/>
<path d="M160.783 135H158.234V125.49H160.783V135ZM158.085 123.029C158.085 122.648 158.211 122.335 158.463 122.089C158.721 121.843 159.069 121.72 159.509 121.72C159.942 121.72 160.288 121.843 160.546 122.089C160.804 122.335 160.933 122.648 160.933 123.029C160.933 123.416 160.801 123.732 160.537 123.979C160.279 124.225 159.937 124.348 159.509 124.348C159.081 124.348 158.735 124.225 158.472 123.979C158.214 123.732 158.085 123.416 158.085 123.029Z" fill="white"/>
<path d="M165.222 125.49L165.301 126.589C165.98 125.739 166.892 125.314 168.034 125.314C169.042 125.314 169.792 125.61 170.284 126.202C170.776 126.794 171.028 127.679 171.04 128.856V135H168.5V128.918C168.5 128.379 168.383 127.989 168.148 127.749C167.914 127.503 167.524 127.38 166.979 127.38C166.265 127.38 165.729 127.685 165.371 128.294V135H162.831V125.49H165.222Z" fill="white"/>
<path d="M178.484 135C178.367 134.771 178.282 134.487 178.229 134.147C177.614 134.833 176.814 135.176 175.83 135.176C174.898 135.176 174.125 134.906 173.51 134.367C172.9 133.828 172.596 133.148 172.596 132.328C172.596 131.32 172.968 130.547 173.712 130.008C174.462 129.469 175.543 129.196 176.955 129.19H178.124V128.646C178.124 128.206 178.01 127.854 177.781 127.591C177.559 127.327 177.204 127.195 176.718 127.195C176.29 127.195 175.953 127.298 175.707 127.503C175.467 127.708 175.347 127.989 175.347 128.347H172.807C172.807 127.796 172.977 127.286 173.316 126.817C173.656 126.349 174.137 125.982 174.758 125.719C175.379 125.449 176.076 125.314 176.85 125.314C178.021 125.314 178.95 125.61 179.636 126.202C180.327 126.788 180.673 127.614 180.673 128.681V132.803C180.679 133.705 180.805 134.388 181.051 134.851V135H178.484ZM176.384 133.233C176.759 133.233 177.104 133.151 177.421 132.987C177.737 132.817 177.972 132.592 178.124 132.311V130.676H177.175C175.903 130.676 175.227 131.115 175.145 131.994L175.136 132.144C175.136 132.46 175.247 132.721 175.47 132.926C175.692 133.131 175.997 133.233 176.384 133.233Z" fill="white"/>
<path d="M186.043 131.897L187.81 125.49H190.464L187.256 135H184.83L181.622 125.49H184.276L186.043 131.897Z" fill="white"/>
<path d="M194.27 135H191.721V125.49H194.27V135ZM191.571 123.029C191.571 122.648 191.697 122.335 191.949 122.089C192.207 121.843 192.556 121.72 192.995 121.72C193.429 121.72 193.774 121.843 194.032 122.089C194.29 122.335 194.419 122.648 194.419 123.029C194.419 123.416 194.287 123.732 194.023 123.979C193.766 124.225 193.423 124.348 192.995 124.348C192.567 124.348 192.222 124.225 191.958 123.979C191.7 123.732 191.571 123.416 191.571 123.029Z" fill="white"/>
<path d="M200.747 135.176C199.353 135.176 198.216 134.748 197.337 133.893C196.464 133.037 196.027 131.897 196.027 130.474V130.228C196.027 129.272 196.212 128.42 196.581 127.67C196.95 126.914 197.472 126.334 198.146 125.93C198.825 125.52 199.599 125.314 200.466 125.314C201.767 125.314 202.789 125.725 203.533 126.545C204.283 127.365 204.658 128.528 204.658 130.034V131.071H198.603C198.685 131.692 198.931 132.19 199.341 132.565C199.757 132.94 200.281 133.128 200.914 133.128C201.893 133.128 202.657 132.773 203.208 132.064L204.456 133.462C204.075 134.001 203.56 134.423 202.909 134.728C202.259 135.026 201.538 135.176 200.747 135.176ZM200.457 127.371C199.953 127.371 199.543 127.541 199.227 127.881C198.916 128.221 198.717 128.707 198.629 129.34H202.162V129.138C202.15 128.575 201.998 128.142 201.705 127.837C201.412 127.526 200.996 127.371 200.457 127.371Z" fill="white"/>
<path d="M214.379 131.546L215.627 125.49H218.079L215.653 135H213.526L211.725 129.015L209.923 135H207.805L205.379 125.49H207.831L209.07 131.537L210.811 125.49H212.647L214.379 131.546Z" fill="white"/>
<path d="M18.8994 135V122.203H23.3818C24.9346 122.203 26.1123 122.502 26.915 123.1C27.7178 123.691 28.1191 124.562 28.1191 125.71C28.1191 126.337 27.958 126.891 27.6357 127.371C27.3135 127.846 26.8652 128.194 26.291 128.417C26.9473 128.581 27.4629 128.912 27.8379 129.41C28.2188 129.908 28.4092 130.518 28.4092 131.238C28.4092 132.469 28.0166 133.4 27.2314 134.033C26.4463 134.666 25.3271 134.988 23.874 135H18.8994ZM21.5361 129.428V132.882H23.7949C24.416 132.882 24.8994 132.735 25.2451 132.442C25.5967 132.144 25.7725 131.733 25.7725 131.212C25.7725 130.04 25.166 129.445 23.9531 129.428H21.5361ZM21.5361 127.564H23.4873C24.8174 127.541 25.4824 127.011 25.4824 125.974C25.4824 125.394 25.3125 124.978 24.9727 124.726C24.6387 124.468 24.1084 124.339 23.3818 124.339H21.5361V127.564Z" fill="white"/>
<path d="M35.9238 134.033C35.2969 134.795 34.4297 135.176 33.3223 135.176C32.3027 135.176 31.5234 134.883 30.9844 134.297C30.4512 133.711 30.1787 132.853 30.167 131.722V125.49H32.707V131.634C32.707 132.624 33.1582 133.119 34.0605 133.119C34.9219 133.119 35.5137 132.82 35.8359 132.223V125.49H38.3848V135H35.9941L35.9238 134.033Z" fill="white"/>
<path d="M45.4512 132.372C45.4512 132.062 45.2959 131.818 44.9854 131.643C44.6807 131.461 44.1885 131.3 43.5088 131.159C41.2471 130.685 40.1162 129.724 40.1162 128.276C40.1162 127.433 40.4648 126.729 41.1621 126.167C41.8652 125.599 42.7822 125.314 43.9131 125.314C45.1201 125.314 46.084 125.599 46.8047 126.167C47.5312 126.735 47.8945 127.474 47.8945 128.382H45.3545C45.3545 128.019 45.2373 127.72 45.0029 127.485C44.7686 127.245 44.4023 127.125 43.9043 127.125C43.4766 127.125 43.1455 127.222 42.9111 127.415C42.6768 127.608 42.5596 127.854 42.5596 128.153C42.5596 128.435 42.6914 128.663 42.9551 128.839C43.2246 129.009 43.6758 129.158 44.3086 129.287C44.9414 129.41 45.4746 129.551 45.9082 129.709C47.25 130.201 47.9209 131.054 47.9209 132.267C47.9209 133.134 47.5488 133.837 46.8047 134.376C46.0605 134.909 45.0996 135.176 43.9219 135.176C43.125 135.176 42.416 135.035 41.7949 134.754C41.1797 134.467 40.6963 134.077 40.3447 133.585C39.9932 133.087 39.8174 132.551 39.8174 131.977H42.2256C42.249 132.428 42.416 132.773 42.7266 133.014C43.0371 133.254 43.4531 133.374 43.9746 133.374C44.4609 133.374 44.8271 133.283 45.0732 133.102C45.3252 132.914 45.4512 132.671 45.4512 132.372Z" fill="white"/>
<path d="M52.2451 135H49.6963V125.49H52.2451V135ZM49.5469 123.029C49.5469 122.648 49.6729 122.335 49.9248 122.089C50.1826 121.843 50.5312 121.72 50.9707 121.72C51.4043 121.72 51.75 121.843 52.0078 122.089C52.2656 122.335 52.3945 122.648 52.3945 123.029C52.3945 123.416 52.2627 123.732 51.999 123.979C51.7412 124.225 51.3984 124.348 50.9707 124.348C50.543 124.348 50.1973 124.225 49.9336 123.979C49.6758 123.732 49.5469 123.416 49.5469 123.029Z" fill="white"/>
<path d="M56.6836 125.49L56.7627 126.589C57.4424 125.739 58.3535 125.314 59.4961 125.314C60.5039 125.314 61.2539 125.61 61.7461 126.202C62.2383 126.794 62.4902 127.679 62.502 128.856V135H59.9619V128.918C59.9619 128.379 59.8447 127.989 59.6104 127.749C59.376 127.503 58.9863 127.38 58.4414 127.38C57.7266 127.38 57.1904 127.685 56.833 128.294V135H54.293V125.49H56.6836Z" fill="white"/>
<path d="M68.8125 135.176C67.418 135.176 66.2812 134.748 65.4023 133.893C64.5293 133.037 64.0928 131.897 64.0928 130.474V130.228C64.0928 129.272 64.2773 128.42 64.6465 127.67C65.0156 126.914 65.5371 126.334 66.2109 125.93C66.8906 125.52 67.6641 125.314 68.5312 125.314C69.832 125.314 70.8545 125.725 71.5986 126.545C72.3486 127.365 72.7236 128.528 72.7236 130.034V131.071H66.668C66.75 131.692 66.9961 132.19 67.4062 132.565C67.8223 132.94 68.3467 133.128 68.9795 133.128C69.958 133.128 70.7227 132.773 71.2734 132.064L72.5215 133.462C72.1406 134.001 71.625 134.423 70.9746 134.728C70.3242 135.026 69.6035 135.176 68.8125 135.176ZM68.5225 127.371C68.0186 127.371 67.6084 127.541 67.292 127.881C66.9814 128.221 66.7822 128.707 66.6943 129.34H70.2275V129.138C70.2158 128.575 70.0635 128.142 69.7705 127.837C69.4775 127.526 69.0615 127.371 68.5225 127.371Z" fill="white"/>
<path d="M79.3242 132.372C79.3242 132.062 79.1689 131.818 78.8584 131.643C78.5537 131.461 78.0615 131.3 77.3818 131.159C75.1201 130.685 73.9893 129.724 73.9893 128.276C73.9893 127.433 74.3379 126.729 75.0352 126.167C75.7383 125.599 76.6553 125.314 77.7861 125.314C78.9932 125.314 79.957 125.599 80.6777 126.167C81.4043 126.735 81.7676 127.474 81.7676 128.382H79.2275C79.2275 128.019 79.1104 127.72 78.876 127.485C78.6416 127.245 78.2754 127.125 77.7773 127.125C77.3496 127.125 77.0186 127.222 76.7842 127.415C76.5498 127.608 76.4326 127.854 76.4326 128.153C76.4326 128.435 76.5645 128.663 76.8281 128.839C77.0977 129.009 77.5488 129.158 78.1816 129.287C78.8145 129.41 79.3477 129.551 79.7812 129.709C81.123 130.201 81.7939 131.054 81.7939 132.267C81.7939 133.134 81.4219 133.837 80.6777 134.376C79.9336 134.909 78.9727 135.176 77.7949 135.176C76.998 135.176 76.2891 135.035 75.668 134.754C75.0527 134.467 74.5693 134.077 74.2178 133.585C73.8662 133.087 73.6904 132.551 73.6904 131.977H76.0986C76.1221 132.428 76.2891 132.773 76.5996 133.014C76.9102 133.254 77.3262 133.374 77.8477 133.374C78.334 133.374 78.7002 133.283 78.9463 133.102C79.1982 132.914 79.3242 132.671 79.3242 132.372Z" fill="white"/>
<path d="M88.5879 132.372C88.5879 132.062 88.4326 131.818 88.1221 131.643C87.8174 131.461 87.3252 131.3 86.6455 131.159C84.3838 130.685 83.2529 129.724 83.2529 128.276C83.2529 127.433 83.6016 126.729 84.2988 126.167C85.002 125.599 85.9189 125.314 87.0498 125.314C88.2568 125.314 89.2207 125.599 89.9414 126.167C90.668 126.735 91.0312 127.474 91.0312 128.382H88.4912C88.4912 128.019 88.374 127.72 88.1396 127.485C87.9053 127.245 87.5391 127.125 87.041 127.125C86.6133 127.125 86.2822 127.222 86.0479 127.415C85.8135 127.608 85.6963 127.854 85.6963 128.153C85.6963 128.435 85.8281 128.663 86.0918 128.839C86.3613 129.009 86.8125 129.158 87.4453 129.287C88.0781 129.41 88.6113 129.551 89.0449 129.709C90.3867 130.201 91.0576 131.054 91.0576 132.267C91.0576 133.134 90.6855 133.837 89.9414 134.376C89.1973 134.909 88.2363 135.176 87.0586 135.176C86.2617 135.176 85.5527 135.035 84.9316 134.754C84.3164 134.467 83.833 134.077 83.4814 133.585C83.1299 133.087 82.9541 132.551 82.9541 131.977H85.3623C85.3857 132.428 85.5527 132.773 85.8633 133.014C86.1738 133.254 86.5898 133.374 87.1113 133.374C87.5977 133.374 87.9639 133.283 88.21 133.102C88.4619 132.914 88.5879 132.671 88.5879 132.372Z" fill="white"/>
</svg>
