<?xml version="1.0" encoding="UTF-8"?>
<!DOCTYPE svg PUBLIC "-//W3C//DTD SVG 1.1//EN" "http://www.w3.org/Graphics/SVG/1.1/DTD/svg11.dtd">
<!-- Creator: CorelDRAW X7 -->
<svg xmlns="http://www.w3.org/2000/svg" xml:space="preserve" width="218.722mm" height="169.333mm" version="1.1" style="shape-rendering:geometricPrecision; text-rendering:geometricPrecision; image-rendering:optimizeQuality; fill-rule:evenodd; clip-rule:evenodd"
viewBox="0 0 20150 15600"
 xmlns:xlink="http://www.w3.org/1999/xlink">
 <defs>
  <style type="text/css">
   <![CDATA[
    .fil0 {fill:none}
    .fil10 {fill:black}
    .fil15 {fill:black}
    .fil2 {fill:#010000}
    .fil5 {fill:#1A1A1A}
    .fil1 {fill:#1A1A1A}
    .fil6 {fill:#1C120C}
    .fil8 {fill:#2C2C31}
    .fil12 {fill:#36E7FD}
    .fil7 {fill:#36E7FD}
    .fil3 {fill:#513226}
    .fil4 {fill:#9D6647}
    .fil13 {fill:#B5695A}
    .fil14 {fill:#CCCCCC}
    .fil16 {fill:#E6E6E6}
    .fil11 {fill:#FDFEFE}
    .fil17 {fill:white}
    .fil9 {fill:#36E7FD;fill-opacity:0.101961}
    .fil18 {fill:white;fill-opacity:0.258824}
   ]]>
  </style>
    <clipPath id="id0">
     <path d="M13474 9418l-52 4c-58,3 -218,36 -225,85 49,77 180,72 250,48 10,-3 21,-8 27,-17 5,-7 2,-4 4,-12 12,-48 -17,22 2,-14 30,33 86,42 134,15 44,-26 35,-72 13,-127 -71,-10 -90,-9 -153,18z"/>
    </clipPath>
    <mask id="id1">
  <linearGradient id="id2" gradientUnits="userSpaceOnUse" x1="11475.1" y1="6967.05" x2="11814.4" y2="6766.45">
   <stop offset="0" style="stop-opacity:1; stop-color:white"/>
   <stop offset="1" style="stop-opacity:0; stop-color:white"/>
  </linearGradient>
     <rect style="fill:url(#id2)" x="10723" y="6249" width="1843" height="1235"/>
    </mask>
    <mask id="id3">
  <linearGradient id="id4" gradientUnits="userSpaceOnUse" x1="13630.7" y1="6423.51" x2="13472.8" y2="6403.04">
   <stop offset="0" style="stop-opacity:1; stop-color:white"/>
   <stop offset="1" style="stop-opacity:0; stop-color:white"/>
  </linearGradient>
     <rect style="fill:url(#id4)" x="13175" y="6145" width="754" height="536"/>
    </mask>
 </defs>
 <g id="Layer_x0020_1">
  <metadata id="CorelCorpID_0Corel-Layer"/>
  <rect class="fil0" width="20150" height="15600"/>
  <g id="_1693824303712">
   <path class="fil1" d="M7883 10242c24,-22 24,-44 69,-83 23,-22 51,-44 69,-73 57,-94 -4,-155 -49,-199 -33,6 -106,48 -146,64 -54,22 -102,42 -160,32 -21,-79 74,-111 44,-178 -38,-68 -236,-9 -311,-57 4,-59 65,-71 83,-120 -98,-4 -175,24 -216,-64 -44,-94 31,-301 -120,-228 -5,2 -28,12 -34,13 -93,11 21,-159 -52,-201 -98,-21 -166,49 -238,26 -16,-49 18,-106 44,-124 47,-34 99,-14 119,-47 26,-56 -41,-193 -67,-237 -73,-118 -137,-106 -148,-158 -5,-21 92,-374 3,-529 -85,-8 -120,1 -190,-37 -267,-146 61,-357 3,-455 -37,-63 -125,30 -166,-95 -45,-138 57,-287 122,-381 33,-49 70,-97 107,-145 384,-493 170,-495 177,-734 20,-182 143,-383 336,-369 119,9 184,101 202,-93 26,-284 169,-211 220,-300 68,-120 -136,-364 -14,-397 58,-15 496,68 605,76 469,32 268,-148 814,-552 130,-97 277,-182 438,-254 142,-63 349,-145 510,-177 968,-252 1979,-120 2662,389 167,123 314,253 447,387 67,68 134,140 194,223 83,115 82,133 122,290 42,160 61,169 131,288 100,167 139,246 226,406 24,45 64,44 101,104 46,75 93,208 88,321 33,61 -8,343 -23,436 -23,138 -9,59 0,149l14 -17c-10,40 -33,85 -6,118 73,46 155,-65 177,-108 40,-79 44,-175 73,-235 11,150 -83,389 -177,426 44,-1 57,-15 94,-30 -35,55 -112,123 -167,60l-22 -24c-31,5 -46,14 -62,35l-17 66 110 -20c16,-15 4,-30 37,49 4,9 10,21 11,30 9,48 -8,-26 -3,16 23,36 49,58 78,104 21,34 42,79 64,126 154,342 169,580 149,973 64,-139 75,-707 79,-896 32,113 7,610 -7,772 -8,82 -23,171 -27,249 43,-70 89,-663 94,-726 41,-552 36,-904 -191,-1412 -55,-123 -151,-283 -230,-386 -24,-31 -72,-83 -78,-129 24,19 20,35 64,41 74,12 149,-67 184,-120 -42,21 -66,43 -126,50l27 -26c31,-25 45,-39 70,-79 75,-119 139,-339 128,-485 -19,150 -74,353 -186,450 -102,89 -227,50 -134,-137 -7,22 -20,26 -26,30 -36,-78 -7,-136 11,-267 42,-302 72,-585 -53,-871 -79,-181 -150,-128 -195,-206 -110,-190 -227,-384 -350,-558 -42,-60 -121,-410 -146,-511 -43,-166 -188,-318 -297,-437 -203,-223 -408,-397 -651,-585 -1060,-818 -2780,-900 -4151,-335 -391,161 -714,378 -981,646 -95,95 -219,248 -301,353 -149,192 -585,98 -816,62 -95,-14 -183,-30 -276,-46 -87,-14 -230,-47 -227,71 4,145 200,395 15,499 -96,54 -133,47 -188,142 -46,80 -39,180 -56,275 -40,221 -213,-57 -466,107 -107,70 -221,224 -238,418 -20,238 135,280 36,553 -139,386 -594,691 -588,1054 0,52 12,97 36,129 68,95 214,-14 204,117 -3,41 -28,90 -45,121 -57,102 -222,292 12,431 142,84 240,47 267,61 77,72 59,343 45,460 -8,73 -42,165 -45,218 -4,73 80,97 121,138 74,73 155,217 174,348 17,118 -66,78 -143,115 -44,21 -99,94 -86,168 61,45 196,-43 284,-36 137,10 24,204 69,271 46,24 93,-43 175,-34 82,100 14,205 65,322 51,116 155,81 287,83 -9,77 -113,90 -108,165 93,67 357,-31 418,83 13,98 -90,130 -66,225 130,33 328,-114 409,-129 69,57 129,157 60,269 -60,95 -133,103 -178,224 -66,175 41,409 197,233 36,-40 31,-48 93,-111 85,-86 180,-126 247,5 56,108 48,347 183,418 59,31 110,-4 131,-49 49,-106 -8,-273 30,-375 115,5 254,654 367,366 25,-64 40,-181 99,-200 91,40 100,315 289,127 38,-38 85,-107 120,-156 22,-30 34,-47 57,-77 23,-29 37,-61 90,-55 32,67 9,38 64,79z"/>
   <path class="fil2" d="M9937 4166l-29 24c-10,6 -17,7 -27,12l-383 206c-292,175 -538,343 -741,612 -124,165 -338,387 -500,517 -77,62 -126,89 -248,45 -117,-43 -261,-247 -406,58 -148,308 -203,716 -296,1069 -22,-88 -32,-191 -55,-284 -21,-86 -44,-174 -71,-260 -32,-99 -65,-171 -184,-101 -43,25 -102,80 -133,118 -8,10 -9,12 -17,22l-21 28c-7,239 207,241 -177,734 -37,48 -74,96 -107,145 -65,94 -167,243 -122,381 41,125 129,32 166,95 58,98 -270,309 -3,455 70,38 105,29 190,37 89,155 -8,508 -3,529 11,52 75,40 148,158 26,44 93,181 67,237 -20,33 -72,13 -119,47 -26,18 -60,75 -44,124 72,23 140,-47 238,-26 73,42 -41,212 52,201 6,-1 29,-11 34,-13 151,-73 76,134 120,228 41,88 118,60 216,64 -18,49 -79,61 -83,120 75,48 273,-11 311,57 30,67 -65,99 -44,178 58,10 106,-10 160,-32 40,-16 113,-58 146,-64 45,44 106,105 49,199 -18,29 -46,51 -69,73 -45,39 -45,61 -69,83 -3,73 -43,162 31,220 87,68 128,-67 168,-83 38,-66 132,-131 192,-53 47,63 44,163 75,241 27,68 118,168 173,71 47,-80 3,-202 28,-291 77,15 154,344 233,332 68,-34 53,-171 117,-207 70,35 75,238 217,97 67,-67 137,-209 195,-219 17,23 15,36 40,54 71,-3 101,-111 140,-174 31,52 34,315 32,364 -14,325 -96,682 -285,927 -60,78 -128,134 -190,204 -62,71 -126,139 -186,217 -29,38 -57,69 -86,110 -28,39 -55,81 -88,118 -36,41 -161,167 -183,212l57 -26 -30 67c40,-20 67,-70 109,-84l35 -38c14,-14 22,-21 37,-34 271,-240 570,-550 884,-722 63,-34 129,-63 206,-86 45,-13 72,-32 110,2 30,26 56,45 77,72 -68,34 -99,21 -136,93 -29,55 -30,143 -3,200 41,86 97,56 135,101 18,20 35,47 51,68l44 42c16,19 4,2 16,24 21,16 59,30 86,47 31,20 52,38 78,58 92,24 177,23 270,48 81,22 158,50 235,78 159,55 319,106 480,156 80,25 150,45 226,85 73,38 140,81 202,120 100,66 341,273 358,283 -35,-65 -51,-81 -111,-136 -46,-40 -85,-75 -138,-115 -55,-42 -241,-165 -307,-184l-163 -83c-404,-188 -719,-253 -1120,-384 -58,-18 -143,-49 -142,-111 27,-74 195,1 249,-89 4,-8 14,-27 18,-38 16,-46 -1,-46 -4,-49 -171,252 -547,92 -382,-137 76,-106 233,42 398,43 59,0 107,1 164,-12l-15 -4c-107,-28 -139,-16 -237,-48 -80,-26 -151,-49 -239,-55 -17,-29 -50,-70 -73,-99 -56,-72 -193,-253 -207,-334 46,-21 90,-64 149,-83 110,124 116,123 218,261 21,28 51,72 71,93 -20,-48 -89,-147 -120,-193 -27,-40 -116,-159 -126,-187 74,-85 36,-242 6,-352 -31,-114 -70,-212 -106,-322 -69,-213 -112,-505 -97,-751 161,-1 270,-34 379,-137 29,-28 51,-66 78,-92 145,503 286,842 721,1055 132,64 301,115 465,132 -6,41 21,59 61,118 25,35 35,102 53,153 65,191 172,371 288,525 59,79 122,164 182,230 29,30 129,157 158,175 -32,-74 -110,-144 -140,-217 -1,-83 136,2 -85,-281 -41,-53 -186,-211 -202,-263 -21,-20 -93,-97 -86,-137 45,-18 94,60 180,40 45,-11 106,-96 83,-140 -36,41 -42,83 -108,98 -96,22 -179,-106 -237,-176 -25,-30 -72,-86 -92,-120 19,-56 77,-126 92,-171 -5,-2 -10,10 -26,31l-129 112c-132,36 -689,-438 -781,-543 -117,-132 -250,-482 -314,-682 -17,-52 -62,-220 -81,-252 -2,11 -4,23 -8,33l-17 27c-15,-259 -6,-506 -10,-767 -2,-125 -17,-240 -32,-358 -6,-54 -15,-110 -24,-165 -11,-75 13,-94 24,-157 -2,12 -18,36 -25,56 -7,-9 -14,-7 -20,-54 -11,-83 21,-98 35,-166 -30,14 -12,16 -49,26 -1,-75 9,-70 49,-104 45,-37 204,-186 227,-232 -52,21 -192,140 -254,159 18,-118 167,-253 257,-329 52,-45 283,-260 298,-291 -70,38 -220,180 -286,196 8,-63 261,-333 329,-408l209 -230 -202 165c-44,34 -171,154 -223,165 11,-91 337,-458 397,-544 -14,21 -54,45 -75,66 -33,32 -52,48 -82,76 -43,39 -127,127 -170,149 30,-88 488,-582 528,-649 -38,13 -126,75 -160,97 -41,27 -118,82 -164,95 21,-70 339,-313 380,-369l-418 266c25,-30 213,-186 262,-233 62,-61 195,-204 223,-277 -29,15 -68,63 -96,89 -29,28 -68,66 -112,80 30,-46 356,-327 413,-394 24,-30 108,-122 148,-121 -14,73 -181,313 -235,398 -30,49 -50,88 -76,136 3,-9 137,-190 155,-214 35,-46 132,-187 178,-203 1,39 -58,192 -82,218l-49 108c38,-32 66,-88 94,-131 79,-120 187,-295 348,-328l-42 -35c-16,-10 -30,-20 -45,-32 -80,-62 -164,-149 -250,-207 -97,-66 -292,-157 -419,-188 191,-3 517,62 685,155 63,35 95,84 133,151 196,5 556,73 736,155 57,25 163,80 189,126 43,7 227,190 257,223 83,91 141,150 210,278 62,113 105,221 164,327 43,79 177,241 199,297 -97,-7 -142,11 -219,13l-80 19c6,17 9,23 13,39l41 149c4,11 6,20 11,36 1,1 2,3 3,5l13 51c12,34 -19,-9 9,17 98,-41 247,-142 377,-6 15,15 26,26 37,49 28,56 12,62 23,46 5,-113 -42,-246 -88,-321 -37,-60 -77,-59 -101,-104 -87,-160 -126,-239 -226,-406 -70,-119 -89,-128 -131,-288 -40,-157 -39,-175 -122,-290 -60,-83 -127,-155 -194,-223 -133,-134 -280,-264 -447,-387 -683,-509 -1694,-641 -2662,-389z"/>
   <path class="fil3" d="M11509 10359l48 -53c79,21 224,233 275,324l277 315c41,57 69,78 103,118l285 425c34,44 23,15 30,9l-83 -180c32,23 92,113 111,150 6,-18 -28,-59 -36,-83 -13,-37 73,-267 84,-310 310,91 598,65 917,-23 58,-74 171,-227 153,-376 -29,-256 -558,-72 -443,-307 32,-65 69,-105 119,-140 141,-102 242,-80 428,-72 25,-27 166,-244 174,-268 -38,51 -162,97 -248,112 -194,36 -518,-216 -745,-270 -23,-6 -56,-17 -73,-27l10 -9c35,-27 -15,8 15,-11 287,-184 319,-64 538,-86 139,-14 325,-118 415,-102 60,11 71,51 102,79 -1,-30 -12,-63 -1,-90 28,7 39,48 39,75 20,-13 20,29 12,-35l-35 -106c-3,-22 11,-40 20,-63 17,-49 9,-35 -2,-81 -12,-52 -49,-135 -72,-161 -38,-42 -116,-47 -187,-42 32,31 29,8 73,26l122 95c17,27 55,91 55,120 0,40 -67,115 -87,128 -57,41 -132,-15 -101,-60 -50,18 -61,12 -117,12 -24,-24 -10,-20 -31,-44 -54,21 -33,29 -94,38 -100,16 -77,39 -77,41l6 12c63,-27 82,-29 153,-18 22,55 17,80 -27,106 -48,27 -104,18 -134,-15 -19,36 10,-34 -2,14 -2,8 1,5 -4,12 -6,9 -17,14 -27,17 -70,24 -184,0 -250,-20 7,-49 181,-89 239,-93 -3,-3 0,-20 -48,-16 -2,0 -39,9 -43,9 -145,38 -208,77 -326,153 -32,21 -90,61 -130,63 9,-48 188,-246 207,-262 50,-42 72,-66 118,-119 35,-41 80,-70 118,-106 -65,16 -125,49 -172,83 -282,203 -165,-30 -126,-163 -20,34 -81,98 -108,123 -144,130 -312,185 -500,94 -147,-72 -396,-285 -515,-398 -125,-120 -355,-332 -467,-454 -138,-151 -309,-303 -444,-461 151,-16 177,10 405,-32 120,-23 230,-55 337,-93 123,-45 230,-27 345,-85 78,-40 201,-136 226,-224l-49 30c-12,11 -20,22 -31,31 -48,45 -153,105 -221,126 78,-40 198,-137 232,-206 -187,105 -319,139 -548,168 -192,24 -522,57 -506,-182 35,39 61,145 124,130 32,-20 -13,-92 -22,-121 32,28 64,78 104,57 21,-74 -25,-212 -30,-270 67,-66 107,-123 187,-189 152,-129 368,-197 562,-104 79,38 165,106 195,178 -65,-51 -113,-92 -217,-125 -190,-61 -370,-4 -530,93 -48,30 -162,118 -185,153 18,70 53,272 128,249 28,-73 -33,-236 -37,-321 68,61 79,297 157,316 32,-36 36,-119 43,-178 11,78 23,170 98,170 56,-48 35,-129 38,-214 13,14 6,5 16,26 1,2 9,22 12,28 16,36 69,136 120,113 60,-63 52,-226 55,-329 1,2 3,5 3,6 1,1 2,4 3,6 1,1 2,4 2,6l10 63c11,87 22,187 103,180 36,-85 21,-165 26,-267 22,30 17,72 19,114 7,158 118,49 118,-36 8,60 -5,103 36,132 16,12 38,24 55,32 8,4 18,6 26,14 9,9 2,17 0,18 7,5 2,3 18,10 29,13 -14,-5 19,6 145,49 165,412 165,532 0,120 -9,236 -23,354 -63,519 500,656 635,410 32,-58 58,-236 169,-123 20,20 65,80 68,103 -56,-242 127,-223 144,-274 29,-88 -346,-254 -408,-269 34,147 -180,206 -214,158 -47,-68 87,-239 105,-300 68,-238 -150,-586 -260,-768 -36,-59 106,-180 -64,-483 -53,-95 -115,-170 -180,-238 -58,-59 -57,-35 -77,-139 -10,-58 -27,-117 -33,-172 -46,7 -124,128 -176,145 -60,19 -119,35 -180,53 -64,18 -132,25 -199,37 -36,7 -163,-59 -187,-33l247 46 32 86c24,133 0,87 14,124l3 13c-114,34 -286,46 -416,76 -299,70 -597,333 -787,565 -18,23 -34,51 -54,67 14,-72 76,-196 109,-257 104,-188 240,-371 400,-507l97 -76c1,-3 3,-3 4,-5 2,-30 74,-121 102,-165 64,-102 309,-487 106,-537 -85,-20 -307,-3 -274,-262 15,-123 105,-295 156,-371 24,-26 83,-179 82,-218 -46,16 -143,157 -178,203 -18,24 -152,205 -155,214 26,-48 46,-87 76,-136 54,-85 221,-325 235,-398 -40,-1 -124,91 -148,121 -57,67 -383,348 -413,394 44,-14 83,-52 112,-80 28,-26 67,-74 96,-89 -28,73 -161,216 -223,277 -49,47 -237,203 -262,233l418 -266c-41,56 -359,299 -380,369 46,-13 123,-68 164,-95 34,-22 122,-84 160,-97 -40,67 -498,561 -528,649 43,-22 127,-110 170,-149 30,-28 49,-44 82,-76 21,-21 61,-45 75,-66 -60,86 -386,453 -397,544 52,-11 179,-131 223,-165l202 -165 -209 230c-68,75 -321,345 -329,408 66,-16 216,-158 286,-196 -15,31 -246,246 -298,291 -90,76 -239,211 -257,329 62,-19 202,-138 254,-159 -23,46 -182,195 -227,232 -40,34 -50,29 -49,104 37,-10 19,-12 49,-26 -14,68 -46,83 -35,166 6,47 13,45 20,54 7,-20 23,-44 25,-56 -11,63 -35,82 -24,157 9,55 18,111 24,165 15,118 30,233 32,358 4,261 -5,508 10,767l17 -27c4,-10 6,-22 8,-33 19,32 64,200 81,252 64,200 197,550 314,682 92,105 649,579 781,543l129 -112c16,-21 21,-33 26,-31z"/>
   <path class="fil1" d="M13996 10131c-19,34 -51,305 -62,369 -22,124 -43,225 -100,323 23,16 8,-4 15,26l-4 208c27,0 23,-4 39,7 -134,182 -291,527 -249,783 23,139 92,191 102,242 -110,68 -236,123 -317,209 -79,85 -163,225 -171,348l132 303c121,294 257,700 286,1018 264,107 598,10 852,-100 80,-35 164,-79 241,-104 -5,143 -160,175 -70,394 149,-23 183,-170 248,-292 77,-147 218,-286 230,-306 18,76 12,73 -10,140l-111 387c-81,341 -149,940 394,801 129,-33 298,-99 389,-198 22,-24 16,-35 26,-55 268,-78 363,-209 525,-425 138,-185 263,-369 275,-683 51,-25 130,-35 188,-62 194,-93 258,-170 388,-344 36,-47 73,-94 110,-142l346 -387c216,-255 630,-479 752,-721 61,-122 68,-305 -65,-353 -182,-65 -632,123 -772,191 -467,226 -1128,582 -1535,916 -45,37 -156,148 -203,166 -32,13 -58,28 -91,37 -22,-65 -93,-102 -166,-53 -79,52 -115,109 -134,115 -29,-155 -40,-329 -62,-487 -113,-795 -292,-1342 -729,-2001 -77,-117 -142,-217 -265,-278 -97,-48 -370,-95 -412,39 -13,-18 -15,25 -10,-31z"/>
   <path class="fil1" d="M8082 10379c18,-5 4,-9 13,0 4,491 -138,1026 -372,1329 -93,120 -293,303 -406,445 -17,22 -33,38 -50,60 -16,20 -31,38 -46,56 -35,44 -60,77 -94,119 -58,73 -134,202 -191,228 -4,-22 -10,-51 -4,-77 9,-40 102,-103 47,-150 -72,-62 -162,33 -238,37 16,-56 67,-118 97,-158 95,-128 194,-353 252,-505 78,-203 258,-544 177,-799 -155,4 -380,240 -463,298 -30,-32 -72,-171 -141,-232 -132,34 -262,191 -325,274 -42,55 -83,114 -121,178 -85,142 -293,184 -416,475 -30,70 -60,136 -94,207 -25,52 -32,39 -93,56 -61,18 -156,41 -196,94 -26,35 -39,52 -70,80 -93,83 -103,14 -113,190 -12,208 49,302 214,380 194,92 293,13 485,-28 109,-22 383,-141 437,-143 -20,21 -38,44 -59,69 -22,27 -42,43 -65,69 -115,128 -114,66 -116,151 174,-4 258,-246 419,-268 1,42 -9,54 -19,88 19,28 49,41 63,72 -45,48 -114,66 -175,101 -67,39 -106,73 -153,122 -23,25 -44,47 -67,75l-169 233c-93,141 -148,265 -253,370 -44,43 -175,217 -208,265 -146,211 -279,438 -406,691 -67,132 -286,616 -332,769l1871 0c11,-52 48,-138 55,-175l-8 0c-1,26 0,5 -8,35 -5,25 -7,27 -7,61 25,-19 24,-13 36,-63 5,-23 12,-46 17,-62 41,-141 77,-276 127,-411l142 -388c8,-19 16,-30 25,-55 11,-33 10,-28 22,-55 17,-36 29,-74 44,-107 17,-40 32,-70 49,-110 48,-122 149,-310 206,-433l16 -31c10,-17 16,-30 25,-47l375 -626c7,-13 13,-33 21,-50 24,-52 147,-238 178,-279 57,-78 212,-193 270,-257 37,-41 57,-39 133,-95l86 -70c22,-45 147,-171 183,-212 33,-37 60,-79 88,-118 29,-41 57,-72 86,-110 60,-78 124,-146 186,-217 62,-70 130,-126 190,-204 189,-245 271,-602 285,-927 2,-49 -1,-312 -32,-364 -39,63 -69,171 -140,174 -25,-18 -23,-31 -40,-54 -58,10 -128,152 -195,219 -142,141 -147,-62 -217,-97 -64,36 -49,173 -117,207 -79,12 -156,-317 -233,-332 -25,89 19,211 -28,291 -55,97 -146,-3 -173,-71 -31,-78 -28,-178 -75,-241 -60,-78 -154,-13 -192,53z"/>
   <path class="fil4" d="M11477 12501c66,19 252,142 307,184 53,40 92,75 138,115 60,55 76,71 111,136 -17,-10 -258,-217 -358,-283 -62,-39 -129,-82 -202,-120 -76,-40 -146,-60 -226,-85 -161,-50 -321,-101 -480,-156 -77,-28 -154,-56 -235,-78 -93,-25 -178,-24 -270,-48 -44,28 -70,85 -111,120 -34,28 -94,62 -153,54 -13,50 2,8 -32,38 -27,23 -11,42 29,82 81,79 325,125 455,178 196,79 150,124 249,175 85,44 232,68 327,96 129,38 174,78 249,178 44,58 186,187 246,233 14,10 19,14 32,23l252 172c23,14 37,23 64,38 24,14 42,24 63,40 24,18 40,30 33,76 -126,46 -233,-44 -338,-59 19,-24 38,-19 40,-56 1,-20 -2,-53 -7,-68 -11,-30 -363,-280 -448,-351 -16,-14 -24,-26 -38,-40l-135 -100c-137,-80 -212,-92 -353,-132 -211,-59 -79,-101 -298,-181 -357,-131 -240,-20 -273,41l-96 -129c-15,-20 -32,-46 -48,-61 -34,-28 -42,-21 -76,-84 -70,-128 -128,-114 -145,-234l-13 13c-1,2 -3,3 -4,5 -52,55 -136,144 -224,133 16,16 89,44 115,58 37,21 71,40 103,63 77,54 120,102 186,157l-24 -45c41,26 129,141 171,184l160 189c1,-1 3,3 5,5 8,-34 56,-100 77,-123 37,19 51,45 87,64 122,60 583,312 621,372 -97,-18 -225,-112 -300,-159l-284 -182c37,56 114,90 155,144 -6,16 -8,19 -14,37 8,16 -19,63 -32,81 -25,34 -36,41 -90,44 18,37 51,76 78,114 225,327 166,284 521,463 87,44 160,99 245,148 199,113 358,133 485,300 64,86 61,123 163,231 32,33 65,62 105,92 37,27 86,45 116,77l-134 -39c13,52 110,275 138,317 159,243 642,584 689,642l1745 0c-13,-34 -39,-68 -58,-100l-182 -292c-323,-508 -658,-999 -1005,-1488l-763 -1107c-163,11 -298,-125 -357,-201 -21,-27 -33,-58 -63,-79l-410 -288c-54,-39 -100,-82 -160,-115 -143,-77 -695,-296 -848,-211 -58,32 -101,105 -70,192 49,138 195,184 308,251 59,34 111,69 168,106 38,25 292,191 321,233z"/>
   <path class="fil4" d="M11470 5257c-51,76 -141,248 -156,371 -33,259 189,242 274,262 203,50 -42,435 -106,537 -28,44 -100,135 -102,165 94,-56 210,-135 351,-132 24,-26 151,27 187,21 67,-12 135,-19 199,-38 61,-18 120,-34 180,-53 52,-16 130,-125 176,-132 6,55 23,114 33,172 20,104 19,80 77,139 65,68 127,143 180,238 170,303 28,424 64,483 110,182 328,530 260,768 -18,61 -152,232 -105,300 34,48 248,-11 214,-158 62,15 437,181 408,269 -17,51 -200,32 -144,274 -3,-23 -48,-83 -68,-103 -111,-113 -137,65 -169,123 -135,246 -698,109 -635,-410 14,-118 23,-234 23,-354 0,-120 -20,-483 -165,-532 -33,-11 10,7 -19,-6 -16,-7 -11,-5 -18,-10 -113,-9 -119,24 -165,84 -34,69 -154,166 -232,206l-270 122c-107,38 -217,70 -337,93 -228,42 -254,16 -405,32 135,158 306,310 444,461 112,122 342,334 467,454 119,113 368,326 515,398 188,91 356,36 500,-94 27,-25 88,-89 108,-123 -39,133 -156,366 126,163 47,-34 107,-67 172,-83 -38,36 -83,65 -118,106 -46,53 -68,77 -118,119 -19,16 -198,214 -207,262 40,-2 98,-42 130,-63 118,-76 181,-115 326,-153 4,0 41,-9 43,-9 48,-4 45,13 48,16l52 -3 -6 -12c0,-2 -23,-25 77,-41 61,-9 40,-17 94,-38 21,24 7,20 31,44 56,0 67,6 117,-12 -31,45 44,101 101,60 52,-36 76,-72 82,-107l20 11c-1,3 -3,7 -4,11 -9,23 -23,41 -20,63l35 106c8,64 8,22 -12,35 33,49 25,127 16,182 -15,89 -29,90 -68,147 -8,24 -149,241 -174,268 -186,-8 -287,-30 -428,72 -50,35 -87,75 -119,140 -115,235 414,51 443,307 18,149 -95,302 -153,376 62,-20 142,-53 187,-83 41,-27 115,-89 127,-145 57,-98 78,-199 100,-323 11,-64 43,-335 62,-369 5,-102 68,-274 94,-380 58,-241 31,-261 56,-418 21,-141 47,-276 55,-425 1,-11 1,-36 1,-69 23,-178 68,-663 -77,-974 -180,-386 -300,-552 -300,-552l-40 -43c4,-1 9,-3 13,-5 38,-17 16,-2 35,-29 18,-27 43,-44 52,-77 -9,-90 -23,-11 0,-149 15,-93 56,-375 23,-436 -11,16 5,10 -23,-46 -11,-23 -22,-34 -37,-49 -130,-136 -279,-35 -377,6 -19,23 -99,35 -127,54l-129 133 -31 -435 197 -49 80 -19c-275,-44 -345,39 -595,71 47,-47 91,-69 108,-169 37,-202 -113,-462 -216,-604 -41,-58 -82,-102 -123,-153l-428 -383c194,-56 491,23 643,100 -26,-46 -132,-101 -189,-126 -180,-82 -540,-150 -736,-155 -38,-67 -70,-116 -133,-151 -168,-93 -494,-158 -685,-155 127,31 322,122 419,188 86,58 170,145 250,207 15,12 29,22 45,32l42 35c-161,33 -269,208 -348,328 -28,43 -56,99 -94,131l49 -108zm1908 3531l-4 -15c4,7 8,14 12,21l-8 -6zm327 -1605c11,-23 20,-47 37,-63 -2,28 -8,56 -8,84 0,4 0,7 0,11l-29 -32z"/>
   <path class="fil3" d="M6784 15600l2029 0c21,-117 55,-236 74,-360 20,-129 37,-254 57,-383 37,-250 75,-503 125,-748 95,-469 337,-909 878,-847 -21,-40 -63,-85 -91,-127 -164,-243 -77,-337 -192,-456 47,27 110,75 147,116 59,33 86,80 133,115 -232,-308 -415,-440 -803,-471 -484,-39 -575,74 -917,338l-216 209c-25,34 -76,84 -82,124 -6,47 -325,537 -388,678 -89,200 -182,373 -266,588 -125,320 -248,603 -370,911 -36,92 -92,221 -118,313z"/>
   <path class="fil4" d="M8813 15600l2559 0c-10,-43 -56,-147 -77,-195l-259 -562c-121,-243 -240,-502 -345,-754 -110,-265 -197,-561 -366,-732 -59,-60 -36,-5 -152,-124 -46,-47 -78,-91 -120,-148 -41,-55 -205,-273 -242,-290 -37,-41 -100,-89 -147,-116 115,119 28,213 192,456 28,42 70,87 91,127 -541,-62 -783,378 -878,847 -50,245 -88,498 -125,748 -20,129 -37,254 -57,383 -19,124 -53,243 -74,360z"/>
   <path class="fil3" d="M10480 11637l15 4c-57,13 -105,12 -164,12 7,63 5,50 -16,94 3,3 20,3 4,49 -4,11 -14,30 -18,38 -54,90 -222,15 -249,89 -1,62 84,93 142,111 401,131 716,196 1120,384l163 83c-29,-42 -283,-208 -321,-233 -57,-37 -109,-72 -168,-106 -113,-67 -259,-113 -308,-251 -31,-87 12,-160 70,-192 153,-85 705,134 848,211 60,33 106,76 160,115l410 288c30,21 42,52 63,79 59,76 194,212 357,201 0,0 14,1 18,1 142,-29 194,-160 181,-270 -64,-44 -196,4 -354,-186 -120,-144 -83,-258 -97,-458 -38,10 -43,35 -107,-34 -69,-72 -173,-222 -230,-306 -52,-75 -251,-359 -322,-395 16,52 161,210 202,263 221,283 84,198 85,281 30,73 108,143 140,217 -29,-18 -129,-145 -158,-175 -30,23 -35,82 -77,110 -98,66 -281,-88 -381,-138 -177,-88 -264,-19 -449,-281 -113,-161 -324,-503 -426,-678l-275 -460c-33,-56 -94,-206 -183,-189 -76,14 -85,209 -83,297 3,110 23,219 48,321 46,184 41,112 45,332 2,65 -18,325 -9,355 19,70 110,188 146,226 31,34 168,169 178,191z"/>
   <path class="fil5" d="M17021 6599c-33,20 -86,15 -149,88 -30,35 -79,86 -93,144 -15,59 -37,135 -29,201 13,94 29,213 75,290 32,54 -2,30 54,63 52,31 46,84 147,93 63,5 150,-16 218,-23 55,-5 127,-49 184,-63 -13,52 -56,89 -26,146 64,22 150,-207 227,-232 -8,48 -51,117 -67,172 -23,77 -18,138 -17,219 0,28 2,81 13,102 12,22 52,31 80,38 52,14 291,-115 328,-144 28,-21 32,-37 62,-56 44,-29 28,-30 59,-59 84,-79 158,-187 171,-312 181,-44 265,-222 397,-341l249 -216c61,-49 205,-261 -47,-207 -55,12 -110,23 -163,42l-282 125c-103,57 -283,163 -381,231 -36,25 -88,75 -135,72 15,-144 267,-147 222,-203 -9,22 -4,23 -55,45 -116,52 -100,35 -159,115 -25,34 8,20 -36,23 -11,-24 -23,-113 -24,-139 0,-23 3,-46 11,-68 15,-37 17,-26 40,-43 -30,-21 -55,50 -59,87 -5,63 15,98 17,152 -13,12 -41,42 -55,50 -10,-19 -44,-372 -72,-501 -6,-27 -5,-55 -13,-85 -8,-31 -15,-36 -21,-72 -23,-147 -266,-759 -485,-608 -95,66 -74,201 -96,292 -24,97 9,23 -39,150 -21,54 -92,236 -97,282 -10,85 22,96 46,150z"/>
   <path class="fil6" d="M10480 11637c-10,-22 -147,-157 -178,-191 -36,-38 -127,-156 -146,-226 -9,-30 11,-290 9,-355 -4,-220 1,-148 -45,-332 -25,-102 -45,-211 -48,-321 -2,-88 7,-283 83,-297 89,-17 150,133 183,189l275 460c102,175 313,517 426,678 185,262 272,193 449,281 100,50 283,204 381,138 42,-28 47,-87 77,-110 -60,-66 -123,-151 -182,-230 -116,-154 -223,-334 -288,-525 -18,-51 -28,-118 -53,-153 -40,-59 -67,-77 -61,-118 -164,-17 -333,-68 -465,-132 -435,-213 -576,-552 -721,-1055 -27,26 -49,64 -78,92 -109,103 -218,136 -379,137 -15,246 28,538 97,751 36,110 75,208 106,322 30,110 68,267 -6,352 10,28 99,147 126,187 31,46 100,145 120,193 -20,-21 -50,-65 -71,-93 -102,-138 -108,-137 -218,-261 -59,19 -103,62 -149,83 14,81 151,262 207,334 23,29 56,70 73,99 88,6 159,29 239,55 98,32 130,20 237,48z"/>
   <path class="fil7" d="M8642 12339c-42,14 -69,64 -109,84l30 -67 -57 26 -86 70c-76,56 -96,54 -133,95 -58,64 -213,179 -270,257 -31,41 -154,227 -178,279 -8,17 -14,37 -21,50l-375 626c-9,17 -15,30 -25,47l-16 31c-57,123 -158,311 -206,433 -17,40 -32,70 -49,110 -15,33 -27,71 -44,107 -12,27 -11,22 -22,55 -9,25 -17,36 -25,55l-142 388c-50,135 -86,270 -127,411 -5,16 -12,39 -17,62 -12,50 -11,44 -36,63 0,-34 2,-36 7,-61 8,-30 7,-9 8,-35l8 0c-7,37 -44,123 -55,175l82 0c26,-92 82,-221 118,-313 122,-308 245,-591 370,-911 84,-215 177,-388 266,-588 116,-261 216,-398 356,-608 5,-8 17,-24 23,-34 10,-18 8,-29 9,-36 6,-40 57,-90 82,-124l216 -209c342,-264 433,-377 917,-338 388,31 571,163 803,471 -47,-35 -74,-82 -133,-115 37,17 201,235 242,290 42,57 74,101 120,148 116,119 93,64 152,124 169,171 256,467 366,732 105,252 224,511 345,754l259 562c21,48 67,152 77,195l574 0c-20,-35 -266,-287 -328,-357 -42,-46 -120,-109 -143,-141 -205,-280 -290,-467 -435,-759 -22,-44 -9,-45 -1,-56 10,30 51,91 71,123 19,30 66,94 71,118 -76,-117 -141,-268 -223,-391 10,23 12,27 17,55l-24 -28c-16,-20 -13,-13 -20,-34 -20,-56 -77,-138 -108,-200 -145,-284 -154,-385 -403,-615 -36,-33 -451,-619 -507,-671 -66,-55 -109,-103 -186,-157 -32,-23 -66,-42 -103,-63 -26,-14 -99,-42 -115,-58 -47,-6 -134,-41 -196,-53 -74,-15 -148,-22 -226,-23 -145,-1 -302,31 -445,49z"/>
   <path class="fil8" d="M13520 11051c-319,88 -607,114 -917,23 -11,43 -97,273 -84,310 8,24 42,65 36,83 7,31 23,41 44,68 128,166 387,611 489,798 27,50 139,289 161,313 8,-123 92,-263 171,-348 81,-86 207,-141 317,-209 -10,-51 -79,-103 -102,-242 -42,-256 115,-601 249,-783 -16,-11 -12,-7 -39,-7l4 -208c-7,-30 8,-10 -15,-26 -12,56 -86,118 -127,145 -45,30 -125,63 -187,83z"/>
   <path class="fil3" d="M9877 8505c-41,14 -17,17 -55,46 -31,23 -39,15 -51,53 31,58 123,65 134,121 11,59 -82,110 -105,158 22,23 31,25 67,33 73,17 139,60 144,145 -46,4 -80,5 -113,30 -26,20 -56,47 -67,82 84,-5 159,-67 220,-97 -29,49 -201,221 -278,92 -10,-16 -17,-35 -11,-58l36 -48c-16,-19 -4,-10 -11,-41 -123,-21 -99,-81 -105,-130 -17,-144 -45,-138 -100,-116 -74,-156 -111,108 -176,128 -57,-66 10,-278 48,-330 47,-67 72,-78 116,-48 57,40 56,73 73,107 10,22 2,8 14,22 22,-55 92,-100 91,-161 -52,-29 -111,-8 -167,-60 -74,-70 12,-123 29,-140l10 -10c-55,4 -159,27 -97,-77 14,-25 30,-47 43,-69 -41,10 -109,73 -216,7 -61,-36 -111,-90 -213,-69 -137,28 -217,195 -226,362 -9,167 41,356 100,491 34,79 52,130 101,192l146 153c215,192 522,392 768,76 165,-212 91,-242 17,-415 -42,-95 -74,-221 -116,-327 -17,-43 -34,-68 -50,-102z"/>
   <path class="fil4" d="M11854 10728c23,44 -38,129 -83,140 -86,20 -135,-58 -180,-40 -7,40 65,117 86,137 71,36 270,320 322,395 57,84 161,234 230,306 64,69 69,44 107,34 14,200 -23,314 97,458 158,190 290,142 354,186 13,110 -39,241 -181,270l568 442c45,34 152,124 201,143 -24,-128 -555,-1136 -632,-1278 -38,-70 -70,-136 -109,-207l-82 -155c-10,-22 -12,-41 -25,-62 -7,6 4,35 -30,-9l-285 -425c-34,-40 -62,-61 -103,-118l-277 -315c23,37 33,54 22,98z"/>
   <path class="fil4" d="M10931 14130c7,21 4,14 20,34l24 28c-5,-28 -7,-32 -17,-55 82,123 147,274 223,391 -5,-24 -52,-88 -71,-118 -20,-32 -61,-93 -71,-123 -8,11 -21,12 1,56 145,292 230,479 435,759 23,32 101,95 143,141 62,70 308,322 328,357l703 0c-28,-50 -403,-383 -476,-454 -83,-80 -161,-143 -256,-209 -277,-194 -258,-494 -632,-763 -91,-66 -180,-131 -264,-200 -43,-35 -82,-68 -123,-105 -34,-30 -85,-93 -124,-111 8,27 154,311 160,351 2,19 2,10 -3,21z"/>
   <path class="fil9" d="M6826 6232l21 -28c8,-10 9,-12 17,-22 31,-38 90,-93 133,-118 119,-70 152,2 184,101 27,86 50,174 71,260 23,93 33,196 55,284 93,-353 148,-761 296,-1069 145,-305 289,-101 406,-58 122,44 171,17 248,-45 162,-130 376,-352 500,-517 203,-269 449,-437 741,-612l383 -206c10,-5 17,-6 27,-12l29 -24c-161,32 -368,114 -510,177 -161,72 -308,157 -438,254 -546,404 -345,584 -814,552 -109,-8 -547,-91 -605,-76 -122,33 82,277 14,397 -51,89 -194,16 -220,300 -18,194 -83,102 -202,93 -193,-14 -316,187 -336,369z"/>
   <path class="fil10" d="M9747 12219l3 -4c3,21 7,38 12,52 25,68 75,77 133,182 34,63 42,56 76,84 16,15 33,41 48,61l96 129c33,-61 -84,-172 273,-41 219,80 87,122 298,181 141,40 216,52 353,132l135 100c14,14 22,26 38,40 85,71 437,321 448,351 5,15 8,48 7,68 -2,37 -21,32 -40,56 105,15 212,105 338,59 7,-46 -9,-58 -33,-76 -21,-16 -39,-26 -63,-40 -27,-15 -41,-24 -64,-38l-252 -172c-13,-9 -18,-13 -32,-23 -60,-46 -202,-175 -246,-233 -75,-100 -120,-140 -249,-178 -95,-28 -242,-52 -327,-96 -99,-51 -53,-96 -249,-175 -130,-53 -374,-99 -455,-178 -40,-40 -56,-59 -29,-82 34,-30 19,12 32,-38 -62,-5 -134,-28 -172,-72 -28,-31 -39,-73 -18,-127 21,-55 41,-94 105,-99 80,-7 117,6 185,19 -12,-22 0,-5 -16,-24l-2 -2c-30,-1 -68,-5 -87,-16 -37,-22 -101,-18 -158,21 -56,38 -85,175 -85,166 0,-3 -1,3 -3,13z"/>
   <path class="fil3" d="M8642 12339c143,-18 300,-50 445,-49 78,1 152,8 226,23 62,12 149,47 196,53 88,11 172,-78 224,-133 1,-2 3,-3 4,-5l10 -9c2,-10 3,-16 3,-13 0,9 29,-128 85,-166 57,-39 121,-43 158,-21 19,11 57,15 87,16l-42 -40c-16,-21 -33,-48 -51,-68 -38,-45 -94,-15 -135,-101 -27,-57 -26,-145 3,-200 37,-72 68,-59 136,-93 -21,-27 -47,-46 -77,-72 -38,-34 -65,-15 -110,-2 -77,23 -143,52 -206,86 -314,172 -613,482 -884,722 -15,13 -23,20 -37,34l-35 38z"/>
   <path class="fil11" d="M12527 11497c13,21 15,40 25,62l82 155c39,71 71,137 109,207 77,142 608,1150 632,1278 -49,-19 -156,-109 -201,-143l-568 -442c-4,0 -18,-1 -18,-1l763 1107c347,489 682,980 1005,1488l182 292c19,32 45,66 58,100l23 0c-22,-67 -175,-356 -217,-430 -215,-376 -420,-641 -632,-986 -58,-94 -94,-128 -103,-217 -29,-318 -165,-724 -286,-1018l-132 -303c-22,-24 -134,-263 -161,-313 -102,-187 -361,-632 -489,-798 -21,-27 -37,-37 -44,-68 -19,-37 -79,-127 -111,-150l83 180z"/>
   <path class="fil12" d="M13461 6169c77,-2 122,-20 219,-13 -22,-56 -156,-218 -199,-297 -59,-106 -102,-214 -164,-327 -69,-128 -127,-187 -210,-278 -30,-33 -214,-216 -257,-223 -152,-77 -449,-156 -643,-100l428 383c41,51 82,95 123,153 103,142 253,402 216,604 -17,100 -61,122 -108,169 250,-32 320,-115 595,-71z"/>
   <path class="fil7" d="M11585 8318l1147 827c-30,-72 -106,-180 -159,-314 -40,-102 -98,-267 -63,-391 86,-307 -223,-329 -187,-707 -39,17 -145,110 -187,142l-461 364c-22,19 -78,57 -90,79z"/>
   <path class="fil2" d="M9913 12644c56,52 471,638 507,671 249,230 258,331 403,615 31,62 88,144 108,200 5,-11 5,-2 3,-21 -6,-40 -152,-324 -160,-351 39,18 90,81 124,111 41,37 80,70 123,105 84,69 173,134 264,200 374,269 355,569 632,763 95,66 173,129 256,209 73,71 448,404 476,454l202 0c-47,-58 -530,-399 -689,-642 -28,-42 -125,-265 -138,-317l134 39c-30,-32 -79,-50 -116,-77 -40,-30 -73,-59 -105,-92 -102,-108 -99,-145 -163,-231 -127,-167 -286,-187 -485,-300 -85,-49 -158,-104 -245,-148 -355,-179 -296,-136 -521,-463 -27,-38 -60,-77 -78,-114 54,-3 65,-10 90,-44 13,-18 40,-65 32,-81 -72,116 -111,148 -187,43l-155 -196c-2,-2 -4,-6 -5,-5l-160 -189c-42,-43 -130,-158 -171,-184l24 45z"/>
   <path class="fil13" d="M13951 9888c39,-57 53,-58 68,-147 9,-55 17,-133 -16,-182 0,-27 -11,-68 -39,-75 -11,27 0,60 1,90 -31,-28 -42,-68 -102,-79 -90,-16 -276,88 -415,102 -219,22 -251,-98 -538,86 -30,19 20,-16 -15,11l-10 9c17,10 50,21 73,27 227,54 551,306 745,270 86,-15 210,-61 248,-112z"/>
   <path class="fil2" d="M11731 6460c-141,-3 -257,76 -351,132 -1,2 -3,2 -4,5l-97 76c-160,136 -296,319 -400,507 -33,61 -95,185 -109,257 20,-16 36,-44 54,-67 190,-232 488,-495 787,-565 130,-30 302,-42 416,-76l-3 -13c-14,-37 10,9 -14,-124l-36 -173 -243 41z"/>
   <path class="fil2" d="M12244 7535c46,-60 52,-93 165,-84 2,-1 9,-9 0,-18 -8,-8 -18,-10 -26,-14 -17,-8 -39,-20 -55,-32 -41,-29 -28,-72 -36,-132 0,85 -111,194 -118,36 -2,-42 3,-84 -19,-114 -5,102 10,182 -26,267 -81,7 -92,-93 -103,-180l-10 -63c0,-2 -1,-5 -2,-6 -1,-2 -2,-5 -3,-6 0,-1 -2,-4 -3,-6 -3,103 5,266 -55,329 -51,23 -104,-77 -120,-113 -3,-6 -11,-26 -12,-28 -10,-21 -3,-12 -16,-26 -3,85 18,166 -38,214 -75,0 -87,-92 -98,-170 -7,59 -11,142 -43,178 -78,-19 -89,-255 -157,-316 4,85 65,248 37,321 -75,23 -110,-179 -128,-249 23,-35 137,-123 185,-153 160,-97 340,-154 530,-93 104,33 152,74 217,125 -30,-72 -116,-140 -195,-178 -194,-93 -410,-25 -562,104 -80,66 -120,123 -187,189 5,58 51,196 30,270 -40,21 -72,-29 -104,-57 9,29 54,101 22,121 -63,15 -89,-91 -124,-130 -16,239 314,206 506,182 229,-29 361,-63 548,-168z"/>
   <path class="fil11" d="M11509 10359c-15,45 -73,115 -92,171 20,34 67,90 92,120 58,70 141,198 237,176 66,-15 72,-57 108,-98 11,-44 1,-61 -22,-98 -51,-91 -196,-303 -275,-324l-48 53z"/>
   <path class="fil11" d="M9998 12340c59,8 119,-26 153,-54 41,-35 67,-92 111,-120 -26,-20 -47,-38 -78,-58 -27,-17 -65,-31 -86,-47 -68,-13 -105,-26 -185,-19 -64,5 -84,44 -105,99 -50,129 84,190 190,199z"/>
   <path class="fil11" d="M10315 11747c21,-44 23,-31 16,-94 -165,-1 -322,-149 -398,-43 -165,229 211,389 382,137z"/>
   <path class="fil4" d="M13310 7329c37,61 55,70 101,162 28,57 63,120 87,182 68,-15 269,-177 291,-185 57,-23 66,-32 113,-58l-110 20 17 -66c-89,28 -184,31 -262,-16 -37,-23 -53,-56 -104,-57 -51,-1 -83,27 -133,18z"/>
   <path class="fil3" d="M13471 6485c-28,-26 3,17 -9,-17l-13 -51c-1,-2 -2,-4 -3,-5 -5,-16 -7,-25 -11,-36l-41 -149c-4,-16 -7,-22 -13,-39l-197 49 31 435 140 -139c28,-19 97,-25 116,-48z"/>
   <path class="fil11" d="M10225 12977l155 196c76,105 115,73 187,-43 6,-18 8,-21 14,-37 -41,-54 -118,-88 -155,-144l284 182c75,47 203,141 300,159 -38,-60 -499,-312 -621,-372 -36,-19 -50,-45 -87,-64 -21,23 -69,89 -77,123z"/>
   <path class="fil11" d="M13474 9418l-52 4c-58,3 -218,36 -225,85 49,77 180,72 250,48 10,-3 21,-8 27,-17 5,-7 2,-4 4,-12 12,-48 -17,22 2,-14 30,33 86,42 134,15 44,-26 35,-72 13,-127 -71,-10 -90,-9 -153,18z"/>
   <g style="clip-path:url(#id0)">
    <g>
     <path id="1" class="fil14" d="M13369 9429c0,0 52,3 76,37 24,33 24,33 24,33 0,0 -23,-34 27,-77 50,-43 87,-91 87,-91l-214 98z"/>
    </g>
   </g>
   <path class="fil0" d="M13474 9418l-52 4c-58,3 -218,36 -225,85 49,77 180,72 250,48 10,-3 21,-8 27,-17 5,-7 2,-4 4,-12 12,-48 -17,22 2,-14 30,33 86,42 134,15 44,-26 35,-72 13,-127 -71,-10 -90,-9 -153,18z"/>
   <path class="fil10" style="mask:url(#id1)" d="M10732 7475c0,0 323,-767 725,-929 402,-162 593,-109 869,-230l147 -58 84 414 -632 81c0,0 -387,24 -594,170 -207,146 -331,238 -599,552z"/>
   <path class="fil15" style="mask:url(#id3)" d="M13215 6672l-31 -435c0,0 266,-83 454,-83 187,1 237,220 237,220l45 255c0,0 -74,-326 -352,-188 -279,139 -353,231 -353,231z"/>
   <path class="fil15" d="M9036 8656l-65 -217 147 -176 196 87c0,0 -176,257 -135,477 41,221 204,395 204,395 0,0 -200,-155 -259,-317 -59,-163 -62,-188 -39,-226 24,-38 71,-77 51,-123 -20,-45 -83,-39 -91,108l-9 -8z"/>
   <path class="fil15" d="M11461 7811c0,0 410,28 625,-101 216,-129 239,-195 239,-195 0,0 -111,218 -322,278 -211,60 -542,18 -542,18z"/>
   <path class="fil15" d="M12732 8275c0,0 -91,296 46,389 138,93 321,49 321,49 0,0 -446,46 -367,-438z"/>
   <path class="fil15" d="M13004 8567c0,0 -19,-149 95,-158 114,-10 223,0 223,0 0,0 80,37 78,57 -1,20 -18,20 -44,20 -27,0 -39,-14 -81,0 -41,13 -74,32 -74,32 0,0 -40,131 -197,49z"/>
   <path class="fil15" d="M13537 8549l133 -110c0,0 -6,-34 72,-84 78,-50 108,-55 117,-61 9,-7 -114,69 -125,128 -11,58 -60,94 -87,102 -26,8 -43,-30 -110,25z"/>
   <path class="fil15" d="M13654 8594c0,0 196,-189 200,-298 5,-108 5,-108 5,-108 0,0 106,203 -205,406z"/>
   <path class="fil15" d="M13328 7183c0,0 226,-194 389,-167 162,27 165,143 165,143 0,0 -114,-228 -554,24z"/>
   <path class="fil7" d="M12901 6867l570 1321c0,0 227,-135 388,113 161,248 285,582 285,582 0,0 158,-543 0,-925 -158,-382 -388,-838 -388,-838 211,373 -278,573 -276,571 18,-18 -69,-164 -579,-824z"/>
   <path class="fil2" d="M13885 7159c-9,33 -34,50 -52,77 -19,27 3,12 -35,29 -48,23 -64,-4 -64,-61 0,-28 6,-56 8,-84 -19,19 -30,49 -44,74 -26,48 -72,104 -130,72 -33,-19 -25,-40 -38,-78 -23,35 -44,65 -102,75 -55,9 -98,27 -139,35 10,22 3,11 21,31 50,9 82,-19 133,-18 51,1 67,34 104,57 78,47 173,44 262,16 16,-21 31,-30 62,-35l22 24c55,63 132,-5 167,-60 -37,15 -50,29 -94,30 94,-37 188,-276 177,-426 -29,60 -33,156 -73,235 -22,43 -104,154 -177,108 -27,-33 -4,-78 6,-118l-14 17z"/>
   <path class="fil15" d="M13401 7404c0,0 58,-35 120,-26 63,8 96,93 196,87 99,-5 200,-61 200,-61 0,0 -92,95 -219,94 -127,0 -187,-146 -297,-94z"/>
   <path class="fil0" d="M13505 9386c285,-28 301,35 301,35 0,0 -201,-95 -733,120"/>
   <path class="fil15" d="M12894 9638c0,0 196,-363 364,-448 168,-86 219,-83 219,-83 8,-41 -319,126 -583,531z"/>
   <path class="fil16" d="M13664 9400c-11,-2 -19,76 14,84 32,8 70,-43 78,-65l-92 -19z"/>
   <path class="fil15" d="M13197 9535c0,0 53,46 152,51 99,6 145,-31 147,-38 2,-4 31,11 64,14 34,3 66,-13 96,-29 42,-22 72,-56 100,-98 0,-5 -87,102 -93,1 -15,-29 7,-36 7,-36l-72 2c0,0 45,8 46,56 2,48 -33,73 -50,78 -17,4 -90,10 -114,-21 -24,-31 -15,-32 -20,-32 -4,1 32,62 -22,75 -55,13 -177,11 -241,-23z"/>
   <path class="fil15" d="M13041 9577c0,0 171,-143 300,-153 128,-10 135,-4 135,0 0,1 -6,1 -18,2 -56,5 -237,23 -417,151z"/>
   <path class="fil17" d="M12835 9703c0,0 82,-41 272,41 191,82 226,169 226,169 0,0 -271,-187 -498,-210z"/>
   <path class="fil17" d="M14139 9383c0,0 142,-787 91,-1153 -52,-365 -378,-877 -378,-877 0,0 523,797 287,2030z"/>
   <path class="fil17" d="M13099 6817l0 379c0,0 17,73 85,115 68,42 225,225 261,318 35,93 125,246 142,246 18,0 -298,-577 -298,-577 0,0 -67,-10 -105,-74 -38,-63 -85,-407 -85,-407z"/>
   <path class="fil15" d="M12789 9705c0,0 399,137 553,253 153,116 465,14 465,14 0,0 -213,92 -493,-88 -280,-179 -374,-179 -525,-179z"/>
   <path class="fil7" d="M13374 8773l76 338 264 -28c0,0 101,-31 153,18 52,49 101,111 118,147 16,36 12,62 17,61 6,-2 86,-347 -4,-543 -90,-197 -295,-282 -295,-282 0,0 -24,256 -66,127 -43,-128 -58,-17 -79,-17 0,0 -44,57 37,161 81,104 97,157 72,241 -25,85 -109,50 -109,50l-184 -273z"/>
   <path class="fil17" d="M13332 9164l108 -82 159 16c0,0 65,-53 111,-52 46,2 143,30 143,30 0,0 -144,-18 -188,6 -44,25 -201,26 -201,26l-132 56z"/>
   <path class="fil10" d="M13691 9086c160,-49 291,11 307,188 4,42 -2,50 4,52 7,1 -55,-295 -311,-240z"/>
   <polygon class="fil10" points="12336,10899 12643,11085 12593,11074 12517,11368 12517,11053 "/>
   <path class="fil10" d="M11741 10490l740 497c0,0 -251,-98 -267,-38 -17,61 31,102 31,102l-504 -561z"/>
   <path class="fil10" d="M12543 11534c0,0 -85,-278 -302,-515 -217,-238 -493,-519 -493,-519 0,0 545,624 531,633 -14,10 264,401 264,401z"/>
   <path class="fil10" d="M10558 11606c0,0 587,-46 1032,269 446,315 1045,739 1045,739 0,0 -619,-387 -717,-456 -98,-69 -360,-267 -483,-302 -123,-35 -272,-180 -877,-250z"/>
   <path class="fil10" d="M11977 12173c0,0 102,-35 118,-79 15,-45 41,-73 40,-119 -1,-47 -10,-140 -10,-140l49 206 0 247 -197 -115z"/>
   <path class="fil10" d="M6661 15600c0,0 458,-1549 808,-2025 349,-477 388,-526 388,-526 0,0 -543,845 -776,1493 -234,647 -390,1058 -390,1058l-30 0z"/>
   <path class="fil18" d="M13691 9678c0,0 4,-4 17,96 12,100 48,29 48,29 0,0 -12,-119 22,-98 33,20 1,-3 29,-27 28,-23 14,-40 40,-40 25,0 11,37 36,-30 25,-67 15,-11 -19,0 -34,10 -70,5 -70,30 0,25 -14,34 -24,26 -10,-7 -22,-34 -32,3 -10,38 -47,11 -47,11z"/>
  </g>
 </g>
</svg>
