<svg width="52" height="52" viewBox="0 0 52 52" fill="none" xmlns="http://www.w3.org/2000/svg">
<rect width="52" height="52" fill="#2C2C31"/>
<path fill-rule="evenodd" clip-rule="evenodd" d="M16.2484 16.3724C17.1595 15.856 18.1992 15.4556 19.3089 15.1422V13.0415H30.4706C30.751 13.0415 31.8782 13.7379 32.0651 13.8713C33.0873 14.5503 33.7882 15.473 34.2145 16.6162C34.7753 18.1075 34.7519 19.8194 34.162 21.276C33.6947 22.454 32.9354 23.5044 32.0476 24.3864C31.8432 24.5895 31.5862 24.8855 31.3818 25.0305C31.0839 25.2743 30.675 25.6573 30.3246 25.9184L29.174 26.7656C28.4848 27.2067 27.7839 27.5955 27.0421 27.8856C24.6883 28.8663 22.2585 29.0462 19.8112 28.2396C19.2564 28.0539 18.7716 27.8856 18.2693 27.6303C18.1583 27.5723 18.0882 27.5549 17.9714 27.5026C17.8604 27.4446 17.8079 27.4272 17.6969 27.3518C17.5859 27.2995 17.51 27.2647 17.399 27.2067C17.0077 26.9862 16.6923 26.7831 16.3243 26.5625C15.6176 26.1215 14.9693 25.605 14.3209 25.0886C14.1749 24.9783 13.5032 24.427 13.3922 24.2762C13.5032 24.1485 13.7076 24.0208 13.842 23.8932L14.0639 23.69C14.1574 23.632 14.21 23.5798 14.3034 23.5044C14.8583 23.0807 15.3956 22.6397 15.9914 22.2509L18.3978 20.8872C18.8066 20.7247 19.198 20.5564 19.6243 20.4288C21.3298 19.8949 22.7959 19.7614 24.5948 20.0574C26.1893 20.3185 27.632 21.0555 29.0279 21.8621C29.3375 22.0478 29.6354 22.2509 29.9508 22.4714C30.0442 22.5294 30.4356 22.8022 30.529 22.8602C31.3234 22.3089 31.9366 21.4617 32.3981 20.4636C31.3584 19.6744 30.2662 18.9896 29.0805 18.4035C25.1672 16.4479 21.2773 16.3202 17.288 18.0495C16.9726 18.1772 16.6923 18.3281 16.4002 18.4731C15.787 18.7865 15.3022 19.0825 14.7123 19.4306C14.1574 19.7672 13.6726 20.1328 13.1528 20.5216C12.9133 20.7015 12.6738 20.8872 12.4285 21.0903C12.0021 21.4211 11.5758 21.7751 11.1903 22.1406L10.688 22.5991C10.5595 22.7093 10.466 22.8196 10.3375 22.9357C10.1097 23.1736 9.11097 24.073 9 24.2413C9.09345 24.3864 10.1097 25.4019 10.3142 25.605C10.5595 25.843 10.7814 26.0287 11.0034 26.2666C11.1319 26.3768 11.2428 26.4523 11.3538 26.58C11.6867 26.9107 12.0781 27.2067 12.446 27.5026L14.7823 29.2145C15.9505 29.9167 17.1011 30.5608 18.4211 31.0019C18.5672 31.0541 18.7365 31.0947 18.9176 31.1701C19.4374 31.3326 19.9748 31.4603 20.5121 31.5705C22.0366 31.8665 23.7946 31.8665 25.3366 31.5938C26.0375 31.4603 26.7442 31.2572 27.3925 31.0367C29.0046 30.4854 30.5057 29.6207 31.8607 28.6052L33.5136 27.2415C33.9751 26.8585 34.9972 25.7327 35.3652 25.2337C35.7565 24.7404 36.0894 24.2239 36.4048 23.69C37.1816 22.396 37.7015 20.5216 37.7015 18.9374C37.7015 17.9567 37.497 16.5581 37.1291 15.6355C36.8487 14.9217 36.5917 14.3298 36.1654 13.7031C36.0135 13.4825 35.9025 13.3143 35.7565 13.1344C34.8629 12.026 33.7181 11.1962 32.4565 10.5694C32.2345 10.4592 31.3058 10.0007 31.0664 10.0007H16.2484V16.3724Z" fill="#36E7FD"/>
<path fill-rule="evenodd" clip-rule="evenodd" d="M35.3827 28.0706C35.739 28.5116 36.0544 28.9178 36.3289 29.4517C37.5555 31.9006 37.1291 34.4481 35.517 36.601C34.8862 37.4309 34.1036 38.0576 33.1983 38.5741L32.7135 38.7946C32.585 38.8294 32.2871 38.9571 32.1411 38.9571H19.0286V34.0245C17.7903 33.6531 16.7682 33.2121 15.933 32.6956V41.9978H32.6025C32.8653 41.9978 33.7006 41.6845 33.9225 41.5916C35.1082 41.0752 36.0544 40.4542 36.9772 39.5316C37.6255 38.9048 38.2388 38.1853 38.6652 37.3961C38.9806 36.8216 39.1325 36.6184 39.3895 35.9743C40.2072 33.9491 40.3707 31.6104 39.6698 29.5098C39.5939 29.2892 39.518 29.1035 39.4245 28.883C39.1325 28.1112 38.9631 27.8849 38.5542 27.206C38.4082 26.9506 37.8533 26.2136 37.6489 25.9873C37.5379 25.8771 37.4036 25.732 37.316 25.5869C36.5333 27.0609 36.2588 27.1885 35.3827 28.0706Z" fill="#36E7FD"/>
<path fill-rule="evenodd" clip-rule="evenodd" d="M35.5521 36.543L35.517 36.601C34.8862 37.4308 34.1036 38.0575 33.1983 38.574L32.7135 38.7771C32.585 38.8293 32.2871 38.957 32.1411 38.957H19.0286V34.0244C17.7903 33.6531 16.7682 33.212 15.933 32.6956V41.9978H32.6025C32.8653 41.9978 33.7006 41.6844 33.9225 41.5916C35.1082 41.0751 36.0544 40.4484 36.9772 39.5315C37.6255 38.9048 38.2388 38.1852 38.6827 37.396C38.9806 36.8215 39.1325 36.6184 39.3895 35.9743C39.4654 35.7712 39.5355 35.568 39.6114 35.3824C38.5951 36.1193 37.3686 36.5662 36.0135 36.5662C35.8675 36.5662 35.6981 36.5662 35.5521 36.543Z" fill="#36E7FD"/>
<path fill-rule="evenodd" clip-rule="evenodd" d="M13.5616 24.4436C13.4857 24.3681 13.4331 24.3159 13.3922 24.2753C13.5032 24.1476 13.7076 24.0199 13.842 23.8923L14.0639 23.6892C14.1574 23.6311 14.21 23.5789 14.3034 23.5035C14.8583 23.0799 15.3956 22.6388 15.9914 22.25L18.3978 20.8863C18.8066 20.7238 19.198 20.5555 19.6243 20.4279C21.3298 19.894 22.7959 19.7605 24.5948 20.0565C26.1893 20.3176 27.632 21.0546 29.0279 21.8612C29.3375 22.0469 29.6354 22.25 29.9508 22.4705C30.0442 22.5286 30.4356 22.8013 30.529 22.8593C31.3234 22.3081 31.9366 21.4608 32.3981 20.4627C31.3584 19.6735 30.2662 18.9887 29.0805 18.4026C25.1672 16.447 21.2773 16.3193 17.288 18.0486C16.9726 18.1763 16.6923 18.3272 16.4002 18.4723C15.787 18.7856 15.3022 19.0816 14.7123 19.4298C14.1574 19.7605 13.6726 20.1319 13.1528 20.5207C12.9133 20.7006 12.6738 20.8863 12.4285 21.0894C12.0021 21.4202 11.5758 21.7684 11.1903 22.1398L10.688 22.5982C10.5595 22.7085 10.466 22.8187 10.3375 22.9348C10.1097 23.1727 9.11097 24.0722 9 24.2405C9.01752 24.2753 9.07593 24.3507 9.16938 24.4436H13.5616Z" fill="#36E7FD"/>
<path fill-rule="evenodd" clip-rule="evenodd" d="M16.2484 16.3717C17.1596 15.8552 18.1992 15.4548 19.309 15.1415V13.0408H30.4706C30.751 13.0408 31.8783 13.7371 32.0652 13.8706C33.0873 14.5496 33.7882 15.4722 34.2146 16.6154C34.7753 18.1068 34.7519 19.8187 34.162 21.2753C33.6947 22.4533 32.9354 23.5036 32.0477 24.3857L31.9892 24.4437H35.9434C36.107 24.1826 36.2588 23.9447 36.4049 23.6893C37.1817 22.3952 37.7015 20.5209 37.7015 18.9366C37.7015 17.9559 37.4971 16.5574 37.1291 15.6347C36.8488 14.921 36.5918 14.3291 36.1654 13.7023C36.0135 13.4818 35.9026 13.3135 35.7565 13.1336C34.8687 12.0253 33.7181 11.1954 32.4565 10.5687C32.2346 10.4584 31.3059 10 31.0664 10H16.2484V16.3717Z" fill="#36E7FD"/>
<path fill-rule="evenodd" clip-rule="evenodd" d="M35.3827 28.0706C35.739 28.5116 36.0544 28.9178 36.3289 29.4517C37.316 31.4422 37.2401 33.4674 36.3114 35.3302H39.6114C40.2247 33.4674 40.3006 31.3899 39.6698 29.5098C39.5939 29.2892 39.5179 29.1035 39.4245 28.883C39.1325 28.1112 38.9631 27.8849 38.5542 27.206C38.4082 26.9506 37.8533 26.2136 37.6489 25.9873C37.5379 25.8771 37.4036 25.732 37.316 25.5869C36.5333 27.0609 36.2588 27.1885 35.3827 28.0706Z" fill="#36E7FD"/>
</svg>
