<svg width="81" height="32" viewBox="0 0 81 32" fill="none" xmlns="http://www.w3.org/2000/svg">
<path fill-rule="evenodd" clip-rule="evenodd" d="M7.24838 6.37339C8.15953 5.85693 9.19919 5.45652 10.3089 5.14315V3.04246H21.4706C21.751 3.04246 22.8782 3.73882 23.0651 3.87229C24.0873 4.55125 24.7882 5.47393 25.2145 6.61712C25.7753 8.1085 25.7519 9.82039 25.162 11.2769C24.6947 12.455 23.9354 13.5053 23.0476 14.3874C22.8432 14.5905 22.5862 14.8864 22.3818 15.0315C22.0839 15.2752 21.675 15.6582 21.3246 15.9194L20.174 16.7666C19.4848 17.2076 18.7839 17.5964 18.0421 17.8866C15.6883 18.8673 13.2585 19.0472 10.8112 18.2406C10.2564 18.0549 9.77158 17.8866 9.26928 17.6312C9.1583 17.5732 9.08821 17.5558 8.9714 17.5036C8.86042 17.4455 8.80786 17.4281 8.69688 17.3527C8.58591 17.3005 8.50998 17.2657 8.39901 17.2076C8.00768 16.9871 7.69227 16.784 7.32431 16.5635C6.61758 16.1225 5.96925 15.606 5.32093 15.0895C5.17491 14.9793 4.50322 14.428 4.39225 14.2771C4.50322 14.1494 4.70765 14.0218 4.84199 13.8941L5.06393 13.691C5.15739 13.633 5.20995 13.5807 5.30341 13.5053C5.85828 13.0817 6.39563 12.6407 6.99138 12.2519L9.39777 10.8881C9.80663 10.7257 10.198 10.5574 10.6243 10.4297C12.3298 9.89583 13.7959 9.76236 15.5948 10.0583C17.1893 10.3194 18.632 11.0564 20.0279 11.863C20.3375 12.0487 20.6354 12.2519 20.9508 12.4724C21.0442 12.5304 21.4356 12.8031 21.529 12.8612C22.3234 12.3099 22.9366 11.4626 23.3981 10.4645C22.3584 9.67531 21.2662 8.99055 20.0805 8.40445C16.1672 6.44883 12.2773 6.32117 8.28803 8.05047C7.97263 8.17813 7.69227 8.32901 7.40024 8.47409C6.78696 8.78745 6.30217 9.0834 5.71226 9.43158C5.15739 9.76816 4.6726 10.1337 4.15278 10.5226C3.91331 10.7024 3.67384 10.8881 3.42852 11.0912C3.00215 11.422 2.57577 11.776 2.19028 12.1416L1.68798 12.6C1.55948 12.7103 1.46603 12.8205 1.33753 12.9366C1.10974 13.1745 0.110974 14.074 0 14.2423C0.0934521 14.3874 1.10974 15.4029 1.31417 15.606C1.55948 15.8439 1.78143 16.0296 2.00338 16.2675C2.13188 16.3778 2.24285 16.4532 2.35382 16.5809C2.68675 16.9117 3.07808 17.2076 3.44605 17.5036L5.78235 19.2155C6.9505 19.9176 8.10113 20.5618 9.42114 21.0028C9.56716 21.055 9.73654 21.0956 9.9176 21.1711C10.4374 21.3336 10.9748 21.4612 11.5121 21.5715C13.0366 21.8674 14.7946 21.8674 16.3366 21.5947C17.0375 21.4612 17.7442 21.2581 18.3925 21.0376C20.0046 20.4863 21.5057 19.6217 22.8607 18.6062L24.5136 17.2424C24.9751 16.8594 25.9972 15.7337 26.3652 15.2346C26.7565 14.7413 27.0894 14.2249 27.4048 13.691C28.1816 12.3969 28.7015 10.5226 28.7015 8.93833C28.7015 7.95762 28.497 6.55909 28.1291 5.63641C27.8487 4.92264 27.5917 4.33073 27.1654 3.70401C27.0135 3.48349 26.9025 3.3152 26.7565 3.13531C25.8629 2.02693 24.7181 1.1971 23.4565 0.570377C23.2345 0.46012 22.3058 0.00168128 22.0664 0.00168128H7.24838V6.37339Z" fill="#F8F9FA"/>
<path fill-rule="evenodd" clip-rule="evenodd" d="M26.3827 18.0716C26.739 18.5127 27.0544 18.9189 27.3289 19.4528C28.5555 21.9016 28.1291 24.4492 26.517 26.6021C25.8862 27.4319 25.1036 28.0586 24.1983 28.5751L23.7135 28.7956C23.585 28.8304 23.2871 28.9581 23.1411 28.9581H10.0286V24.0255C8.79034 23.6541 7.76821 23.2131 6.93298 22.6966V31.9989H23.6025C23.8653 31.9989 24.7006 31.6855 24.9225 31.5927C26.1082 31.0762 27.0544 30.4553 27.9772 29.5326C28.6255 28.9059 29.2388 28.1863 29.6652 27.3971C29.9806 26.8226 30.1325 26.6195 30.3895 25.9753C31.2072 23.9501 31.3707 21.6115 30.6698 19.5108C30.5939 19.2903 30.518 19.1046 30.4245 18.8841C30.1325 18.1123 29.9631 17.8859 29.5542 17.207C29.4082 16.9517 28.8533 16.2147 28.6489 15.9884C28.5379 15.8781 28.4036 15.733 28.316 15.5879C27.5333 17.0619 27.2588 17.1896 26.3827 18.0716Z" fill="#F8F9FA"/>
<path fill-rule="evenodd" clip-rule="evenodd" d="M7.24841 6.37277C8.15957 5.8563 9.19922 5.45589 10.309 5.14253V3.04183H21.4706C21.751 3.04183 22.8783 3.7382 23.0652 3.87167C24.0873 4.55062 24.7882 5.4733 25.2146 6.61649C25.7753 8.10787 25.7519 9.81976 25.162 11.2763C24.6947 12.4543 23.9354 13.5047 23.0477 14.3867L22.9892 14.4448H26.9434C27.107 14.1836 27.2588 13.9457 27.4049 13.6904C28.1817 12.3963 28.7015 10.5219 28.7015 8.9377C28.7015 7.95699 28.4971 6.55846 28.1291 5.63578C27.8488 4.92201 27.5918 4.3301 27.1654 3.70338C27.0135 3.48286 26.9026 3.31458 26.7565 3.13468C25.8687 2.02631 24.7181 1.19648 23.4565 0.56975C23.2346 0.459492 22.3059 0.00105397 22.0664 0.00105397H7.24841V6.37277Z" fill="#F8F9FA"/>
<path fill-rule="evenodd" clip-rule="evenodd" d="M26.3827 18.0716C26.739 18.5127 27.0544 18.9189 27.3289 19.4528C28.316 21.4432 28.2401 23.4684 27.3114 25.3312H30.6114C31.2247 23.4684 31.3006 21.391 30.6698 19.5108C30.5939 19.2903 30.5179 19.1046 30.4245 18.8841C30.1325 18.1123 29.9631 17.8859 29.5542 17.207C29.4082 16.9517 28.8533 16.2147 28.6489 15.9884C28.5379 15.8781 28.4036 15.733 28.316 15.5879C27.5333 17.0619 27.2588 17.1896 26.3827 18.0716Z" fill="#F8F9FA"/>
<path d="M47.9701 8.66492C48.6301 8.87963 49.1558 9.23942 49.5413 9.74428C49.9268 10.2433 50.1195 10.8701 50.1195 11.6187C50.1195 12.6516 49.7224 13.4466 48.928 14.0037C48.1278 14.5666 46.9655 14.8451 45.4352 14.8451H39.4894V2.95475H45.0965C46.5099 2.95475 47.5963 3.22749 48.3615 3.77878C49.1266 4.33007 49.5062 5.08446 49.5062 6.04776C49.5062 6.63386 49.3719 7.15614 49.0974 7.60877C48.8229 8.06141 48.4491 8.41539 47.9701 8.66492ZM41.7088 4.68985V7.96856H44.857C45.6338 7.96856 46.2296 7.82929 46.6443 7.55074C47.059 7.2722 47.2692 6.86599 47.2692 6.33791C47.2692 5.79243 47.059 5.38041 46.6443 5.10187C46.2296 4.82913 45.6338 4.68985 44.857 4.68985H41.7088ZM45.3009 13.1158C47.0239 13.1158 47.8825 12.5413 47.8825 11.3981C47.8825 10.2549 47.0239 9.68045 45.3009 9.68045H41.7088V13.1158H45.3009ZM52.9114 5.77502H55.0491V14.8451H52.9114V5.77502ZM53.9861 4.27784C53.6006 4.27784 53.2735 4.15598 53.0107 3.91225C52.7537 3.67432 52.6194 3.36676 52.6194 3.00698C52.6194 2.64139 52.7537 2.33963 53.0107 2.0959C53.2735 1.85218 53.6006 1.73031 53.9861 1.73031C54.3774 1.73031 54.6987 1.84637 54.9615 2.07849C55.2243 2.31062 55.3587 2.60657 55.3587 2.95475C55.3587 3.32614 55.2302 3.64531 54.9732 3.90064C54.7162 4.15017 54.3891 4.27784 53.9861 4.27784ZM63.6526 5.67056C64.8032 5.67056 65.726 6.00714 66.4211 6.67449C67.1161 7.34183 67.4607 8.33415 67.4607 9.64563V14.8451H65.323V9.91837C65.323 9.12916 65.1361 8.53145 64.7623 8.12524C64.3827 7.72483 63.8511 7.52753 63.1561 7.52753C62.3676 7.52753 61.7485 7.75965 61.2929 8.22969C60.8373 8.69974 60.6095 9.37869 60.6095 10.2608V14.8451H58.4718V5.77502H60.5044V6.94723C60.8548 6.52941 61.3046 6.21024 61.8361 5.99553C62.3734 5.78082 62.975 5.67056 63.6526 5.67056ZM74.2886 5.67056C75.632 5.67056 76.6599 5.99553 77.3725 6.63386C78.0851 7.2722 78.4414 8.2355 78.4414 9.52957V14.8451H76.4263V13.7426C76.1635 14.1372 75.7897 14.4389 75.3049 14.6478C74.8201 14.8625 74.236 14.967 73.5526 14.967C72.8693 14.967 72.2677 14.8509 71.7537 14.6188C71.2455 14.3867 70.8484 14.0617 70.568 13.6497C70.2877 13.2377 70.1475 12.7677 70.1475 12.2454C70.1475 11.433 70.4512 10.7772 71.0645 10.284C71.6719 9.79071 72.6356 9.54698 73.944 9.54698H76.3036V9.40771C76.3036 8.77518 76.1109 8.28772 75.7312 7.95115C75.3516 7.60877 74.785 7.44048 74.0316 7.44048C73.5176 7.44048 73.0153 7.52173 72.5188 7.67841C72.0224 7.83509 71.6018 8.0556 71.2631 8.33995L70.422 6.79635C70.9009 6.43076 71.4792 6.15221 72.1509 5.96071C72.8225 5.76921 73.5351 5.67056 74.2886 5.67056ZM73.9965 13.4176C74.5339 13.4176 75.007 13.2957 75.4217 13.052C75.8422 12.8083 76.1343 12.4601 76.3036 12.0075V10.9571H74.0958C72.8693 10.9571 72.2502 11.3575 72.2502 12.1641C72.2502 12.5471 72.4079 12.8547 72.7116 13.081C73.0211 13.3073 73.4475 13.4176 73.9965 13.4176ZM47.83 21.0776L43.9166 30.1477H41.7088L37.7955 21.0776H40.015L42.8536 27.8033L45.7798 21.0776H47.83ZM49.7808 21.0776H51.9185V30.1477H49.7808V21.0776ZM50.8613 19.5862C50.47 19.5862 50.1487 19.4643 49.8859 19.2206C49.6231 18.9769 49.4887 18.6751 49.4887 18.3095C49.4887 17.9498 49.6231 17.6422 49.8859 17.3985C50.1487 17.1605 50.47 17.0387 50.8613 17.0387C51.2468 17.0387 51.5739 17.1547 51.8309 17.3869C52.0937 17.619 52.228 17.9091 52.228 18.2573C52.228 18.6345 52.0995 18.9479 51.8426 19.2032C51.5856 19.4585 51.2585 19.5862 50.8613 19.5862ZM63.9212 25.6678C63.9212 25.8128 63.9096 26.0218 63.892 26.2945H56.7254C56.8539 26.9618 57.181 27.4899 57.7067 27.8845C58.2382 28.2733 58.8982 28.4706 59.6808 28.4706C60.6855 28.4706 61.5148 28.1399 62.1632 27.4841L63.308 28.7898C62.8991 29.2772 62.3793 29.6486 61.7543 29.8924C61.1235 30.1419 60.4168 30.2696 59.6341 30.2696C58.6295 30.2696 57.7476 30.0723 56.9824 29.6718C56.2173 29.2772 55.6274 28.726 55.2127 28.018C54.798 27.31 54.5877 26.5092 54.5877 25.6155C54.5877 24.7335 54.7921 23.9327 55.1951 23.2305C55.5982 22.5225 56.1589 21.9654 56.8773 21.5708C57.5957 21.1762 58.4076 20.9789 59.307 20.9789C60.1948 20.9789 60.9892 21.1704 61.6901 21.565C62.391 21.9538 62.94 22.5051 63.3313 23.2131C63.7285 23.9211 63.9212 24.7393 63.9212 25.6678ZM59.307 22.6734C58.6237 22.6734 58.0454 22.8765 57.5723 23.2769C57.0992 23.6831 56.813 24.217 56.7079 24.8844H61.8887C61.7952 24.2286 61.5207 23.6947 61.0534 23.2885C60.5862 22.8765 60.0021 22.6734 59.307 22.6734ZM80.6667 21.0776L77.2966 30.1477H75.2465L72.8868 23.8978L70.4921 30.1477H68.442L65.0894 21.0776H67.1044L69.5167 27.7743L72.0282 21.0776H73.8272L76.2861 27.8033L78.7684 21.0776H80.6667Z" fill="#F8F9FA"/>
</svg>
