<svg width="89" height="35" viewBox="0 0 89 35" fill="none" xmlns="http://www.w3.org/2000/svg">
<g clip-path="url(#clip0)">
<path fill-rule="evenodd" clip-rule="evenodd" d="M7.92791 6.97077C8.92449 6.40588 10.0616 5.96794 11.2754 5.6252V3.32756H23.4835C23.7901 3.32756 25.0231 4.08921 25.2275 4.23519C26.3455 4.9778 27.1121 5.98698 27.5784 7.23735C28.1917 8.86854 28.1661 10.7409 27.5209 12.334C27.0098 13.6225 26.1794 14.7713 25.2083 15.736C24.9847 15.9582 24.7037 16.2819 24.4801 16.4406C24.1543 16.7071 23.7071 17.1261 23.3238 17.4117L22.0653 18.3383C21.3115 18.8207 20.5449 19.246 19.7335 19.5633C17.159 20.636 14.5015 20.8327 11.8248 19.9505C11.2179 19.7474 10.6877 19.5633 10.1383 19.284C10.0169 19.2206 9.94024 19.2015 9.81247 19.1444C9.69109 19.0809 9.6336 19.0619 9.51222 18.9794C9.39084 18.9223 9.30779 18.8842 9.18641 18.8207C8.7584 18.5795 8.41343 18.3574 8.01096 18.1162C7.23797 17.6338 6.52887 17.0689 5.81977 16.504C5.66006 16.3834 4.9254 15.7805 4.80402 15.6155C4.9254 15.4758 5.14899 15.3362 5.29592 15.1965L5.53868 14.9744C5.64089 14.9109 5.69839 14.8538 5.8006 14.7713C6.40749 14.308 6.99522 13.8256 7.64683 13.4003L10.2788 11.9088C10.726 11.7311 11.154 11.547 11.6204 11.4074C13.4858 10.8234 15.0892 10.6774 17.0568 11.0011C18.8008 11.2868 20.3788 12.0928 21.9056 12.9751C22.2442 13.1782 22.57 13.4003 22.9149 13.6415C23.0171 13.705 23.4452 14.0033 23.5474 14.0668C24.4162 13.4638 25.087 12.5371 25.5916 11.4454C24.4545 10.5822 23.2599 9.83329 21.9631 9.19224C17.6829 7.05328 13.4283 6.91365 9.06503 8.80507C8.72007 8.9447 8.41343 9.10973 8.09401 9.2684C7.42323 9.61114 6.893 9.93484 6.24778 10.3157C5.64089 10.6838 5.11066 11.0837 4.5421 11.5089C4.28018 11.7057 4.01826 11.9088 3.74995 12.1309C3.2836 12.4927 2.81725 12.8799 2.39562 13.2797L1.84623 13.7812C1.70568 13.9017 1.60347 14.0223 1.46293 14.1493C1.21378 14.4095 0.121378 15.3933 0 15.5774C0.102213 15.736 1.21378 16.8468 1.43737 17.0689C1.70568 17.3292 1.94844 17.5323 2.1912 17.7925C2.33174 17.9131 2.45312 17.9956 2.5745 18.1352C2.93863 18.497 3.36665 18.8207 3.76911 19.1444L6.32444 21.0168C7.60211 21.7848 8.86061 22.4893 10.3044 22.9717C10.4641 23.0288 10.6493 23.0732 10.8474 23.1557C11.4159 23.3335 12.0037 23.4731 12.5914 23.5937C14.2587 23.9174 16.1816 23.9174 17.8681 23.6191C18.6347 23.4731 19.4077 23.251 20.1168 23.0098C21.88 22.4068 23.5218 21.4611 25.0039 20.3504L26.8118 18.8588C27.3165 18.4399 28.4344 17.2086 28.8369 16.6627C29.2649 16.1232 29.6291 15.5583 29.974 14.9744C30.8237 13.559 31.3922 11.5089 31.3922 9.77617C31.3922 8.70352 31.1686 7.17388 30.7662 6.16469C30.4595 5.38401 30.1785 4.73661 29.7121 4.05113C29.546 3.80994 29.4246 3.62587 29.2649 3.42912C28.2875 2.21683 27.0354 1.3092 25.6555 0.62372C25.4128 0.503126 24.397 0.00170898 24.1351 0.00170898H7.92791V6.97077Z" fill="#00B5D0"/>
<path fill-rule="evenodd" clip-rule="evenodd" d="M28.8561 19.7659C29.2458 20.2482 29.5907 20.6925 29.891 21.2765C31.2325 23.9549 30.7662 26.7413 29.003 29.096C28.3131 30.0036 27.457 30.6891 26.4668 31.254L25.9366 31.4952C25.7961 31.5333 25.4703 31.6729 25.3106 31.6729H10.9688V26.2779C9.61443 25.8717 8.49648 25.3893 7.58295 24.8245V34.9988H25.8152C26.1027 34.9988 27.0162 34.656 27.259 34.5545C28.5558 33.9896 29.5907 33.3105 30.6001 32.3013C31.3092 31.6158 31.98 30.8288 32.4463 29.9656C32.7913 29.3372 32.9574 29.1151 33.2385 28.4105C34.1328 26.1954 34.3117 23.6376 33.5451 21.3399C33.4621 21.0987 33.379 20.8956 33.2768 20.6544C32.9574 19.8103 32.7721 19.5627 32.3249 18.8201C32.1652 18.5409 31.5583 17.7348 31.3347 17.4873C31.2134 17.3667 31.0664 17.208 30.9706 17.0493C30.1146 18.6615 29.8143 18.8011 28.8561 19.7659Z" fill="#00B5D0"/>
<path fill-rule="evenodd" clip-rule="evenodd" d="M7.92792 6.97028C8.9245 6.40539 10.0616 5.96745 11.2754 5.62471V3.32707H23.4835C23.7901 3.32707 25.0231 4.08872 25.2275 4.2347C26.3455 4.97731 27.1121 5.98649 27.5784 7.23686C28.1917 8.86805 28.1661 10.7404 27.5209 12.3335C27.0098 13.622 26.1794 14.7708 25.2083 15.7356L25.1445 15.799H29.4694C29.6482 15.5134 29.8143 15.2532 29.974 14.9739C30.8237 13.5585 31.3922 11.5084 31.3922 9.77568C31.3922 8.70303 31.1686 7.17339 30.7662 6.16421C30.4595 5.38352 30.1785 4.73612 29.7121 4.05064C29.546 3.80945 29.4246 3.62539 29.2649 3.42863C28.2939 2.21634 27.0354 1.30871 25.6555 0.623232C25.4128 0.502638 24.397 0.0012207 24.1351 0.0012207H7.92792V6.97028Z" fill="#00B5D0"/>
<path fill-rule="evenodd" clip-rule="evenodd" d="M28.8561 19.7659C29.2458 20.2482 29.5907 20.6925 29.891 21.2765C30.9706 23.4535 30.8876 25.6686 29.8718 27.706H33.4812C34.152 25.6686 34.235 23.3964 33.5451 21.3399C33.4621 21.0987 33.379 20.8956 33.2768 20.6544C32.9574 19.8103 32.7721 19.5627 32.3249 18.8201C32.1652 18.5409 31.5583 17.7348 31.3347 17.4873C31.2134 17.3667 31.0664 17.208 30.9706 17.0493C30.1146 18.6615 29.8143 18.8011 28.8561 19.7659Z" fill="#00B5D0"/>
<path d="M52.4673 9.47743C53.1892 9.71227 53.7642 10.1058 54.1858 10.658C54.6074 11.2038 54.8182 11.8893 54.8182 12.7081C54.8182 13.8379 54.3838 14.7074 53.515 15.3167C52.6398 15.9324 51.3685 16.237 49.6948 16.237H43.1915V3.23193H49.3243C50.8703 3.23193 52.0585 3.53024 52.8954 4.13321C53.7322 4.73618 54.1475 5.5613 54.1475 6.61491C54.1475 7.25596 54.0005 7.82719 53.7003 8.32226C53.4 8.81733 52.9912 9.2045 52.4673 9.47743ZM45.619 5.1297V8.71578H49.0624C49.912 8.71578 50.5636 8.56345 51.0172 8.25879C51.4708 7.95413 51.7007 7.50984 51.7007 6.93226C51.7007 6.33564 51.4708 5.885 51.0172 5.58034C50.5636 5.28203 49.912 5.1297 49.0624 5.1297H45.619ZM49.5479 14.3456C51.4324 14.3456 52.3715 13.7173 52.3715 12.4669C52.3715 11.2165 51.4324 10.5882 49.5479 10.5882H45.619V14.3456H49.5479ZM57.8719 6.3166H60.21V16.237H57.8719V6.3166ZM59.0473 4.67906C58.6257 4.67906 58.2679 4.54577 57.9805 4.27919C57.6994 4.01896 57.5524 3.68257 57.5524 3.28905C57.5524 2.88919 57.6994 2.55914 57.9805 2.29256C58.2679 2.02599 58.6257 1.8927 59.0473 1.8927C59.4753 1.8927 59.8267 2.01964 60.1142 2.27352C60.4016 2.52741 60.5486 2.8511 60.5486 3.23193C60.5486 3.63814 60.408 3.98723 60.1269 4.2665C59.8458 4.53942 59.4881 4.67906 59.0473 4.67906ZM69.62 6.20235C70.8785 6.20235 71.8878 6.57048 72.6481 7.30039C73.4083 8.0303 73.7852 9.11564 73.7852 10.5501V16.237H71.4471V10.8484C71.4471 9.98519 71.2426 9.33144 70.8338 8.88715C70.4185 8.4492 69.8372 8.2334 69.077 8.2334C68.2146 8.2334 67.5374 8.48729 67.0391 9.0014C66.5408 9.51551 66.2917 10.2581 66.2917 11.2229V16.237H63.9535V6.3166H66.1767V7.5987C66.56 7.14171 67.0519 6.79262 67.6332 6.55778C68.2209 6.32294 68.8789 6.20235 69.62 6.20235ZM81.2531 6.20235C82.7225 6.20235 83.8468 6.55778 84.6262 7.25596C85.4055 7.95413 85.7952 9.00774 85.7952 10.4231V16.237H83.5913V15.0311C83.3038 15.4627 82.8949 15.7927 82.3647 16.0212C81.8345 16.2561 81.1956 16.3703 80.4482 16.3703C79.7008 16.3703 79.0428 16.2434 78.4806 15.9895C77.9248 15.7356 77.4904 15.3802 77.1838 14.9295C76.8771 14.4789 76.7238 13.9648 76.7238 13.3936C76.7238 12.505 77.056 11.7878 77.7268 11.2483C78.3912 10.7088 79.4452 10.4422 80.8762 10.4422H83.4571V10.2898C83.4571 9.59802 83.2463 9.06487 82.8311 8.69674C82.4158 8.32226 81.7961 8.1382 80.972 8.1382C80.4099 8.1382 79.8605 8.22706 79.3175 8.39843C78.7745 8.5698 78.3145 8.81099 77.944 9.12199L77.0241 7.43368C77.5479 7.03381 78.1804 6.72915 78.915 6.5197C79.6497 6.31025 80.429 6.20235 81.2531 6.20235ZM80.9337 14.6757C81.5214 14.6757 82.0389 14.5424 82.4925 14.2758C82.9524 14.0092 83.2718 13.6284 83.4571 13.1333V11.9845H81.0423C79.7008 11.9845 79.0236 12.4225 79.0236 13.3047C79.0236 13.7236 79.1961 14.06 79.5283 14.3075C79.8669 14.5551 80.3332 14.6757 80.9337 14.6757ZM52.314 23.0538L48.0338 32.9742H45.619L41.3389 23.0538H43.7664L46.8712 30.41L50.0717 23.0538H52.314ZM54.4477 23.0538H56.7858V32.9742H54.4477V23.0538ZM55.6296 21.4226C55.2015 21.4226 54.8502 21.2893 54.5627 21.0227C54.2752 20.7561 54.1283 20.4261 54.1283 20.0262C54.1283 19.6327 54.2752 19.2963 54.5627 19.0297C54.8502 18.7695 55.2015 18.6362 55.6296 18.6362C56.0512 18.6362 56.4089 18.7632 56.69 19.017C56.9775 19.2709 57.1244 19.5883 57.1244 19.9691C57.1244 20.3817 56.9839 20.7244 56.7028 21.0037C56.4217 21.2829 56.064 21.4226 55.6296 21.4226ZM69.9139 28.0743C69.9139 28.233 69.9011 28.4615 69.8819 28.7598H62.0434C62.184 29.4897 62.5417 30.0673 63.1167 30.4989C63.698 30.9241 64.4199 31.1399 65.2759 31.1399C66.3747 31.1399 67.2819 30.7781 67.991 30.0609L69.2431 31.489C68.7959 32.0222 68.2273 32.4284 67.5438 32.6949C66.8538 32.9679 66.0809 33.1075 65.2248 33.1075C64.126 33.1075 63.1614 32.8917 62.3245 32.4538C61.4877 32.0222 60.8424 31.4192 60.3889 30.6448C59.9353 29.8705 59.7053 28.9946 59.7053 28.0172C59.7053 27.0524 59.9289 26.1765 60.3697 25.4085C60.8105 24.6342 61.4238 24.0249 62.2095 23.5933C62.9953 23.1617 63.8833 22.9459 64.8671 22.9459C65.8381 22.9459 66.7069 23.1553 67.4735 23.5869C68.2401 24.0122 68.8406 24.6151 69.2686 25.3895C69.703 26.1638 69.9139 27.0588 69.9139 28.0743ZM64.8671 24.7992C64.1196 24.7992 63.4872 25.0214 62.9697 25.4593C62.4523 25.9036 62.1393 26.4875 62.0243 27.2174H67.6907C67.5885 26.5002 67.2883 25.9163 66.7772 25.472C66.2661 25.0214 65.6273 24.7992 64.8671 24.7992ZM88.2292 23.0538L84.5431 32.9742H82.3008L79.7199 26.1384L77.1007 32.9742H74.8584L71.1915 23.0538H73.3955L76.0339 30.3783L78.7809 23.0538H80.7485L83.4379 30.41L86.153 23.0538H88.2292Z" fill="#F8F9FA"/>
</g>
<defs>
<clipPath id="clip0">
<rect width="88.2292" height="35" fill="white"/>
</clipPath>
</defs>
</svg>
