<svg width="650" height="225" viewBox="0 0 650 225" fill="none" xmlns="http://www.w3.org/2000/svg">
<path d="M109 104.375V2H145.773C158.945 2 168.953 4.41406 175.797 9.24219C182.688 14.0703 186.133 21.0781 186.133 30.2656C186.133 35.5625 184.914 40.0859 182.477 43.8359C180.039 47.5859 176.453 50.3516 171.719 52.1328C177.062 53.5391 181.164 56.1641 184.023 60.0078C186.883 63.8516 188.312 68.5391 188.312 74.0703C188.312 84.1016 185.125 91.6484 178.75 96.7109C172.422 101.727 163.023 104.281 150.555 104.375H109ZM133.68 60.8516V85.3906H149.852C154.305 85.3906 157.727 84.3828 160.117 82.3672C162.508 80.3047 163.703 77.4219 163.703 73.7188C163.703 65.1875 159.461 60.8984 150.977 60.8516H133.68ZM133.68 44.6797H146.547C151.938 44.6328 155.781 43.6484 158.078 41.7266C160.375 39.8047 161.523 36.9688 161.523 33.2188C161.523 28.9062 160.281 25.8125 157.797 23.9375C155.312 22.0156 151.305 21.0547 145.773 21.0547H133.68V44.6797Z" fill="#F8F9FA"/>
<path d="M257.272 68.2344H243.913V104.375H219.233V2H259.522C271.663 2 281.155 4.69531 287.999 10.0859C294.842 15.4766 298.264 23.0938 298.264 32.9375C298.264 40.0625 296.811 45.9688 293.905 50.6562C291.046 55.3438 286.546 59.1406 280.405 62.0469L301.78 103.32V104.375H275.342L257.272 68.2344ZM243.913 49.1797H259.522C264.21 49.1797 267.725 47.9609 270.069 45.5234C272.46 43.0391 273.655 39.5938 273.655 35.1875C273.655 30.7812 272.46 27.3359 270.069 24.8516C267.678 22.3203 264.163 21.0547 259.522 21.0547H243.913V49.1797Z" fill="#F8F9FA"/>
<path d="M388.599 85.25H354.779L348.872 104.375H322.505L360.052 2H383.255L421.083 104.375H394.576L388.599 85.25ZM360.685 66.1953H382.693L371.654 30.6875L360.685 66.1953Z" fill="#F8F9FA"/>
<path d="M531.387 104.375H506.848L470.567 40.6719V104.375H445.887V2H470.567L506.777 65.7031V2H531.387V104.375Z" fill="#F8F9FA"/>
<path d="M109 222.375V120H141.977C151.023 120 159.156 122.062 166.375 126.188C173.594 130.266 179.219 136.055 183.25 143.555C187.328 151.008 189.391 159.375 189.438 168.656V173.367C189.438 182.742 187.445 191.156 183.461 198.609C179.523 206.016 173.945 211.828 166.727 216.047C159.555 220.219 151.539 222.328 142.68 222.375H109ZM133.68 139.055V203.391H142.258C149.336 203.391 154.773 200.883 158.57 195.867C162.367 190.805 164.266 183.305 164.266 173.367V168.938C164.266 159.047 162.367 151.594 158.57 146.578C154.773 141.562 149.242 139.055 141.977 139.055H133.68Z" fill="#F8F9FA"/>
<path d="M245.671 222.375H221.061V120H245.671V222.375Z" fill="#F8F9FA"/>
<path d="M365.607 222.375H341.068L304.787 158.672V222.375H280.107V120H304.787L340.997 183.703V120H365.607V222.375Z" fill="#F8F9FA"/>
<path d="M482.309 209.719C478.512 213.938 472.957 217.336 465.645 219.914C458.332 222.492 450.317 223.781 441.598 223.781C428.192 223.781 417.481 219.68 409.465 211.477C401.449 203.273 397.16 191.859 396.598 177.234L396.527 168.375C396.527 158.297 398.309 149.508 401.871 142.008C405.434 134.461 410.52 128.672 417.129 124.641C423.785 120.562 431.473 118.523 440.192 118.523C452.942 118.523 462.832 121.453 469.863 127.312C476.942 133.125 481.067 141.82 482.238 153.398H458.473C457.629 147.68 455.801 143.602 452.988 141.164C450.176 138.727 446.192 137.508 441.035 137.508C434.848 137.508 430.067 140.133 426.692 145.383C423.317 150.633 421.606 158.133 421.559 167.883V174.07C421.559 184.289 423.293 191.977 426.762 197.133C430.277 202.242 435.785 204.797 443.285 204.797C449.707 204.797 454.488 203.367 457.629 200.508V184.617H440.473V167.672H482.309V209.719Z" fill="#F8F9FA"/>
<path d="M527.503 199.383C531.253 199.383 534.37 200.508 536.854 202.758C539.339 204.961 540.581 207.797 540.581 211.266C540.581 214.734 539.339 217.594 536.854 219.844C534.37 222.047 531.253 223.148 527.503 223.148C523.706 223.148 520.565 222.023 518.081 219.773C515.643 217.523 514.425 214.688 514.425 211.266C514.425 207.844 515.643 205.008 518.081 202.758C520.565 200.508 523.706 199.383 527.503 199.383Z" fill="#F8F9FA"/>
</svg>
