<svg width="1440" height="1018" viewBox="0 0 1440 1018" fill="none" xmlns="http://www.w3.org/2000/svg">
<path fill-rule="evenodd" clip-rule="evenodd" d="M0 -6H1440V95.1358C1423.88 83.134 1407.07 72.0544 1389.71 61.8187C1376.94 54.2795 1363.88 47.198 1350.57 40.543C1338.72 34.6214 1289.17 10 1276.4 10H485.752L485.752 10.0174L485.752 352.206L485.752 352.224C534.368 324.486 589.841 302.981 649.054 286.151V286.134V173.329H1244.61C1259.57 173.329 1319.71 210.729 1329.69 217.897C1380.86 252.115 1416.95 297.86 1440 354.101V619.479C1414.96 681.159 1375.14 736.22 1328.75 782.613C1328.17 783.198 1327.57 783.796 1326.98 784.407L1325.64 785.747H1325.67C1323.5 787.982 1321.24 790.354 1318.95 792.773L1318.94 792.779C1310.31 801.871 1301.04 811.622 1293.22 817.208C1287.27 822.114 1280.48 828.071 1273.33 834.34C1261.42 844.798 1248.51 856.124 1236.82 864.893L1175.42 910.395C1138.65 934.082 1101.25 954.963 1061.67 970.546C936.079 1023.22 806.434 1032.88 675.855 989.558C646.249 979.585 620.382 970.546 593.581 956.833C590.04 954.97 587.28 953.886 584.3 952.717L584.299 952.716C582.295 951.93 580.193 951.104 577.687 949.977C575.978 949.077 574.529 948.359 573.189 947.696C569.887 946.061 567.252 944.756 563.04 941.873C562.589 941.66 562.149 941.452 561.719 941.248L560.919 940.87L560.917 940.869C556.085 938.586 552.333 936.812 547.146 934.082C533.304 926.231 521.243 918.791 508.966 911.218L508.962 911.215C502.719 907.364 496.42 903.479 489.803 899.487C452.094 875.801 417.501 848.063 382.909 820.325C377.009 815.84 355.024 797.773 342.128 785.747H342.395L333.405 776.757L333.364 776.701C336.747 772.786 341.756 768.87 346.764 764.955C350.523 762.016 354.282 759.078 357.354 756.139L369.196 745.231C372.781 742.99 375.239 740.911 378.19 738.413L378.19 738.412C379.344 737.436 380.573 736.396 381.974 735.258C389.114 729.771 396.2 724.23 403.288 718.686C425.591 701.245 447.918 683.784 472.039 667.939L600.437 594.698C604.585 593.039 608.699 591.368 612.799 589.703L612.81 589.699C630.267 582.61 647.462 575.628 665.882 570.076C756.883 541.403 835.106 534.235 931.092 550.13C1016.17 564.155 1093.15 603.736 1167.63 647.057C1184.15 657.03 1200.04 667.939 1216.87 679.782C1219.36 681.34 1225.83 685.781 1232.3 690.223C1238.76 694.664 1245.23 699.105 1247.72 700.663C1290.11 671.055 1322.83 625.552 1347.45 571.946L1347.44 571.942L1347.45 571.929C1291.98 529.543 1233.7 492.767 1170.44 461.289C961.634 356.258 754.078 349.401 541.224 442.277C528.139 447.608 516.184 453.693 504.188 459.8L504.188 459.8C500.756 461.547 497.32 463.295 493.854 465.028C465.927 479.392 442.994 493.074 417.305 508.401L417.242 508.438L417.153 508.491L417.038 508.56C412.713 511.14 408.309 513.768 403.789 516.453C403.215 516.803 402.642 517.155 402.071 517.506C377.542 532.366 355.53 548.72 332.798 565.851C329.728 568.156 326.645 570.478 323.541 572.816L323.54 572.816L323.537 572.818L323.536 572.819L323.52 572.832L323.503 572.844C322.531 573.576 321.556 574.31 320.58 575.046C307.802 584.707 295.025 594.68 281.936 605.589C278.579 608.21 275.222 610.858 271.872 613.532C252.957 628.569 234.265 644.286 217.058 660.866C216.881 661.034 216.704 661.202 216.527 661.371C216.307 661.58 216.087 661.79 215.867 662L189.065 686.621C185.331 689.847 182.151 693.072 178.921 696.348L178.921 696.349C176.222 699.087 173.488 701.86 170.367 704.698C165.759 709.542 155.237 719.494 143.626 730.477C124.612 748.462 102.676 769.21 99 774.822L99.0056 774.831L99 774.839C99.9349 776.709 103.051 780.761 108.038 785.747H108.416C125.696 804.446 160.606 839.548 169.12 848.063C173.961 852.788 178.63 857.13 183.193 861.372C190.968 868.601 198.431 875.54 205.894 883.592C207.831 885.265 209.694 886.789 211.503 888.269L211.504 888.27L211.505 888.271C216.098 892.028 220.345 895.503 224.593 900.422C239.052 914.882 255.575 928.102 271.811 941.093L271.818 941.099C275.526 944.066 279.22 947.021 282.871 949.977L375.1 1018H0V-6ZM1406.97 935.952C1415.36 928.942 1427.23 917.301 1440 903.937V1018H1306.94C1310.91 1015.09 1314.85 1012.15 1318.78 1009.19L1406.97 935.952Z" fill="#2C2C31"/>
</svg>
