<svg width="650" height="225" viewBox="0 0 650 225" fill="none" xmlns="http://www.w3.org/2000/svg">
<path d="M26.345 104.971H1.69059V2.40882H26.345V104.971Z" fill="#F8F9FA"/>
<path d="M85.5691 85.952H128.609V104.971H60.8442V2.40882H85.5691V85.952Z" fill="#F8F9FA"/>
<path d="M181.07 85.952H224.11V104.971H156.346V2.40882H181.07V85.952Z" fill="#F8F9FA"/>
<path d="M330.6 2.40882V69.5392C330.6 77.1469 328.98 83.7449 325.74 89.3332C322.499 94.8746 317.85 99.101 311.792 102.013C305.734 104.924 298.573 106.38 290.308 106.38C277.816 106.38 267.978 103.14 260.793 96.6591C253.608 90.1785 249.945 81.3029 249.804 70.0323V2.40882H274.67V70.5254C274.952 81.749 280.164 87.3609 290.308 87.3609C295.426 87.3609 299.301 85.952 301.931 83.1344C304.56 80.3167 305.875 75.7381 305.875 69.3984V2.40882H330.6Z" fill="#F8F9FA"/>
<path d="M416.31 77.7104C416.31 74.0944 415.019 71.2768 412.436 69.2575C409.9 67.2382 405.415 65.1484 398.982 62.9882C392.548 60.828 387.288 58.7383 383.203 56.719C369.913 50.1914 363.268 41.2219 363.268 29.8104C363.268 24.1282 364.911 19.1269 368.199 14.8065C371.533 10.4391 376.229 7.05794 382.287 4.66294C388.345 2.22098 395.154 1 402.715 1C410.088 1 416.686 2.3149 422.509 4.9447C428.379 7.57451 432.934 11.3314 436.174 16.2153C439.415 21.0522 441.035 26.5936 441.035 32.8394H416.38C416.38 28.6599 415.089 25.4196 412.506 23.1185C409.97 20.8174 406.519 19.6669 402.151 19.6669C397.737 19.6669 394.238 20.6531 391.656 22.6254C389.12 24.5508 387.852 27.0163 387.852 30.0218C387.852 32.6516 389.261 35.0466 392.078 37.2068C394.896 39.32 399.85 41.5271 406.941 43.8282C414.032 46.0823 419.856 48.5243 424.411 51.1541C435.494 57.5408 441.035 66.3459 441.035 77.5695C441.035 86.539 437.654 93.5832 430.891 98.7019C424.129 103.821 414.854 106.38 403.067 106.38C394.755 106.38 387.218 104.901 380.455 101.942C373.74 98.9367 368.668 94.8511 365.24 89.6854C361.859 84.4728 360.168 78.4853 360.168 71.7229H384.964C384.964 77.2173 386.373 81.2794 389.19 83.9092C392.055 86.4921 396.68 87.7835 403.067 87.7835C407.153 87.7835 410.369 86.9147 412.718 85.1772C415.113 83.3927 416.31 80.9037 416.31 77.7104Z" fill="#F8F9FA"/>
<path d="M551.54 21.4984H520.757V104.971H496.033V21.4984H465.813V2.40882H551.54V21.4984Z" fill="#F8F9FA"/>
<path d="M38.1087 186.98H24.7248V223.187H0V120.625H40.3628C52.5256 120.625 62.0352 123.325 68.8914 128.725C75.7477 134.126 79.1759 141.757 79.1759 151.619C79.1759 158.757 77.7201 164.674 74.8085 169.37C71.9439 174.066 67.4357 177.87 61.2838 180.781L82.6979 222.13V223.187H56.212L38.1087 186.98ZM24.7248 167.891H40.3628C45.0589 167.891 48.5809 166.67 50.929 164.228C53.324 161.739 54.5215 158.287 54.5215 153.873C54.5215 149.459 53.324 146.007 50.929 143.518C48.534 140.982 45.0119 139.714 40.3628 139.714H24.7248V167.891Z" fill="#F8F9FA"/>
<path d="M169.676 204.027H135.794L129.877 223.187H103.461L141.077 120.625H164.322L202.22 223.187H175.663L169.676 204.027ZM141.711 184.938H163.759L152.7 149.365L141.711 184.938Z" fill="#F8F9FA"/>
<path d="M299.13 139.714H268.347V223.187H243.622V139.714H213.403V120.625H299.13V139.714Z" fill="#F8F9FA"/>
<path d="M353.282 223.187H328.628V120.625H353.282V223.187Z" fill="#F8F9FA"/>
<path d="M474.635 174.019C474.635 184.022 472.78 192.874 469.07 200.575C465.361 208.277 460.077 214.218 453.221 218.397C446.412 222.53 438.64 224.596 429.905 224.596C421.17 224.596 413.422 222.6 406.66 218.608C399.897 214.57 394.614 208.817 390.81 201.35C387.053 193.884 385.081 185.313 384.893 175.639V169.863C384.893 159.813 386.725 150.961 390.388 143.307C394.098 135.605 399.381 129.665 406.237 125.485C413.14 121.306 420.983 119.216 429.764 119.216C438.452 119.216 446.201 121.282 453.01 125.415C459.819 129.547 465.102 135.441 468.859 143.095C472.663 150.703 474.588 159.438 474.635 169.3V174.019ZM449.488 169.722C449.488 159.532 447.774 151.807 444.346 146.547C440.964 141.241 436.104 138.587 429.764 138.587C417.367 138.587 410.816 147.885 410.111 166.482L410.041 174.019C410.041 184.069 411.708 191.794 415.042 197.194C418.376 202.595 423.331 205.295 429.905 205.295C436.151 205.295 440.964 202.642 444.346 197.335C447.727 192.029 449.441 184.397 449.488 174.442V169.722Z" fill="#F8F9FA"/>
<path d="M590.353 223.187H565.769L529.422 159.367V223.187H504.697V120.625H529.422L565.699 184.444V120.625H590.353V223.187Z" fill="#F8F9FA"/>
<path d="M636.898 200.153C640.655 200.153 643.778 201.28 646.267 203.534C648.756 205.741 650 208.582 650 212.057C650 215.532 648.756 218.397 646.267 220.651C643.778 222.858 640.655 223.962 636.898 223.962C633.094 223.962 629.948 222.835 627.459 220.581C625.017 218.327 623.796 215.485 623.796 212.057C623.796 208.629 625.017 205.788 627.459 203.534C629.948 201.28 633.094 200.153 636.898 200.153Z" fill="#F8F9FA"/>
</svg>
