<svg width="650" height="225" viewBox="0 0 650 225" fill="none" xmlns="http://www.w3.org/2000/svg">
<path d="M85.5703 66.1953L97.3125 2H121.781L100.055 104.375H74.4609L60.75 46.0156L47.3203 104.375H21.7969L0 2H24.5391L36.2812 66.1953L50.3438 2H71.2969L85.5703 66.1953Z" fill="#F8F9FA"/>
<path d="M212.186 60.9922H173.374V85.3906H219.217V104.375H148.694V2H219.358V21.0547H173.374V42.6406H212.186V60.9922Z" fill="#F8F9FA"/>
<path d="M246.552 104.375V2H283.326C296.497 2 306.505 4.41406 313.349 9.24219C320.24 14.0703 323.685 21.0781 323.685 30.2656C323.685 35.5625 322.466 40.0859 320.029 43.8359C317.591 47.5859 314.005 50.3516 309.271 52.1328C314.615 53.5391 318.716 56.1641 321.576 60.0078C324.435 63.8516 325.865 68.5391 325.865 74.0703C325.865 84.1016 322.677 91.6484 316.302 96.7109C309.974 101.727 300.576 104.281 288.107 104.375H246.552ZM271.232 60.8516V85.3906H287.404C291.857 85.3906 295.279 84.3828 297.669 82.3672C300.06 80.3047 301.255 77.4219 301.255 73.7188C301.255 65.1875 297.013 60.8984 288.529 60.8516H271.232ZM271.232 44.6797H284.099C289.49 44.6328 293.333 43.6484 295.63 41.7266C297.927 39.8047 299.076 36.9688 299.076 33.2188C299.076 28.9062 297.833 25.8125 295.349 23.9375C292.865 22.0156 288.857 21.0547 283.326 21.0547H271.232V44.6797Z" fill="#F8F9FA"/>
<path d="M6.25781 222.375V120H39.2344C48.2812 120 56.4141 122.062 63.6328 126.188C70.8516 130.266 76.4766 136.055 80.5078 143.555C84.5859 151.008 86.6484 159.375 86.6953 168.656V173.367C86.6953 182.742 84.7031 191.156 80.7188 198.609C76.7812 206.016 71.2031 211.828 63.9844 216.047C56.8125 220.219 48.7969 222.328 39.9375 222.375H6.25781ZM30.9375 139.055V203.391H39.5156C46.5938 203.391 52.0312 200.883 55.8281 195.867C59.625 190.805 61.5234 183.305 61.5234 173.367V168.938C61.5234 159.047 59.625 151.594 55.8281 146.578C52.0312 141.562 46.5 139.055 39.2344 139.055H30.9375Z" fill="#F8F9FA"/>
<path d="M180.124 178.992H141.311V203.391H187.155V222.375H116.632V120H187.296V139.055H141.311V160.641H180.124V178.992Z" fill="#F8F9FA"/>
<path d="M267.294 195.164C267.294 191.555 266.005 188.742 263.427 186.727C260.896 184.711 256.419 182.625 249.997 180.469C243.576 178.312 238.326 176.227 234.247 174.211C220.982 167.695 214.349 158.742 214.349 147.352C214.349 141.68 215.99 136.688 219.271 132.375C222.599 128.016 227.287 124.641 233.333 122.25C239.38 119.812 246.177 118.594 253.724 118.594C261.083 118.594 267.669 119.906 273.482 122.531C279.341 125.156 283.888 128.906 287.122 133.781C290.357 138.609 291.974 144.141 291.974 150.375H267.365C267.365 146.203 266.076 142.969 263.497 140.672C260.966 138.375 257.521 137.227 253.162 137.227C248.755 137.227 245.263 138.211 242.685 140.18C240.154 142.102 238.888 144.562 238.888 147.562C238.888 150.188 240.294 152.578 243.107 154.734C245.919 156.844 250.865 159.047 257.943 161.344C265.021 163.594 270.833 166.031 275.38 168.656C286.443 175.031 291.974 183.82 291.974 195.023C291.974 203.977 288.599 211.008 281.849 216.117C275.099 221.227 265.841 223.781 254.076 223.781C245.779 223.781 238.255 222.305 231.505 219.352C224.802 216.352 219.74 212.273 216.318 207.117C212.943 201.914 211.255 195.938 211.255 189.188H236.005C236.005 194.672 237.412 198.727 240.224 201.352C243.083 203.93 247.701 205.219 254.076 205.219C258.154 205.219 261.365 204.352 263.708 202.617C266.099 200.836 267.294 198.352 267.294 195.164Z" fill="#F8F9FA"/>
<path d="M348.207 222.375H323.598V120H348.207V222.375Z" fill="#F8F9FA"/>
<path d="M466.456 209.719C462.659 213.938 457.104 217.336 449.792 219.914C442.479 222.492 434.464 223.781 425.745 223.781C412.339 223.781 401.628 219.68 393.612 211.477C385.597 203.273 381.307 191.859 380.745 177.234L380.675 168.375C380.675 158.297 382.456 149.508 386.018 142.008C389.581 134.461 394.667 128.672 401.276 124.641C407.932 120.562 415.62 118.523 424.339 118.523C437.089 118.523 446.979 121.453 454.011 127.312C461.089 133.125 465.214 141.82 466.386 153.398H442.62C441.776 147.68 439.948 143.602 437.136 141.164C434.323 138.727 430.339 137.508 425.182 137.508C418.995 137.508 414.214 140.133 410.839 145.383C407.464 150.633 405.753 158.133 405.706 167.883V174.07C405.706 184.289 407.44 191.977 410.909 197.133C414.425 202.242 419.932 204.797 427.432 204.797C433.854 204.797 438.636 203.367 441.776 200.508V184.617H424.62V167.672H466.456V209.719Z" fill="#F8F9FA"/>
<path d="M583.58 222.375H559.041L522.759 158.672V222.375H498.08V120H522.759L558.97 183.703V120H583.58V222.375Z" fill="#F8F9FA"/>
<path d="M630.039 199.383C633.789 199.383 636.907 200.508 639.391 202.758C641.875 204.961 643.117 207.797 643.117 211.266C643.117 214.734 641.875 217.594 639.391 219.844C636.907 222.047 633.789 223.148 630.039 223.148C626.242 223.148 623.102 222.023 620.617 219.773C618.18 217.523 616.961 214.688 616.961 211.266C616.961 207.844 618.18 205.008 620.617 202.758C623.102 200.508 626.242 199.383 630.039 199.383Z" fill="#F8F9FA"/>
</svg>
