<svg width="74" height="21" viewBox="0 0 74 21" fill="none" xmlns="http://www.w3.org/2000/svg">
<g clip-path="url(#clip0)">
<path fill-rule="evenodd" clip-rule="evenodd" d="M50.5738 16.0686L53.0109 19.5496L48.0719 19.5311L50.5738 16.0686ZM68.4393 3.92663H73.054L70.8022 15.066L68.4393 3.92663ZM70.7466 19.5125C70.1814 19.5125 69.7181 19.3268 69.3474 18.9648C68.9768 18.6028 68.7914 18.1572 68.7914 17.6281C68.7914 17.099 68.9768 16.6534 69.3474 16.3006C69.7181 15.9479 70.1814 15.7715 70.7466 15.7715C71.2934 15.7715 71.7474 15.9479 72.1088 16.3006C72.4702 16.6534 72.6462 17.099 72.6462 17.6281C72.6462 18.1572 72.4702 18.6028 72.1088 18.9648C71.7474 19.3268 71.2934 19.5125 70.7466 19.5125ZM0.776489 19.8467V16.3656C2.4259 16.3656 9.90384 17.0247 9.90384 15.1496C9.90384 14.704 9.66291 14.3791 9.18106 14.1656C8.69921 13.9428 7.93011 13.72 6.86448 13.4879C5.69692 13.228 4.71468 12.9588 3.92705 12.6711C3.14867 12.3833 2.47223 11.9191 1.90698 11.2786C1.351 10.6474 1.06375 9.78409 1.06375 8.698C1.06375 7.75116 1.3232 6.89714 1.84212 6.13595C2.36103 5.36547 3.13941 4.76209 4.16797 4.31651C6.44749 3.33253 11.3865 3.6203 13.6752 3.6203V7.10136H12.7208C12.0907 7.10136 6.9942 6.83216 6.02124 7.46339C5.62279 7.72331 5.41893 8.06677 5.41893 8.4845C5.41893 8.89294 5.65985 9.20856 6.13243 9.41278C6.60502 9.617 7.36486 9.83979 8.41195 10.0626C9.59805 10.3132 10.5803 10.5824 11.3587 10.8702C12.137 11.158 12.8042 11.6221 13.3787 12.2533C13.944 12.8753 14.2312 13.7386 14.2312 14.8154C14.2312 15.7529 13.9718 16.5977 13.4528 17.3496C12.9339 18.1108 12.1556 18.7142 11.127 19.169C8.81967 20.1716 3.15794 19.8467 0.776489 19.8467ZM61.6656 0L58.7653 3.9452L60.9336 3.95448C62.3513 3.95448 63.5745 4.18655 64.6123 4.65069C65.6501 5.12412 66.4471 5.79248 67.0123 6.66507C67.5776 7.52837 67.8555 8.54948 67.8555 9.7284C67.8555 10.898 67.5776 11.9191 67.0123 12.7732C66.4471 13.6365 65.6501 14.3048 64.6123 14.769C63.5745 15.2424 62.3513 15.4745 60.9336 15.4745H58.2278V19.5496H53.817V10.9537L57.0695 6.24734H51.556L47.9422 8.47522C47.8402 8.30813 47.7198 8.1596 47.5623 8.02964C47.1082 7.63048 46.4225 7.42626 45.5237 7.42626H43.0773V11.4921L38.6666 14.212V3.95448H45.7831C47.1916 3.95448 48.4148 4.18655 49.4526 4.65069C50.3236 5.04057 51.0186 5.56969 51.556 6.23806L61.6656 0ZM60.6741 11.9934C61.573 11.9934 62.2587 11.7985 62.722 11.4086C63.176 11.0094 63.4077 10.4525 63.4077 9.7284C63.4077 8.99505 63.176 8.4288 62.722 8.02964C62.2587 7.63048 61.573 7.42626 60.6741 7.42626H58.2278V11.9934H60.6741ZM32.1431 3.95448H36.5538V15.5209L32.1431 18.2407V3.95448ZM30.0489 3.95448V19.5403L30.0303 19.5496H25.6474V13.4694H19.6428V19.5496H15.2412V3.95448H19.6428V9.81194H25.6474V3.95448H30.0489Z" fill="#7E8390"/>
</g>
<defs>
<clipPath id="clip0">
<rect width="72.2815" height="20.1716" fill="white" transform="translate(0.772888)"/>
</clipPath>
</defs>
</svg>
