<svg width="46" height="41" viewBox="0 0 46 41" fill="none" xmlns="http://www.w3.org/2000/svg">
<g clip-path="url(#clip0)">
<path fill-rule="evenodd" clip-rule="evenodd" d="M9.4191 0.104004H11.3262C10.546 0.624112 10.6327 0.97085 10.2859 1.92438C10.1993 2.27112 9.85252 3.39802 9.4191 4.95834V0.104004ZM14.0134 0.104004H37.4182V6.3453C35.9446 5.82519 34.2109 5.99856 32.7373 6.43198C32.3905 6.51867 32.1305 6.69204 31.8704 6.69204C32.0438 5.39177 32.5639 4.17818 31.9571 2.87791C30.9169 0.537427 27.4495 0.710796 25.2824 1.75101C23.6354 2.53117 23.6354 2.87791 22.5952 3.65807C22.4218 3.22465 22.3351 2.87791 22.0751 2.53117C20.7748 0.537427 17.7408 0.797481 15.8338 1.75101C14.8802 2.18443 14.4468 2.61786 13.7533 3.05128C13.7533 2.53117 14.1868 1.57764 14.3601 0.97085C14.4468 0.624112 14.4468 0.624112 14.2734 0.364058C14.1868 0.277373 14.1001 0.190689 14.0134 0.104004ZM37.4182 11.2863V12.3265C37.2449 13.3668 36.6381 14.4937 35.8579 15.2738C34.9044 16.2273 33.8642 16.7475 32.1305 16.7475C31.437 16.7475 31.0036 16.6608 30.5701 16.4007C30.2234 16.2273 29.7033 15.8806 29.7033 15.5339C29.7033 15.1871 30.2234 13.1934 30.3968 12.5866C30.8302 10.6795 30.6568 10.5928 31.5237 9.98605C32.8239 9.03252 35.4245 8.68578 36.6381 9.81268C37.0715 10.1594 37.3315 10.6795 37.4182 11.2863ZM37.4182 17.5276V28.1031H26.6693L28.7498 19.4347C28.9231 19.4347 29.3566 19.608 29.5299 19.608C31.6104 20.2148 34.2109 19.608 35.9446 18.5678C36.4647 18.2211 36.9848 17.8744 37.4182 17.5276ZM22.8552 28.1031H9.4191V16.1407H9.76584C10.6327 14.1469 11.6729 8.42573 13.0599 6.51867C14.7069 4.00481 17.9142 3.65807 18.2609 5.7385C18.6077 7.64557 16.1805 13.8002 15.7471 16.1407H19.4745C20.5147 13.2801 21.1215 9.46594 22.5085 6.86541C23.0286 5.7385 24.5022 4.35155 26.2359 4.35155C28.6631 4.43824 27.9696 6.77872 27.5362 8.51241C26.6693 11.8064 25.9759 15.1871 25.109 18.5678C24.7623 20.2148 24.3289 21.9485 23.9821 23.5955C23.8087 24.2023 23.1153 26.8896 22.8552 28.1031Z" fill="#7E8390" stroke="#7E8390" stroke-width="0.134401"/>
<path d="M1.87753 40.1523H0.837311V35.5581H1.79084V36.3382C2.0509 35.9915 2.22426 35.8181 2.571 35.6447C2.83106 35.4714 3.09111 35.3847 3.43785 35.3847C3.78459 35.3847 4.13133 35.4714 4.39138 35.6447C4.56475 35.8181 4.73812 35.9915 4.91149 36.3382C5.08486 35.9915 5.34491 35.8181 5.69165 35.6447C5.9517 35.4714 6.21176 35.3847 6.5585 35.3847C6.90523 35.3847 7.16529 35.4714 7.33866 35.5581C7.59871 35.7314 7.77208 35.8181 7.85877 36.0782C7.94545 36.1648 8.03213 36.2515 8.03213 36.4249C8.03213 36.5983 8.03213 36.7716 8.03213 37.0317V37.3784V40.1523H6.99192V37.8119C6.99192 37.2051 6.99192 36.7716 6.81855 36.5983C6.73186 36.4249 6.47181 36.3382 6.12507 36.3382C5.69165 36.3382 5.4316 36.4249 5.25823 36.685C5.08486 36.945 4.99817 37.3784 4.99817 38.0719V40.1523H3.95796V37.8119C3.95796 37.2051 3.87127 36.8583 3.6979 36.5983C3.61122 36.4249 3.35116 36.3382 3.00443 36.3382C2.83106 36.3382 2.65769 36.3382 2.48432 36.4249C2.31095 36.5116 2.13758 36.685 2.0509 36.8583C1.96421 36.945 1.96421 37.0317 1.87753 37.2051C1.87753 37.3784 1.87753 37.6385 1.87753 38.0719V40.1523ZM9.3324 33.651C9.3324 33.4776 9.41909 33.3043 9.59246 33.1309C9.67914 33.0442 9.85251 32.9575 10.0259 32.9575C10.1993 32.9575 10.3726 33.0442 10.4593 33.1309C10.6327 33.3043 10.7194 33.3909 10.7194 33.651C10.7194 33.8244 10.6327 33.9977 10.4593 34.0844C10.3726 34.1711 10.1993 34.2578 10.0259 34.2578C9.85251 34.2578 9.67914 34.1711 9.59246 34.0844C9.41909 33.9111 9.3324 33.8244 9.3324 33.651ZM9.50577 40.1523V35.5581H10.546V40.1523H9.50577ZM12.0196 40.1523V35.5581H13.0598V36.3382C13.2332 35.9915 13.4933 35.8181 13.7533 35.6447C14.0134 35.4714 14.3601 35.4714 14.7935 35.4714C15.1403 35.4714 15.4003 35.4714 15.6604 35.5581C15.9204 35.7314 16.0938 35.8181 16.2672 36.0782C16.2672 36.1648 16.3539 36.3382 16.4405 36.5116C16.4405 36.685 16.4405 36.945 16.4405 37.3784V40.1523H15.4003V37.8119C15.4003 37.2051 15.3136 36.7716 15.1403 36.5983C15.0536 36.4249 14.7935 36.3382 14.3601 36.3382C14.1867 36.3382 13.9267 36.3382 13.7533 36.4249C13.58 36.5116 13.4066 36.685 13.3199 36.8583C13.2332 36.945 13.1465 37.1184 13.1465 37.2917C13.1465 37.4651 13.0598 37.7252 13.0598 38.0719V40.1523H12.0196ZM17.7408 33.651C17.7408 33.4776 17.8275 33.3043 17.9142 33.1309C18.0876 33.0442 18.2609 32.9575 18.4343 32.9575C18.6077 32.9575 18.781 33.0442 18.8677 33.1309C19.0411 33.3043 19.0411 33.3909 19.0411 33.651C19.0411 33.8244 19.0411 33.9977 18.8677 34.0844C18.781 34.1711 18.6077 34.2578 18.4343 34.2578C18.2609 34.2578 18.0876 34.1711 17.9142 34.0844C17.8275 33.9111 17.7408 33.8244 17.7408 33.651ZM17.9142 40.1523V35.5581H18.9544V40.1523H17.9142ZM22.2484 40.1523H20.428V33.1309H22.5085C23.2886 33.1309 23.8087 33.1309 24.1555 33.2176C24.4155 33.3043 24.6756 33.3909 24.9356 33.651C25.1957 33.8244 25.3691 34.0844 25.5424 34.4312C25.6291 34.7779 25.7158 35.1246 25.7158 35.4714C25.7158 35.9048 25.6291 36.2515 25.5424 36.5983C25.3691 36.945 25.1957 37.2051 24.9356 37.3784C24.7623 37.5518 24.5022 37.6385 24.2422 37.7252C23.9821 37.8119 23.5487 37.8119 22.9419 37.8119H22.5951H22.2484V40.1523ZM22.2484 36.2515H22.5951C23.1153 36.2515 23.3753 36.2515 23.5487 36.0782C23.8087 35.9915 23.8954 35.7314 23.8954 35.4714C23.8954 35.1246 23.8087 34.9513 23.6354 34.7779C23.3753 34.6912 23.1153 34.6045 22.6818 34.6045H22.2484V36.2515ZM33.9508 36.5983C33.9508 37.1184 33.8642 37.6385 33.6908 38.0719C33.4307 38.5053 33.1707 38.9388 32.8239 39.2855C32.4772 39.6322 32.0438 39.8923 31.6104 40.0657C31.1769 40.239 30.6568 40.3257 30.1367 40.3257C29.7033 40.3257 29.1832 40.239 28.7498 40.0657C28.2297 39.8923 27.8829 39.6322 27.5362 39.2855C27.1894 38.9388 26.8427 38.5053 26.6693 38.0719C26.496 37.6385 26.4093 37.1184 26.4093 36.5983C26.4093 36.1648 26.496 35.6447 26.6693 35.2113C26.8427 34.7779 27.1894 34.3445 27.5362 33.9977C27.8829 33.651 28.2297 33.3909 28.7498 33.2176C29.1832 33.0442 29.7033 32.9575 30.1367 32.9575C30.6568 32.9575 31.1769 33.0442 31.6104 33.2176C32.0438 33.3909 32.4772 33.651 32.8239 33.9977C33.1707 34.3445 33.4307 34.7779 33.6908 35.2113C33.8642 35.6447 33.9508 36.1648 33.9508 36.5983ZM30.1367 38.6787C30.7435 38.6787 31.1769 38.5053 31.5237 38.1586C31.8704 37.7252 32.0438 37.2051 32.0438 36.5983C32.0438 36.0782 31.8704 35.5581 31.5237 35.1246C31.0902 34.7779 30.6568 34.6045 30.1367 34.6045C29.6166 34.6045 29.1832 34.7779 28.8364 35.1246C28.4897 35.5581 28.3163 36.0782 28.3163 36.5983C28.3163 37.2051 28.4897 37.7252 28.8364 38.1586C29.1832 38.5053 29.6166 38.6787 30.1367 38.6787ZM35.1644 40.1523V33.1309H37.1582C37.9383 33.1309 38.4584 33.1309 38.8052 33.2176C39.0652 33.3043 39.412 33.3909 39.5853 33.5643C39.8454 33.7377 40.0188 33.9977 40.1921 34.3445C40.2788 34.6045 40.3655 34.9513 40.3655 35.298C40.3655 35.8181 40.2788 36.2515 40.0188 36.5983C39.672 36.945 39.3253 37.2051 38.8052 37.2917L40.7122 40.1523H38.5451L36.9848 37.3784V40.1523H35.1644ZM36.9848 36.4249H37.3315C37.6783 36.4249 38.025 36.3382 38.1984 36.2515C38.3718 36.0782 38.4584 35.8181 38.4584 35.5581C38.4584 35.2113 38.3718 34.9513 38.1984 34.7779C38.025 34.6912 37.765 34.6045 37.3315 34.6045H36.9848V36.4249ZM42.4459 40.1523V34.7779H40.8856V33.1309H46V34.7779H44.4397V40.1523H42.4459Z" fill="#7E8390"/>
</g>
<defs>
<clipPath id="clip0">
<rect width="45.1627" height="40.3431" fill="white" transform="translate(0.837341)"/>
</clipPath>
</defs>
</svg>
