<svg width="67" height="41" viewBox="0 0 67 41" fill="none" xmlns="http://www.w3.org/2000/svg">
<g clip-path="url(#clip0)">
<path fill-rule="evenodd" clip-rule="evenodd" d="M39.8653 0.0158691C28.0763 0.0158691 18.3039 8.75254 16.9078 19.9416H18.459C20.0102 9.67219 29.007 1.70189 39.8653 1.70189C50.7235 1.70189 59.7204 9.67219 61.1164 19.9416H62.8227C61.4267 8.75254 51.6542 0.0158691 39.8653 0.0158691Z" fill="#7E8390"/>
<path d="M58.3243 23.1601V21.4741H66.0802V23.1601C63.4432 23.1601 60.9613 23.1601 58.3243 23.1601Z" fill="#7E8390"/>
<path d="M66.2353 30.2108V31.8969H58.3243V25.7659C60.651 25.7659 62.9778 25.7659 65.3046 25.7659V27.4519H60.3408V30.2108H66.2353Z" fill="#7E8390"/>
<path d="M51.6542 32.0503C50.5684 32.0503 49.6377 31.7437 48.707 31.2839C47.9314 30.8241 47.1558 30.211 46.6905 29.4446C46.2251 28.6782 46.07 27.7586 46.07 26.6857C46.07 25.766 46.2251 24.8464 46.6905 23.9267C47.3109 23.1603 47.9314 22.5472 48.707 22.0874C49.6377 21.6276 50.5684 21.321 51.6542 21.321C52.4298 21.321 53.2054 21.4743 53.981 21.7809C54.6015 22.0874 55.2219 22.5472 55.6873 23.1603L54.4464 24.2333C53.6708 23.4669 52.7401 23.0071 51.6542 23.0071C51.0338 23.0071 50.4133 23.1603 49.7928 23.4669C49.1724 23.9267 48.707 24.2333 48.3968 24.8464C48.0865 25.4595 47.9314 26.0726 47.9314 26.6857C47.9314 27.452 48.0865 28.0651 48.3968 28.525C48.707 29.1381 49.1724 29.5979 49.7928 29.9044C50.4133 30.211 51.0338 30.3643 51.6542 30.3643C52.7401 30.3643 53.6708 29.9044 54.4464 29.1381L55.6873 30.3643C55.2219 30.8241 54.6015 31.2839 53.981 31.5905C53.2054 31.897 52.4298 32.0503 51.6542 32.0503Z" fill="#7E8390"/>
<path d="M40.1755 21.4741H42.1921V31.8968H40.1755V21.4741Z" fill="#7E8390"/>
<path d="M34.5912 21.4741V31.8968H33.0401L27.1456 24.8462V31.8968H25.2842V21.4741H26.8354L32.5747 28.5248V21.4741H34.5912Z" fill="#7E8390"/>
<path d="M13.6504 23.1601V21.4741H21.2511V23.1601H13.6504Z" fill="#7E8390"/>
<path d="M21.5614 30.2108V31.8969H13.6504V25.7659C15.9771 25.7659 18.3039 25.7659 20.6307 25.7659V27.4519H15.6669V30.2108H21.5614Z" fill="#7E8390"/>
<path d="M11.0134 21.4741L6.51495 31.8968H4.49842L0 21.4741H2.17165L5.58424 29.4444L9.15195 21.4741H11.0134Z" fill="#7E8390"/>
<path d="M34.1259 40.3273C33.6606 40.3273 33.1952 40.3273 32.7299 40.174C32.2645 40.0207 31.9543 39.8675 31.644 39.5609L32.1094 38.6413C32.4196 38.7945 32.7299 38.9478 33.0401 39.1011C33.5055 39.1011 33.8157 39.2544 34.1259 39.2544C34.5913 39.2544 34.9015 39.1011 35.0566 39.1011C35.2118 38.9478 35.3669 38.7945 35.3669 38.6413C35.3669 38.488 35.2118 38.3347 35.0566 38.1814C35.0566 38.1814 34.9015 38.0282 34.7464 38.0282C34.5913 37.8749 34.281 37.8749 33.9708 37.8749C33.5055 37.7216 33.1952 37.5683 32.885 37.4151C32.5747 37.4151 32.2645 37.2618 32.1094 36.9552C31.9543 36.802 31.7992 36.3421 31.7992 36.0356C31.7992 35.729 31.9543 35.4225 32.1094 35.1159C32.2645 34.8094 32.5747 34.6561 32.885 34.3496C33.3503 34.1963 33.8157 34.1963 34.281 34.1963C34.7464 34.1963 35.0566 34.1963 35.522 34.3496C35.8322 34.3496 36.1425 34.5028 36.4527 34.6561L35.9873 35.729C35.3669 35.4225 34.9015 35.2692 34.281 35.2692C33.9708 35.2692 33.6606 35.2692 33.5055 35.4225C33.3503 35.5758 33.1952 35.729 33.1952 35.8823C33.1952 36.1889 33.3503 36.3421 33.5055 36.3421C33.6606 36.4954 34.1259 36.6487 34.4362 36.6487C34.9015 36.802 35.3669 36.9552 35.6771 36.9552C35.8322 37.1085 36.1425 37.2618 36.2976 37.5683C36.6078 37.7216 36.6078 38.0282 36.6078 38.488C36.6078 38.7945 36.6078 39.1011 36.4527 39.4076C36.1425 39.7142 35.9873 39.8675 35.522 40.0207C35.2118 40.174 34.7464 40.3273 34.1259 40.3273ZM38.7795 35.4225H36.918V34.1963H42.0369V35.4225H40.1755V40.174H38.7795V35.4225ZM45.7598 40.3273C44.9842 40.3273 44.5188 40.174 44.0535 39.8675C43.433 39.7142 43.1228 39.2544 42.8125 38.7945C42.5023 38.3347 42.3472 37.8749 42.3472 37.2618C42.3472 36.6487 42.5023 36.1889 42.8125 35.729C43.1228 35.2692 43.433 34.8094 44.0535 34.5028C44.5188 34.3496 44.9842 34.1963 45.7598 34.1963C46.3802 34.1963 46.8456 34.3496 47.3109 34.5028C47.9314 34.8094 48.2416 35.2692 48.5519 35.729C48.8621 36.1889 49.0172 36.6487 49.0172 37.2618C49.0172 37.8749 48.8621 38.3347 48.5519 38.7945C48.2416 39.2544 47.9314 39.7142 47.3109 39.8675C46.8456 40.174 46.3802 40.3273 45.7598 40.3273ZM45.7598 39.1011C46.07 39.1011 46.3802 39.1011 46.6905 38.9478C47.0007 38.7945 47.1558 38.488 47.3109 38.1814C47.4661 37.8749 47.6212 37.5683 47.6212 37.2618C47.6212 36.802 47.4661 36.4954 47.3109 36.1889C47.1558 36.0356 47.0007 35.729 46.6905 35.5758C46.3802 35.4225 46.07 35.2692 45.7598 35.2692C45.2944 35.2692 44.9842 35.4225 44.6739 35.5758C44.3637 35.729 44.2086 36.0356 44.0535 36.1889C43.8983 36.4954 43.7432 36.802 43.7432 37.2618C43.7432 37.5683 43.8983 37.8749 44.0535 38.1814C44.2086 38.488 44.3637 38.7945 44.6739 38.9478C44.9842 39.1011 45.2944 39.1011 45.7598 39.1011ZM53.8259 40.174L52.7401 38.488H52.5849H51.344V40.174H49.9479V34.1963H52.5849C53.2054 34.1963 53.6708 34.3496 53.981 34.5028C54.4464 34.6561 54.7566 34.9627 54.9117 35.2692C55.0668 35.5758 55.222 36.0356 55.222 36.4954C55.222 36.802 55.0668 37.2618 54.9117 37.5683C54.7566 37.8749 54.4464 38.1814 53.981 38.3347L55.3771 40.174H53.8259ZM53.8259 36.4954C53.8259 36.0356 53.6708 35.8823 53.5157 35.729C53.3605 35.4225 52.8952 35.4225 52.5849 35.4225H51.344V37.4151H52.5849C52.8952 37.4151 53.3605 37.4151 53.5157 37.2618C53.6708 36.9552 53.8259 36.802 53.8259 36.4954ZM60.9613 39.1011V40.174H56.3078V34.1963H60.8062V35.4225H57.7038V36.6487H60.496V37.7216H57.7038V39.1011H60.9613ZM64.0637 40.3273C63.5983 40.3273 63.133 40.3273 62.6676 40.174C62.2023 40.0207 61.892 39.8675 61.5818 39.5609L62.0471 38.6413C62.3574 38.7945 62.6676 38.9478 62.9778 39.1011C63.4432 39.1011 63.7534 39.2544 64.0637 39.2544C64.529 39.2544 64.8393 39.1011 64.9944 39.1011C65.1495 38.9478 65.3046 38.7945 65.3046 38.6413C65.3046 38.488 65.1495 38.3347 65.1495 38.1814C64.9944 38.1814 64.8393 38.0282 64.6841 38.0282C64.529 37.8749 64.2188 37.8749 63.9085 37.8749C63.4432 37.7216 63.133 37.5683 62.8227 37.4151C62.5125 37.4151 62.2023 37.2618 62.0471 36.9552C61.892 36.802 61.7369 36.3421 61.7369 36.0356C61.7369 35.729 61.892 35.4225 62.0471 35.1159C62.2023 34.8094 62.5125 34.6561 62.8227 34.3496C63.2881 34.1963 63.7534 34.1963 64.2188 34.1963C64.6841 34.1963 64.9944 34.1963 65.4597 34.3496C65.77 34.3496 66.0802 34.5028 66.3904 34.6561L65.9251 35.729C65.4597 35.4225 64.8393 35.2692 64.2188 35.2692C63.9085 35.2692 63.5983 35.2692 63.4432 35.4225C63.2881 35.5758 63.133 35.729 63.133 35.8823C63.133 36.1889 63.2881 36.3421 63.4432 36.3421C63.5983 36.4954 64.0637 36.6487 64.3739 36.6487C64.8393 36.802 65.3046 36.9552 65.6148 36.9552C65.9251 37.1085 66.0802 37.2618 66.3904 37.5683C66.5456 37.7216 66.7007 38.0282 66.7007 38.488C66.7007 38.7945 66.5456 39.1011 66.3904 39.4076C66.0802 39.7142 65.9251 39.8675 65.4597 40.0207C65.1495 40.174 64.6841 40.3273 64.0637 40.3273Z" fill="#7E8390"/>
</g>
<defs>
<clipPath id="clip0">
<rect width="66.7007" height="40.3431" fill="white"/>
</clipPath>
</defs>
</svg>
