<svg width="53" height="45" viewBox="0 0 53 45" fill="none" xmlns="http://www.w3.org/2000/svg">
<path fill-rule="evenodd" clip-rule="evenodd" d="M15.4565 10.3631H23.0767V29.7947C23.3307 29.6677 23.7117 28.9057 23.9657 28.6517L26.6328 24.9685C26.8868 25.2226 27.2678 25.8576 27.5219 26.2386L30.1889 29.7947C30.3159 29.2867 30.1889 15.5702 30.1889 14.3002C30.1889 9.72805 31.078 4.39388 25.6168 3.37784C23.7117 2.99683 17.6155 3.12384 15.4565 3.12384V10.3631Z" fill="#7E8390"/>
<path fill-rule="evenodd" clip-rule="evenodd" d="M32.094 10.3633C33.4911 10.3633 36.2852 10.3633 37.8092 10.3633V3.12402H28.5379C28.7919 3.37803 29.1729 3.50504 29.5539 3.63204C32.094 4.90208 31.967 7.82317 32.094 10.3633Z" fill="#7E8390"/>
<path fill-rule="evenodd" clip-rule="evenodd" d="M36.0943 41.6969L37.6184 41.8239V38.7758C38.7614 38.7758 38.8884 38.7758 39.6505 39.9188C39.7775 40.1728 40.0315 40.4268 40.2855 40.8078C40.4125 41.1889 40.6665 41.4429 40.9205 41.8239H42.5716C42.5716 41.5699 41.3015 39.6648 40.9205 39.1568C40.5395 38.7758 40.4125 38.7758 40.1585 38.5218C42.5716 38.1408 42.1905 35.8547 41.4285 35.0927C40.7935 34.3306 38.7614 34.4576 37.6184 34.4576C37.1104 34.4576 36.6024 34.4576 36.0943 34.4576V41.6969ZM37.6184 37.5057C37.8724 37.6327 39.1424 37.6327 39.5235 37.5057C40.0315 37.5057 40.5395 37.3787 40.5395 36.6167C40.5395 35.9817 40.1585 35.7277 39.5235 35.7277C39.1424 35.7277 37.8724 35.7277 37.6184 35.7277V37.5057Z" fill="#7E8390"/>
<path fill-rule="evenodd" clip-rule="evenodd" d="M21.1079 34.4575H19.5838C19.5838 34.8385 19.5838 37.6326 19.5838 38.2676C19.5838 39.6647 19.7108 40.6807 18.1868 40.6807C16.6627 40.5537 16.7897 39.2837 16.7897 38.2676C16.7897 37.6326 16.7897 34.8385 16.7897 34.4575H15.2657C15.2657 35.2195 15.2657 38.9027 15.3927 39.5377C15.5197 41.1887 16.4087 41.8238 18.1868 41.8238C19.8378 41.9508 20.8539 41.3157 21.1079 39.5377C21.1079 38.9027 21.1079 35.0925 21.1079 34.4575Z" fill="#7E8390"/>
<path fill-rule="evenodd" clip-rule="evenodd" d="M34.5703 34.4575H33.1732C33.0462 34.8385 33.0462 37.6326 33.0462 38.2676C33.0462 39.6647 33.1732 40.6807 31.6492 40.6807C30.1251 40.5537 30.2522 39.2837 30.2522 38.2676C30.2522 37.6326 30.2522 34.9655 30.2522 34.4575H28.8551C28.7281 35.0925 28.7281 38.9027 28.8551 39.5377C28.9821 41.3157 29.9981 41.8238 31.6492 41.8238C33.4273 41.9508 34.3163 41.3157 34.5703 39.6647C34.5703 39.2837 34.5703 34.9655 34.5703 34.4575Z" fill="#7E8390"/>
<path fill-rule="evenodd" clip-rule="evenodd" d="M22.1239 35.7276H24.283V41.6967L25.68 41.8238V35.7276H27.8391V34.4575H22.1239V35.7276Z" fill="#7E8390"/>
<path fill-rule="evenodd" clip-rule="evenodd" d="M43.4606 41.6973L44.7312 41.8244V40.4268H43.3336L43.4606 41.6973Z" fill="#7E8390"/>
<path fill-rule="evenodd" clip-rule="evenodd" d="M8.53447 35.7293H10.6935V41.6985L12.0906 41.8255V35.7293H14.2497V34.4592H8.53447V35.7293Z" fill="#7E8390"/>
</svg>
