<svg width="52" height="41" viewBox="0 0 52 41" fill="none" xmlns="http://www.w3.org/2000/svg">
<g clip-path="url(#clip0)">
<path fill-rule="evenodd" clip-rule="evenodd" d="M26.2742 0C29.5066 0 32.4028 1.45458 34.3337 3.75053C34.7985 4.81294 35.0631 5.98231 35.0631 7.20872V7.90035C34.8772 7.83618 34.6841 7.7934 34.4767 7.7934H33.8903V13.6188H34.4767C35.4421 13.6188 36.2288 12.8345 36.2288 11.8719V7.20872C36.2288 7.1588 36.2288 7.11602 36.2288 7.06611C36.6006 8.14278 36.8009 9.29789 36.8009 10.4958C36.8009 16.2998 32.0882 20.9987 26.2742 20.9987C20.453 20.9987 15.7403 16.2998 15.7403 10.4958C15.7403 9.32641 15.9334 8.19983 16.2909 7.15167C16.2909 7.17307 16.2909 7.18733 16.2909 7.20872V11.8719C16.2909 12.8345 17.0776 13.6188 18.043 13.6188H18.6223V7.7934H18.043C17.8356 7.7934 17.6425 7.83618 17.4566 7.90035V7.20872C17.4566 6.0037 17.7069 4.86285 18.1503 3.8147C20.0811 1.4831 23.006 0 26.2742 0ZM29.9428 9.05546C30.1573 9.05546 30.329 9.23372 30.329 9.4405V11.5582C30.329 11.765 30.1573 11.9432 29.9428 11.9432C29.7282 11.9432 29.5566 11.765 29.5566 11.5582V9.4405C29.5566 9.23372 29.7282 9.05546 29.9428 9.05546ZM22.6127 9.50467C22.8344 9.50467 23.0203 9.68293 23.0203 9.90396V11.0947C23.0203 11.3158 22.8344 11.494 22.6127 11.494C22.391 11.494 22.2122 11.3158 22.2122 11.0947V9.90396C22.2122 9.68293 22.391 9.50467 22.6127 9.50467ZM23.7426 7.91461C23.9714 7.91461 24.1502 8.09287 24.1502 8.31391V12.6848C24.1502 12.9058 23.9714 13.0841 23.7426 13.0841C23.5209 13.0841 23.3421 12.9058 23.3421 12.6848V8.31391C23.3421 8.09287 23.5209 7.91461 23.7426 7.91461ZM28.7843 7.9574C28.9917 7.9574 29.1633 8.12852 29.1633 8.3353V12.6634C29.1633 12.8702 28.9917 13.0413 28.7843 13.0413C28.5697 13.0413 28.3981 12.8702 28.3981 12.6634V8.3353C28.3981 8.12852 28.5697 7.9574 28.7843 7.9574ZM27.6115 9.05546C27.826 9.05546 27.9976 9.23372 27.9976 9.4405V11.5582C27.9976 11.765 27.826 11.9432 27.6115 11.9432C27.3969 11.9432 27.2253 11.765 27.2253 11.5582V9.4405C27.2253 9.23372 27.3969 9.05546 27.6115 9.05546ZM26.3743 7.97166C26.6103 7.97166 26.8034 8.16417 26.8034 8.39947V12.5992C26.8034 12.8345 26.6103 13.027 26.3743 13.027C26.1383 13.027 25.9381 12.8345 25.9381 12.5992V8.39947C25.9381 8.16417 26.1383 7.97166 26.3743 7.97166ZM25.0584 5.83257C25.323 5.83257 25.5376 6.04648 25.5376 6.30317V14.6955C25.5376 14.9522 25.323 15.1661 25.0584 15.1661C24.801 15.1661 24.5865 14.9522 24.5865 14.6955V6.30317C24.5865 6.04648 24.801 5.83257 25.0584 5.83257ZM32.0167 6.62403H31.4303C31.1084 6.62403 30.8438 6.88785 30.8438 7.20872V14.1964C30.8438 14.5173 31.1084 14.7811 31.4303 14.7811H32.0167C32.6603 14.7811 33.1823 14.2606 33.1823 13.6188V7.7934C33.1823 7.15167 32.6603 6.62403 32.0167 6.62403ZM20.9321 6.62403H20.3529C19.7021 6.62403 19.1801 7.15167 19.1801 7.7934V13.6188C19.1801 14.2606 19.7021 14.7811 20.3529 14.7811H20.9321C21.2539 14.7811 21.5185 14.5173 21.5185 14.1964V7.20872C21.5185 6.88785 21.2539 6.62403 20.9321 6.62403Z" fill="#7E8390"/>
<path d="M7.55921 33.9472C7.46624 33.8973 7.37327 33.8474 7.28746 33.7975C7.20879 33.7547 7.12298 33.6977 7.03716 33.6335C7.08722 33.7476 7.18019 33.8617 7.29461 33.9758C7.41618 34.0827 7.48054 34.1469 7.48054 34.154C7.24455 34.6389 6.9585 35.0453 6.60808 35.3733C6.26482 35.6942 5.89295 35.958 5.49963 36.1505C5.11346 36.343 4.72014 36.4856 4.33397 36.564C3.94065 36.6425 3.59023 36.6781 3.26843 36.6781C2.66056 36.6781 2.18143 36.5926 1.83101 36.4214C1.4806 36.2432 1.22315 36.0008 1.04437 35.6799C0.87274 35.359 0.76547 34.974 0.715411 34.5248C0.665352 34.0756 0.643898 33.5836 0.643898 33.0488C0.643898 32.6424 0.672503 32.2288 0.722562 31.8153C0.772621 31.3946 0.87274 31.0238 1.01577 30.6816C1.15879 30.3464 1.35188 30.0755 1.59502 29.8616C1.83817 29.6548 2.14567 29.5478 2.52469 29.5478C2.56045 29.5478 2.68917 29.5621 2.92516 29.5978C3.154 29.6263 3.4043 29.6905 3.67605 29.7903C3.94065 29.8901 4.18379 30.0327 4.40548 30.211C4.62002 30.3892 4.72729 30.6174 4.72729 30.9026C4.72729 30.981 4.71299 31.0666 4.67723 31.1736V31.1593C4.54136 31.5372 4.41263 31.9008 4.29821 32.2431C4.20525 32.5497 4.11943 32.8634 4.04792 33.1914C3.96925 33.5194 3.9335 33.7975 3.9335 34.0257C3.9335 34.1754 3.9764 34.318 4.05507 34.4464C4.13373 34.5747 4.21955 34.646 4.31252 34.646C4.45554 34.646 4.61287 34.6246 4.79165 34.589C4.97044 34.5533 5.14922 34.4749 5.32085 34.3537C5.49248 34.2324 5.65696 34.0542 5.79999 33.8189C5.95016 33.5765 6.06458 33.2556 6.1361 32.842C5.76423 32.4356 5.48533 31.9935 5.2994 31.5301C5.10631 31.0595 5.01334 30.6317 5.01334 30.2324C5.01334 29.8402 5.11346 29.5122 5.32085 29.2484C5.52824 28.9846 5.85005 28.8562 6.29343 28.8562C6.55802 28.8562 6.80832 28.9346 7.05146 29.0915C7.29461 29.2484 7.50915 29.4552 7.68793 29.719C7.86671 29.9828 8.00974 30.2823 8.12416 30.6031C8.23143 30.9311 8.28864 31.2591 8.28864 31.6014C8.28864 31.7796 8.27434 31.9436 8.24573 32.1005C8.22428 32.2645 8.18137 32.4071 8.13131 32.5283C8.18137 32.6139 8.26003 32.6709 8.37445 32.6923C8.48172 32.7208 8.6033 32.728 8.73917 32.7137C8.86789 32.6923 8.99662 32.6638 9.12534 32.6067C9.25406 32.5568 9.36133 32.4855 9.44 32.3857C9.52581 32.293 9.60448 32.2146 9.68314 32.1433C9.75466 32.072 9.81902 32.0434 9.86908 32.0434C10.1623 32.0862 10.3697 32.1718 10.4769 32.3073C10.5914 32.4427 10.6486 32.6067 10.6486 32.785C10.6486 33.2128 10.5198 33.5408 10.2624 33.7618C10.0121 33.9829 9.71175 34.1255 9.36133 34.1897C9.05383 34.2396 8.73917 34.2396 8.41021 34.1968C8.0884 34.1469 7.80235 34.0684 7.55921 33.9472ZM14.9465 33.3982C14.9608 33.441 14.968 33.5052 14.968 33.605C14.968 33.9045 14.8178 34.2396 14.5246 34.589C14.2242 34.9383 13.8667 35.2663 13.4447 35.5658C13.0228 35.8653 12.5866 36.122 12.1289 36.3216C11.6784 36.5284 11.2922 36.6353 10.9775 36.6353C10.5771 36.6353 10.2409 36.5712 9.9835 36.4428C9.7189 36.3145 9.50436 36.122 9.34703 35.8653C9.1897 35.6086 9.07528 35.2806 9.01807 34.8742C8.95371 34.4677 8.91795 33.99 8.91795 33.4267C8.91795 33.006 8.95371 32.5782 9.03237 32.1361C9.10389 31.6941 9.21831 31.2876 9.37564 30.9311C9.54012 30.5675 9.7475 30.268 10.005 30.047C10.2624 29.8188 10.5842 29.7047 10.9632 29.7047C11.4996 29.7047 11.9143 29.7689 12.2147 29.8972C12.5079 30.0184 12.7224 30.1682 12.8655 30.3393C13.0085 30.5033 13.0943 30.6673 13.1229 30.8313C13.1444 30.9953 13.1587 31.1094 13.1587 31.1736C13.1587 31.2662 13.1515 31.3589 13.1372 31.4445C13.1229 31.5229 13.0943 31.6228 13.0586 31.7226C13.0228 31.8295 12.9799 31.9508 12.9227 32.0791C12.8726 32.2146 12.8083 32.3786 12.7367 32.5782C12.6509 32.8064 12.5937 33.0417 12.5651 33.2699C12.5437 33.5052 12.5008 33.8046 12.4507 34.1897C12.5437 34.1469 12.6581 34.0684 12.7868 33.9686C12.9227 33.8617 13.0657 33.7333 13.2159 33.5978C13.3661 33.4552 13.5305 33.2984 13.7022 33.1344C13.8667 32.9775 14.0383 32.8064 14.2028 32.6424C14.3243 32.5212 14.4602 32.5426 14.6247 32.6923C14.7892 32.8492 14.8964 33.0845 14.9465 33.3982ZM11.9716 29.0915C11.7427 29.0915 11.5067 29.0773 11.2707 29.0416C11.0347 29.0131 10.8202 28.9346 10.6271 28.8063C10.4412 28.678 10.2839 28.4926 10.1623 28.2573C10.0407 28.0148 9.9835 27.6868 9.9835 27.2733C9.9835 26.9596 10.0336 26.6601 10.1408 26.3677C10.2409 26.0825 10.3768 25.8187 10.5413 25.5977C10.7058 25.3695 10.8917 25.1912 11.0991 25.0558C11.2993 24.9274 11.5067 24.8633 11.707 24.8633C11.9143 24.8633 12.1718 24.9132 12.4793 25.013C12.7868 25.1128 13.08 25.2412 13.3661 25.398C13.6521 25.5549 13.8953 25.726 14.0955 25.9185C14.2957 26.1111 14.3959 26.2893 14.3959 26.4676C14.3959 26.6102 14.3029 26.7314 14.1098 26.8526C13.9525 26.931 13.8094 27.095 13.6879 27.3375C13.5663 27.5799 13.4376 27.8366 13.2874 28.0933C13.1372 28.3571 12.9656 28.5924 12.7582 28.792C12.5508 28.9917 12.2934 29.0915 11.9716 29.0915ZM20.6604 34.9098C20.3886 34.7743 20.1526 34.6317 19.9524 34.4677C19.7164 34.7672 19.4518 35.0453 19.1586 35.3091C18.8654 35.5729 18.5436 35.8011 18.2075 35.9936C17.8714 36.1861 17.5067 36.343 17.1276 36.4571C16.7415 36.5712 16.3339 36.6353 15.9119 36.6353C15.5258 36.6353 15.1753 36.5498 14.8678 36.3929C14.5675 36.2361 14.31 36.0221 14.1026 35.7512C13.8953 35.4731 13.7379 35.1523 13.6378 34.7886C13.5305 34.4178 13.4805 34.0185 13.4805 33.5836C13.4805 33.334 13.4948 32.949 13.5234 32.4285C13.5591 31.908 13.6092 31.3304 13.6879 30.703C13.7737 30.0684 13.881 29.4195 14.024 28.7421C14.167 28.0719 14.3458 27.4587 14.5603 26.9096C14.7749 26.3677 15.0395 25.9185 15.3398 25.562C15.6402 25.2126 15.9906 25.0344 16.4054 25.0344C16.6128 25.0344 16.8845 25.0986 17.2063 25.2198C17.5281 25.341 17.8356 25.505 18.136 25.7118C18.4363 25.9257 18.6938 26.1752 18.9155 26.4604C19.13 26.7528 19.2373 27.0665 19.2373 27.4016C19.2373 27.4729 19.2158 27.5514 19.1801 27.6227C19.1443 27.694 19.0656 27.7795 18.9369 27.8722C18.7152 27.9934 18.4935 28.2573 18.2719 28.6708C18.0502 29.0844 17.8499 29.5764 17.6711 30.1468C17.4924 30.7172 17.3422 31.3233 17.2278 31.9721C17.1133 32.6139 17.0561 33.2271 17.0561 33.8046C17.0561 33.9258 17.0561 34.0399 17.0561 34.1469C17.0561 34.261 17.0561 34.3679 17.0704 34.4891C17.2063 34.4677 17.3493 34.4178 17.4924 34.3537C17.6282 34.2824 17.7713 34.1968 17.9071 34.0827C18.043 33.9758 18.1646 33.8474 18.2719 33.6977C18.3791 33.5479 18.4649 33.3982 18.5222 33.2413C18.5651 33.3126 18.6223 33.3768 18.7009 33.4196C18.7724 33.4695 18.8511 33.498 18.9369 33.5052C18.6294 33.1273 18.3934 32.7351 18.2146 32.3215C18.043 31.9151 17.9572 31.5372 17.9572 31.1878C17.9572 30.8598 17.993 30.6103 18.0573 30.4249C18.1288 30.2395 18.2218 30.104 18.3434 30.0113C18.4649 29.9258 18.6151 29.8687 18.7939 29.8473C18.9727 29.8259 19.1729 29.8188 19.3946 29.8188C19.8165 29.8188 20.1383 29.9115 20.36 30.1111C20.5817 30.3037 20.7319 30.5532 20.8106 30.8598C20.8892 31.1593 20.9107 31.5015 20.8606 31.8723C20.8106 32.2502 20.7319 32.6139 20.6175 32.9704C20.6246 33.1059 20.689 33.2199 20.8106 33.3126C20.9321 33.3982 21.0752 33.4624 21.2468 33.4909C21.4184 33.5265 21.5829 33.5265 21.7545 33.498C21.919 33.4766 22.062 33.4053 22.1622 33.2841C22.248 33.1914 22.3409 33.1201 22.4339 33.0773C22.5269 33.0274 22.6055 33.006 22.6556 33.006C22.9488 33.0488 23.1562 33.1344 23.2635 33.2699C23.3779 33.4053 23.4279 33.5622 23.4279 33.7476C23.4279 34.1754 23.3064 34.5034 23.0489 34.7244C22.7986 34.9455 22.4983 35.0881 22.1479 35.1523C21.8404 35.2022 21.5829 35.2022 21.3612 35.1594C21.1395 35.1095 20.9035 35.031 20.6604 34.9098ZM28.7628 32.564C28.7771 32.5426 28.8057 32.5212 28.8701 32.5069C28.9273 32.4927 28.9702 32.4855 28.9988 32.4855C29.2849 32.4855 29.4994 32.514 29.6424 32.5782C29.7854 32.6424 29.857 32.7779 29.857 32.9846C29.857 33.3625 29.7068 33.769 29.4064 34.1968C29.1061 34.6175 28.7199 35.0096 28.2408 35.359C27.7688 35.7155 27.2396 36.0079 26.6603 36.2361C26.0811 36.4714 25.5018 36.5854 24.9369 36.5854C24.3362 36.5854 23.7998 36.4999 23.3421 36.3287C22.8844 36.1648 22.4983 35.9295 22.1908 35.6228C21.8761 35.3162 21.6401 34.9455 21.4756 34.5177C21.3112 34.0898 21.2325 33.605 21.2325 33.0631C21.2325 32.564 21.3255 32.1005 21.5185 31.6798C21.7045 31.2591 21.9834 30.8955 22.3409 30.5889C22.6985 30.2823 23.1419 30.047 23.6639 29.8758C24.186 29.7118 24.7795 29.6263 25.4375 29.6263C26.267 29.6263 26.9178 29.8045 27.3969 30.1539C27.8761 30.5104 28.112 30.9882 28.112 31.6014C28.112 31.8795 28.0405 32.1575 27.8832 32.4285C27.733 32.6923 27.5185 32.949 27.2396 33.1843C26.9607 33.4196 26.6246 33.6335 26.2384 33.8331C25.8522 34.0257 25.4303 34.1897 24.9655 34.3109C25.1228 34.5319 25.3588 34.6317 25.6735 34.6032C25.981 34.5747 26.3171 34.4749 26.6818 34.2895C27.0465 34.1041 27.4112 33.8545 27.7831 33.5479C28.155 33.2342 28.4768 32.9062 28.7628 32.564ZM24.3004 32.8777C24.4577 32.8278 24.5936 32.7493 24.6937 32.6567C24.801 32.564 24.8868 32.4641 24.9512 32.3572C25.0155 32.2502 25.0584 32.1504 25.0942 32.0506C25.1228 31.9508 25.1371 31.8652 25.1371 31.801C25.1371 31.7511 25.13 31.6869 25.1085 31.6085C25.087 31.5301 25.0656 31.4873 25.0441 31.4873C24.9583 31.4873 24.8725 31.5229 24.7795 31.58C24.6794 31.6442 24.5936 31.7297 24.5221 31.8295C24.4506 31.9294 24.3862 32.0434 24.3433 32.1861C24.2933 32.3215 24.2718 32.4641 24.2718 32.621C24.2718 32.6852 24.2789 32.7707 24.3004 32.8777ZM28.8772 26.2037C28.8772 25.9684 29.0346 25.7403 29.3564 25.4978C29.6782 25.2626 30.093 25.0558 30.6007 24.8704C31.1084 24.685 31.6662 24.5353 32.2813 24.4212C32.9034 24.3071 33.5041 24.2429 34.0977 24.2429C34.9701 24.2429 35.721 24.3356 36.3503 24.5139C36.9797 24.6921 37.4946 24.9346 37.9022 25.234C38.3098 25.5335 38.6102 25.8829 38.8032 26.2751C38.9963 26.6672 39.0964 27.0736 39.0964 27.4943C39.0964 28.1361 38.8962 28.7706 38.4957 29.3981C38.0953 30.0256 37.5232 30.5603 36.7866 31.0024C37.1656 31.1165 37.4731 31.2591 37.7019 31.4445C37.9379 31.6228 38.1167 31.8153 38.2454 32.0221C38.367 32.236 38.4528 32.4427 38.4957 32.6567C38.5386 32.8634 38.5601 33.0631 38.5601 33.2413C38.5601 33.7048 38.4385 34.1326 38.1954 34.5248C37.9522 34.917 37.6304 35.2592 37.2371 35.5444C36.8438 35.8296 36.3933 36.0507 35.8998 36.2147C35.4064 36.3787 34.9058 36.4571 34.398 36.4571C34.0262 36.4571 33.7044 36.4571 33.4183 36.45C33.1323 36.4428 32.8748 36.4357 32.6388 36.4286C32.6174 36.5712 32.553 36.6853 32.4386 36.7566C32.317 36.835 32.1096 36.8706 31.8021 36.8706C31.4302 36.8706 31.1084 36.8136 30.8224 36.7138C30.5363 36.6068 30.286 36.4143 30.0787 36.1434C29.8856 35.8724 29.7282 35.5515 29.5924 35.1879C29.4636 34.8243 29.3564 34.4321 29.2706 34.0114C29.1847 33.5907 29.1275 33.1558 29.0918 32.7066C29.0489 32.2502 29.0346 31.801 29.0346 31.3447C29.0346 30.6958 29.0632 30.0684 29.1275 29.4623C29.1919 28.8562 29.2992 28.3286 29.4422 27.8722L29.5423 27.5728C29.3278 27.3874 29.1633 27.1735 29.0489 26.931C28.9344 26.6886 28.8772 26.4462 28.8772 26.2037ZM32.4958 31.801C32.4672 32.0577 32.4457 32.3001 32.4386 32.5426C32.4243 32.785 32.4171 33.0274 32.4171 33.2556C32.4171 33.2984 32.4171 33.3625 32.4171 33.4624C32.4171 33.5551 32.4243 33.6549 32.4243 33.7547C32.4314 33.8545 32.4386 33.9472 32.4457 34.0399C32.4457 34.1255 32.4529 34.1897 32.4529 34.2324C32.6746 34.2752 32.8963 34.3109 33.1323 34.3465C33.3611 34.375 33.5828 34.3893 33.7973 34.3893C34.1048 34.3893 34.3551 34.3323 34.5625 34.2111C34.7699 34.0898 34.87 33.8474 34.87 33.4766C34.87 33.1843 34.7341 32.8848 34.4624 32.5853C34.1835 32.2859 33.733 32.0648 33.0965 31.9151L32.4958 31.801ZM33.1966 30.3964C33.4183 30.3964 33.6329 30.3393 33.8331 30.2181C34.0405 30.0969 34.2264 29.9471 34.3837 29.7618C34.5411 29.5764 34.6698 29.3767 34.7628 29.1557C34.8557 28.9346 34.9058 28.7207 34.9058 28.5211C34.9058 28.2929 34.8271 28.0933 34.6841 27.9364C34.5339 27.7795 34.2908 27.7011 33.9547 27.7011C33.7616 27.7011 33.5542 27.7154 33.3182 27.751C33.3969 27.8936 33.4326 28.022 33.4326 28.1289C33.4326 28.243 33.404 28.3856 33.3468 28.5639C33.2896 28.735 33.2181 28.9204 33.1323 29.12C33.0464 29.3197 32.9606 29.5265 32.8748 29.7475C32.7961 29.9614 32.7246 30.1682 32.6746 30.3678C32.7604 30.3821 32.8391 30.3892 32.9249 30.3892C33.0107 30.3964 33.0965 30.3964 33.1966 30.3964ZM44.8246 33.3982C44.8389 33.441 44.8389 33.5052 44.8389 33.605C44.8389 33.9045 44.6959 34.2396 44.3956 34.589C44.1024 34.9383 43.7448 35.2663 43.3229 35.5658C42.9009 35.8653 42.4647 36.122 42.007 36.3216C41.5565 36.5284 41.1703 36.6353 40.8557 36.6353C40.4552 36.6353 40.1191 36.5712 39.8545 36.4428C39.5899 36.3145 39.3825 36.122 39.2252 35.8653C39.0678 35.6086 38.9534 35.2806 38.8891 34.8742C38.8318 34.4677 38.7961 33.99 38.7961 33.4267C38.7961 33.006 38.8318 32.5782 38.9105 32.1361C38.982 31.6941 39.0964 31.2876 39.2538 30.9311C39.4111 30.5675 39.6256 30.268 39.8831 30.047C40.1405 29.8188 40.4552 29.7047 40.8414 29.7047C41.3777 29.7047 41.7925 29.7689 42.0857 29.8972C42.386 30.0184 42.6006 30.1682 42.7436 30.3393C42.8866 30.5033 42.9725 30.6673 43.0011 30.8313C43.0225 30.9953 43.0368 31.1094 43.0368 31.1736C43.0368 31.2662 43.0297 31.3589 43.0154 31.4445C43.0011 31.5229 42.9725 31.6228 42.9367 31.7226C42.9009 31.8295 42.8509 31.9508 42.8008 32.0791C42.7508 32.2146 42.6864 32.3786 42.6077 32.5782C42.5291 32.8064 42.4719 33.0417 42.4433 33.2699C42.4146 33.5052 42.3789 33.8046 42.3288 34.1897C42.4218 34.1469 42.5362 34.0684 42.6649 33.9686C42.8008 33.8617 42.9367 33.7333 43.094 33.5978C43.2442 33.4552 43.4087 33.2984 43.5732 33.1344C43.7448 32.9775 43.9164 32.8064 44.0809 32.6424C44.1953 32.5212 44.3383 32.5426 44.5028 32.6923C44.6673 32.8492 44.7746 33.0845 44.8246 33.3982ZM41.8497 29.0915C41.6209 29.0915 41.3849 29.0773 41.1489 29.0416C40.9057 29.0131 40.6983 28.9346 40.5052 28.8063C40.3193 28.678 40.162 28.4926 40.0404 28.2573C39.9188 28.0148 39.8545 27.6868 39.8545 27.2733C39.8545 26.9596 39.9117 26.6601 40.0118 26.3677C40.1191 26.0825 40.255 25.8187 40.4194 25.5977C40.5839 25.3695 40.7698 25.1912 40.9701 25.0558C41.1775 24.9274 41.3849 24.8633 41.5851 24.8633C41.7925 24.8633 42.0499 24.9132 42.3574 25.013C42.6649 25.1128 42.9581 25.2412 43.2442 25.398C43.5303 25.5549 43.7734 25.726 43.9736 25.9185C44.1739 26.1111 44.274 26.2893 44.274 26.4676C44.274 26.6102 44.1739 26.7314 43.9879 26.8526C43.8306 26.931 43.6876 27.095 43.566 27.3375C43.4444 27.5799 43.3086 27.8366 43.1655 28.0933C43.0154 28.3571 42.8366 28.5924 42.6363 28.792C42.429 28.9917 42.1644 29.0915 41.8497 29.0915ZM43.4659 38.2254C43.4659 38.0757 43.5088 37.9259 43.6018 37.7619C43.6876 37.5979 43.802 37.4339 43.945 37.2771C44.0881 37.1202 44.2525 36.9705 44.4385 36.8279C44.6244 36.6853 44.8175 36.5712 45.0177 36.4714C44.7746 36.4214 44.5457 36.3359 44.3383 36.2147C44.1238 36.0934 43.9379 35.9295 43.7805 35.7227C43.6232 35.523 43.4945 35.2735 43.4015 34.974C43.3086 34.6817 43.2585 34.3323 43.2585 33.933C43.2585 33.441 43.3801 32.9419 43.6232 32.4427C43.8664 31.9436 44.1882 31.4944 44.5815 31.088C44.9748 30.6816 45.4182 30.3464 45.9116 30.0898C46.3979 29.8331 46.8914 29.7047 47.392 29.7047C47.4921 29.7047 47.5707 29.7118 47.6136 29.719C47.7066 29.1628 47.8568 28.7778 48.057 28.571C48.2573 28.3571 48.5219 28.2573 48.858 28.2573C49.001 28.2573 49.2298 28.3072 49.5659 28.4213C49.8949 28.5282 50.2382 28.678 50.5886 28.8562C50.9318 29.0345 51.2394 29.2341 51.504 29.4552C51.7686 29.6762 51.8973 29.8972 51.8973 30.1325C51.8973 30.2038 51.8973 30.2823 51.8901 30.3678C51.883 30.4534 51.8758 30.539 51.8687 30.6388L50.9676 36.3002C50.846 36.835 50.6959 37.3484 50.5171 37.8404C50.3311 38.3252 50.088 38.7602 49.7805 39.1238C49.473 39.4946 49.1011 39.7869 48.6577 40.008C48.2144 40.229 47.6709 40.3431 47.0415 40.3431C46.734 40.3431 46.3765 40.2789 45.9617 40.1648C45.5541 40.0508 45.1607 39.8939 44.796 39.7014C44.4242 39.5089 44.1095 39.2807 43.8521 39.0311C43.5946 38.7744 43.4659 38.5106 43.4659 38.2254ZM46.6268 33.3625C46.6268 33.6406 46.6768 33.8403 46.7626 33.9544C46.8556 34.0756 46.9486 34.1398 47.0558 34.1398C47.1417 34.1398 47.2203 34.1041 47.2918 34.0399C47.3705 33.9686 47.4063 33.8759 47.4063 33.7618V33.0488C47.4063 32.785 47.4134 32.5283 47.4206 32.2787C47.4349 32.0221 47.4492 31.7725 47.4849 31.5229C47.1917 31.7511 46.97 32.0292 46.8342 32.35C46.6983 32.6709 46.6268 33.006 46.6268 33.3625ZM48.0213 37.9117C48.0213 37.8974 47.9998 37.9045 47.9569 37.9188C47.914 37.9331 47.8639 37.9402 47.8067 37.9331C47.7495 37.9259 47.6923 37.8974 47.6279 37.8475C47.5636 37.7976 47.5135 37.6906 47.4706 37.5409C47.4277 37.384 47.3991 37.1701 47.3848 36.892C47.3633 36.614 47.3777 36.2432 47.4206 35.7797C47.1274 36.0435 46.7984 36.2503 46.4408 36.3929C46.5338 36.5141 46.6053 36.6567 46.6625 36.835C46.7126 37.0133 46.7841 37.1915 46.8699 37.3626C46.9486 37.5409 47.0701 37.6906 47.2132 37.8118C47.3633 37.9402 47.5922 38.0044 47.8925 38.0044C47.914 38.0044 47.9426 38.0044 47.9784 37.9972C48.007 37.9901 48.0213 37.9616 48.0213 37.9117Z" fill="#7E8390"/>
</g>
<defs>
<clipPath id="clip0">
<rect width="51.2595" height="40.3431" fill="white" transform="translate(0.640839)"/>
</clipPath>
</defs>
</svg>
