<svg width="42" height="36" viewBox="0 0 42 36" fill="none" xmlns="http://www.w3.org/2000/svg">
<g clip-path="url(#clip0)">
<path fill-rule="evenodd" clip-rule="evenodd" d="M30.2771 8.82518C29.2767 6.14547 27.8713 3.91833 26.1921 2.38197C29.634 3.57295 32.5757 5.85963 34.5885 8.82518H36.3035C33.0878 3.53722 27.2758 0 20.6302 0C13.9845 0 8.17249 3.53722 4.95683 8.82518H6.67185C8.68461 5.85963 11.6263 3.57295 15.0683 2.38197C13.389 3.91833 11.9836 6.14547 10.9832 8.82518H12.6149C14.3656 4.37091 17.2954 1.44109 20.6302 1.44109C23.9649 1.44109 26.8947 4.37091 28.6455 8.82518H30.2771Z" fill="#7E8390"/>
<path fill-rule="evenodd" clip-rule="evenodd" d="M20.6302 35.9438C27.5498 35.9438 33.5643 32.1089 36.6846 26.4636H35.0173C32.9926 29.7388 29.8841 32.2756 26.1921 33.5619C28.0024 31.8945 29.503 29.4292 30.5153 26.4636H28.8837C27.1806 31.2752 24.1198 34.4908 20.6302 34.5028C17.1406 34.4908 14.0798 31.2752 12.3767 26.4636H10.745C11.7574 29.4292 13.258 31.8945 15.0683 33.5619C11.3763 32.2756 8.26779 29.7388 6.24312 26.4636H4.57574C7.69612 32.1089 13.7106 35.9438 20.6302 35.9438Z" fill="#7E8390"/>
<path fill-rule="evenodd" clip-rule="evenodd" d="M0.00239563 11.35H2.12234L2.37245 11.9931C1.97943 13.0769 1.68168 14.1965 1.49112 15.3636L0.00239563 11.35ZM3.26569 14.387L4.63532 18.0314C4.79015 18.4721 4.93306 18.8532 5.04025 19.1867C5.15935 19.5202 5.25463 19.8298 5.338 20.1156C5.55237 19.4249 5.76675 18.7341 5.99304 18.0672C6.02877 17.9838 6.05259 17.9242 6.0645 17.9004L8.72039 10.8379L11.5192 18.0314C11.6502 18.3887 11.7812 18.7341 11.9003 19.0795C12.0194 19.4368 12.1266 19.7822 12.2219 20.1395C12.2814 19.8655 12.3648 19.5678 12.472 19.2462C12.5673 18.9247 12.7102 18.5316 12.865 18.091L15.3542 11.35H16.7953L12.3767 25.1059L9.35161 17.555C9.2206 17.2216 9.1015 16.8881 8.99432 16.5784C8.88713 16.2688 8.77994 15.971 8.69657 15.6971C8.60129 16.0544 8.4941 16.3879 8.38691 16.6975C8.29163 17.0072 8.18445 17.3049 8.07726 17.5908L5.11171 25.1059L2.76548 18.7937C2.76548 18.746 2.76548 18.6984 2.76548 18.6388C2.76548 17.1739 2.94412 15.7566 3.26569 14.387ZM29.5864 17.9957C29.5864 17.3287 29.4673 16.6975 29.2291 16.0901C28.979 15.4946 28.6217 14.9587 28.1691 14.4823C27.7285 14.0178 27.2044 13.6605 26.6209 13.4104C26.0373 13.1603 25.418 13.0412 24.7629 13.0412C24.1198 13.0412 23.4886 13.1603 22.905 13.4104C22.3214 13.6486 21.7974 14.0178 21.3329 14.4823C20.8803 14.9468 20.5349 15.4827 20.2848 16.0782C20.0466 16.6856 19.9275 17.3168 19.9275 17.9957C19.9275 18.6626 20.0466 19.2939 20.2848 19.8894C20.5349 20.4849 20.8803 21.0208 21.3329 21.4972C21.7974 21.9617 22.3214 22.319 22.905 22.5691C23.4886 22.8192 24.1079 22.9383 24.7629 22.9383C25.4061 22.9383 26.0254 22.8192 26.6089 22.5691C27.1806 22.319 27.7047 21.9617 28.1691 21.4972C28.6336 21.0208 28.979 20.4849 29.2291 19.8894C29.4673 19.2939 29.5864 18.6626 29.5864 17.9957ZM31.8255 17.9957C31.8255 18.9366 31.6587 19.8298 31.3014 20.6635C30.9441 21.4972 30.432 22.2475 29.7651 22.9025C29.0862 23.5695 28.3121 24.0697 27.4545 24.4151C26.597 24.7605 25.7038 24.9391 24.7629 24.9391C23.8101 24.9391 22.905 24.7605 22.0356 24.4151C21.1781 24.0578 20.4158 23.5576 19.7489 22.9025C19.07 22.2475 18.5579 21.5091 18.2125 20.6754C17.8671 19.8417 17.6885 18.9485 17.6885 17.9957C17.6885 17.0548 17.8671 16.1616 18.2125 15.3279C18.5579 14.4823 19.07 13.732 19.7489 13.065C20.4277 12.41 21.19 11.9098 22.0475 11.5644C22.8931 11.2309 23.8101 11.0523 24.7629 11.0523C25.7157 11.0523 26.6209 11.2309 27.4665 11.5644C28.324 11.9098 29.0862 12.41 29.7651 13.065C30.4439 13.732 30.956 14.4942 31.3014 15.3398C31.6587 16.1735 31.8255 17.0667 31.8255 17.9957ZM34.2908 24.5818V11.35H36.4465V22.6643H37.9114C37.7685 23.3194 37.5779 23.9625 37.3635 24.5818H34.2908ZM39.4954 22.6643H41.258V24.5818H38.9952C39.1976 23.9625 39.3644 23.3194 39.4954 22.6643Z" fill="#7E8390"/>
</g>
<defs>
<clipPath id="clip0">
<rect width="41.2604" height="35.9439" fill="white"/>
</clipPath>
</defs>
</svg>
