<svg width="35" height="31" viewBox="0 0 35 31" fill="none" xmlns="http://www.w3.org/2000/svg">
<g clip-path="url(#clip0)">
<path fill-rule="evenodd" clip-rule="evenodd" d="M11.1055 8.2081C12.8941 9.3433 14.9881 10.0419 17.2566 10.0419C19.5688 10.0419 21.6628 9.3433 23.4514 8.2081C26.1998 6.41798 28.0756 3.44901 28.4683 -0.000244141H30.126H32.4818H34.2268C34.0523 2.40113 33.3543 4.62787 32.3073 6.63629H32.2637C29.428 12.0066 23.8004 15.6742 17.2566 15.6742C10.7565 15.6742 5.12889 12.0066 2.29326 6.63629H2.24964C1.20264 4.62787 0.504639 2.40113 0.330139 -0.000244141H2.07514H3.47114H6.08864C6.48127 3.44901 8.35714 6.41798 11.1055 8.2081ZM29.1663 30.2571V18.2502C27.4213 19.3418 25.4581 20.1713 23.4514 20.7389V30.2571H29.1663ZM12.4143 -0.000244141H22.1426C21.5755 2.18283 19.6124 3.7983 17.2566 3.7983C14.9445 3.7983 12.9378 2.18283 12.4143 -0.000244141ZM6.13227 30.2571V18.6432C7.92089 19.6474 9.84039 20.4333 11.8908 20.9136V30.2571H6.13227Z" fill="#7E8390"/>
</g>
<defs>
<clipPath id="clip0">
<rect width="33.9175" height="30.2574" fill="white" transform="translate(0.319275)"/>
</clipPath>
</defs>
</svg>
